<svg width="257" height="342" viewBox="0 0 257 342" fill="none" xmlns="http://www.w3.org/2000/svg">
<path d="M27.8438 6.24H29.8958V14.43H27.8438V6.24ZM21.0938 14.16C20.2538 14.16 19.5038 13.992 18.8438 13.656C18.1958 13.308 17.6918 12.84 17.3318 12.252C16.9838 11.664 16.8098 11.016 16.8098 10.308C16.8098 9.6 16.9838 8.952 17.3318 8.364C17.6918 7.776 18.1958 7.314 18.8438 6.978C19.5038 6.63 20.2538 6.456 21.0938 6.456C21.9338 6.456 22.6778 6.63 23.3258 6.978C23.9858 7.314 24.4898 7.776 24.8378 8.364C25.1978 8.952 25.3778 9.6 25.3778 10.308C25.3778 11.016 25.1978 11.664 24.8378 12.252C24.4898 12.84 23.9858 13.308 23.3258 13.656C22.6778 13.992 21.9338 14.16 21.0938 14.16ZM21.0938 8.184C20.3858 8.184 19.8338 8.388 19.4378 8.796C19.0538 9.192 18.8618 9.696 18.8618 10.308C18.8618 10.92 19.0538 11.43 19.4378 11.838C19.8338 12.234 20.3858 12.432 21.0938 12.432C21.8018 12.432 22.3478 12.234 22.7318 11.838C23.1278 11.43 23.3258 10.92 23.3258 10.308C23.3258 9.696 23.1278 9.192 22.7318 8.796C22.3478 8.388 21.8018 8.184 21.0938 8.184ZM19.3838 17.814H27.8078V16.878H19.3838V15.15H29.8598V19.434H21.4358V20.424H30.2198V22.17H19.3838V17.814ZM41.1444 22.674C39.9924 22.674 38.9904 22.536 38.1384 22.26C37.2984 21.984 36.6564 21.594 36.2124 21.09C35.7684 20.598 35.5464 20.028 35.5464 19.38C35.5464 18.732 35.7684 18.162 36.2124 17.67C36.6564 17.166 37.2984 16.776 38.1384 16.5C38.9904 16.224 39.9924 16.086 41.1444 16.086C42.2964 16.086 43.2924 16.224 44.1324 16.5C44.9844 16.776 45.6324 17.166 46.0764 17.67C46.5204 18.162 46.7424 18.732 46.7424 19.38C46.7424 20.028 46.5204 20.598 46.0764 21.09C45.6324 21.594 44.9844 21.984 44.1324 22.26C43.2924 22.536 42.2964 22.674 41.1444 22.674ZM41.8284 15.15C41.0124 14.814 40.2624 14.37 39.5784 13.818C38.9064 13.266 38.3604 12.654 37.9404 11.982C37.6044 12.69 37.0764 13.374 36.3564 14.034C35.6364 14.682 34.7964 15.222 33.8364 15.654L32.5404 14.178C33.8964 13.602 34.9464 12.84 35.6904 11.892C36.4464 10.932 36.8244 9.906 36.8244 8.814V8.76H33.5304V6.96H42.2424V8.76H38.9484V8.814C38.9484 9.858 39.3084 10.794 40.0284 11.622C40.7484 12.438 41.7144 13.08 42.9264 13.548L41.8284 15.15ZM44.4024 9.84V6.24H46.4544V15.888H44.4024V11.676H41.7924V9.84H44.4024ZM41.1444 20.874C42.2604 20.874 43.1184 20.748 43.7184 20.496C44.3184 20.232 44.6184 19.86 44.6184 19.38C44.6184 18.9 44.3184 18.534 43.7184 18.282C43.1184 18.018 42.2604 17.886 41.1444 17.886C40.0284 17.886 39.1704 18.018 38.5704 18.282C37.9704 18.534 37.6704 18.9 37.6704 19.38C37.6704 19.86 37.9704 20.232 38.5704 20.496C39.1704 20.748 40.0284 20.874 41.1444 20.874ZM60.1008 17.076H53.6388V15.24H68.6868V17.076H62.2248V22.35H60.1008V17.076ZM62.2068 7.248C62.2068 7.956 62.4648 8.646 62.9808 9.318C63.4968 9.99 64.2048 10.584 65.1048 11.1C66.0048 11.616 67.0128 11.994 68.1288 12.234L66.9768 13.89C65.7528 13.602 64.6188 13.128 63.5748 12.468C62.5308 11.796 61.7268 11.016 61.1628 10.128C60.5988 11.016 59.7948 11.796 58.7508 12.468C57.7068 13.128 56.5728 13.602 55.3488 13.89L54.1968 12.234C55.3128 11.994 56.3208 11.616 57.2208 11.1C58.1208 10.584 58.8288 9.99 59.3448 9.318C59.8608 8.646 60.1188 7.956 60.1188 7.248V6.528H62.2068V7.248ZM78.6034 22.674C77.4514 22.674 76.4494 22.536 75.5974 22.26C74.7574 21.984 74.1154 21.594 73.6714 21.09C73.2274 20.598 73.0054 20.028 73.0054 19.38C73.0054 18.732 73.2274 18.162 73.6714 17.67C74.1154 17.166 74.7574 16.776 75.5974 16.5C76.4494 16.224 77.4514 16.086 78.6034 16.086C79.7554 16.086 80.7514 16.224 81.5914 16.5C82.4434 16.776 83.0914 17.166 83.5354 17.67C83.9794 18.162 84.2014 18.732 84.2014 19.38C84.2014 20.028 83.9794 20.598 83.5354 21.09C83.0914 21.594 82.4434 21.984 81.5914 22.26C80.7514 22.536 79.7554 22.674 78.6034 22.674ZM79.2874 15.15C78.4714 14.814 77.7214 14.37 77.0374 13.818C76.3654 13.266 75.8194 12.654 75.3994 11.982C75.0634 12.69 74.5354 13.374 73.8154 14.034C73.0954 14.682 72.2554 15.222 71.2954 15.654L69.9994 14.178C71.3554 13.602 72.4054 12.84 73.1494 11.892C73.9054 10.932 74.2834 9.906 74.2834 8.814V8.76H70.9894V6.96H79.7014V8.76H76.4074V8.814C76.4074 9.858 76.7674 10.794 77.4874 11.622C78.2074 12.438 79.1734 13.08 80.3854 13.548L79.2874 15.15ZM81.8614 9.84V6.24H83.9134V15.888H81.8614V11.676H79.2514V9.84H81.8614ZM78.6034 20.874C79.7194 20.874 80.5774 20.748 81.1774 20.496C81.7774 20.232 82.0774 19.86 82.0774 19.38C82.0774 18.9 81.7774 18.534 81.1774 18.282C80.5774 18.018 79.7194 17.886 78.6034 17.886C77.4874 17.886 76.6294 18.018 76.0294 18.282C75.4294 18.534 75.1294 18.9 75.1294 19.38C75.1294 19.86 75.4294 20.232 76.0294 20.496C76.6294 20.748 77.4874 20.874 78.6034 20.874ZM95.54 18.948H101.804V20.784H86.756V18.948H93.38V15.528H88.808V7.464H99.842V9.282H90.86V13.692H100.112V15.528H95.54V18.948ZM119.5 22.35V6.24H121.552V22.35H119.5ZM118.87 16.266C117.73 16.482 116.212 16.608 114.316 16.644V21.99H112.192V16.662H108.088V14.826H112.606C115.33 14.826 117.418 14.706 118.87 14.466V16.266ZM117.412 13.566C116.584 13.278 115.816 12.858 115.108 12.306C114.412 11.754 113.86 11.13 113.452 10.434C113.044 11.154 112.462 11.82 111.706 12.432C110.962 13.032 110.122 13.53 109.186 13.926L107.98 12.396C108.832 12.072 109.588 11.646 110.248 11.118C110.908 10.59 111.424 10.008 111.796 9.372C112.168 8.736 112.354 8.106 112.354 7.482V6.672H114.442V7.482C114.442 8.418 114.82 9.294 115.576 10.11C116.344 10.914 117.31 11.52 118.474 11.928L117.412 13.566ZM129.777 13.818C128.973 13.818 128.247 13.662 127.599 13.35C126.951 13.026 126.441 12.588 126.069 12.036C125.697 11.472 125.511 10.848 125.511 10.164C125.511 9.48 125.697 8.862 126.069 8.31C126.441 7.746 126.951 7.308 127.599 6.996C128.247 6.672 128.973 6.51 129.777 6.51C130.581 6.51 131.307 6.672 131.955 6.996C132.603 7.308 133.113 7.746 133.485 8.31C133.857 8.862 134.043 9.48 134.043 10.164C134.043 10.848 133.857 11.472 133.485 12.036C133.113 12.588 132.603 13.026 131.955 13.35C131.307 13.662 130.581 13.818 129.777 13.818ZM136.059 22.35V19.542H132.819V17.742H136.059V6.24H138.111V22.35H136.059ZM135.429 16.158C134.277 16.374 132.729 16.5 130.785 16.536V21.99H128.661V16.554H124.647V14.718H129.165C131.889 14.718 133.977 14.598 135.429 14.358V16.158ZM129.777 8.346C129.093 8.346 128.553 8.52 128.157 8.868C127.761 9.204 127.563 9.636 127.563 10.164C127.563 10.692 127.761 11.13 128.157 11.478C128.553 11.814 129.093 11.982 129.777 11.982C130.461 11.982 131.001 11.814 131.397 11.478C131.793 11.13 131.991 10.692 131.991 10.164C131.991 9.636 131.793 9.204 131.397 8.868C131.001 8.52 130.461 8.346 129.777 8.346ZM148.316 15.816C147.212 15.816 146.222 15.624 145.346 15.24C144.47 14.844 143.78 14.304 143.276 13.62C142.784 12.936 142.538 12.174 142.538 11.334C142.538 10.494 142.784 9.732 143.276 9.048C143.78 8.364 144.47 7.83 145.346 7.446C146.222 7.05 147.212 6.852 148.316 6.852C149.42 6.852 150.41 7.05 151.286 7.446C152.162 7.83 152.846 8.364 153.338 9.048C153.842 9.732 154.094 10.494 154.094 11.334C154.094 12.174 153.842 12.936 153.338 13.62C152.846 14.304 152.162 14.844 151.286 15.24C150.41 15.624 149.42 15.816 148.316 15.816ZM140.774 20.784V18.948H143.996V16.122H146.084V18.948H150.512V16.122H152.6V18.948H155.822V20.784H140.774ZM148.316 8.688C147.224 8.688 146.342 8.934 145.67 9.426C144.998 9.906 144.662 10.542 144.662 11.334C144.662 12.126 144.998 12.768 145.67 13.26C146.342 13.74 147.224 13.98 148.316 13.98C149.408 13.98 150.29 13.74 150.962 13.26C151.634 12.768 151.97 12.126 151.97 11.334C151.97 10.542 151.634 9.906 150.962 9.426C150.29 8.934 149.408 8.688 148.316 8.688Z" fill="#030045"/>
<g filter="url(#filter0_d_641_356)">
<rect x="7" y="54" width="241" height="166.136" rx="10.2553" fill="white"/>
<rect x="7.25638" y="54.2564" width="240.487" height="165.623" rx="9.99894" stroke="#D9D9D9" stroke-width="0.512766"/>
<rect x="15.0269" y="79.8947" width="225.025" height="30.766" rx="4.87128" fill="white"/>
<rect x="15.0269" y="79.8947" width="225.025" height="30.766" rx="4.87128" stroke="#D9D9D9" stroke-width="0.512766"/>
<path d="M222.184 96.0255C222.597 96.0255 222.932 95.6907 222.932 95.2777C222.932 94.8647 222.597 94.5299 222.184 94.5299C221.771 94.5299 221.437 94.8647 221.437 95.2777C221.437 95.6907 221.771 96.0255 222.184 96.0255Z" stroke="#B0B0B0" stroke-width="2.05106" stroke-linecap="round" stroke-linejoin="round"/>
<path d="M227.419 96.0255C227.832 96.0255 228.167 95.6907 228.167 95.2777C228.167 94.8647 227.832 94.5299 227.419 94.5299C227.006 94.5299 226.671 94.8647 226.671 95.2777C226.671 95.6907 227.006 96.0255 227.419 96.0255Z" stroke="#B0B0B0" stroke-width="2.05106" stroke-linecap="round" stroke-linejoin="round"/>
<path d="M216.95 96.0255C217.363 96.0255 217.698 95.6907 217.698 95.2777C217.698 94.8647 217.363 94.5299 216.95 94.5299C216.537 94.5299 216.202 94.8647 216.202 95.2777C216.202 95.6907 216.537 96.0255 216.95 96.0255Z" stroke="#B0B0B0" stroke-width="2.05106" stroke-linecap="round" stroke-linejoin="round"/>
<path d="M50.7578 93.6238C50.3578 93.3161 50.0071 92.9593 49.7056 92.5531C49.4102 92.147 49.1795 91.7163 49.0133 91.261C48.878 91.7348 48.6441 92.2055 48.3119 92.6731C47.9858 93.1346 47.595 93.5377 47.1397 93.8822L46.5951 93.3746C46.9705 93.1162 47.3089 92.7777 47.6104 92.3593C47.9181 91.9409 48.158 91.4763 48.3303 90.9656C48.5088 90.4549 48.598 89.938 48.598 89.415V88.6582H47.2135V87.9936H50.7762V88.6582H49.3918V89.415C49.3918 90.178 49.5671 90.8887 49.9179 91.5471C50.2686 92.1993 50.6993 92.71 51.21 93.0792L50.7578 93.6238ZM51.7546 95.0267V90.7718H50.5455V90.0888H51.7546V87.3291H52.5114V95.0267H51.7546ZM54.0713 87.1906V95.4144H53.3052V87.1906H54.0713ZM56.3411 87.5414H62.1005V88.2059H59.6453C59.6453 88.5136 59.7838 88.8274 60.0607 89.1473C60.3376 89.4673 60.7098 89.7534 61.1775 90.0057C61.6513 90.2518 62.1589 90.4334 62.7004 90.5503L62.2758 91.1779C61.6359 91.0364 61.0329 90.7933 60.4668 90.4487C59.9007 90.098 59.4853 89.695 59.2208 89.2396C58.9562 89.695 58.5408 90.098 57.9747 90.4487C57.4086 90.7933 56.8056 91.0364 56.1657 91.1779L55.7411 90.5503C56.2826 90.4334 56.7872 90.2518 57.2548 90.0057C57.7286 89.7534 58.104 89.4673 58.3808 89.1473C58.6577 88.8274 58.7962 88.5136 58.7962 88.2059H56.3411V87.5414ZM58.8331 92.6547H55.3812V91.9901H63.0604V92.6547H59.6084V95.4144H58.8331V92.6547ZM68.0622 92.5347H70.4804V95.4605H69.7051V93.1992H64.8133V92.5347H67.2684V91.0579H63.8719V90.4026H69.4928C69.5728 90.0457 69.6405 89.6581 69.6958 89.2396C69.7574 88.8151 69.7974 88.4305 69.8158 88.0859H64.7764V87.4306H70.6096C70.5788 88.4336 70.4588 89.4242 70.2496 90.4026H71.551V91.0579H68.0622V92.5347ZM76.2298 93.6238C75.8299 93.3161 75.4791 92.9593 75.1776 92.5531C74.8823 92.147 74.6515 91.7163 74.4854 91.261C74.35 91.7348 74.1162 92.2055 73.7839 92.6731C73.4578 93.1346 73.0671 93.5377 72.6117 93.8822L72.0672 93.3746C72.4425 93.1162 72.781 92.7777 73.0825 92.3593C73.3901 91.9409 73.6301 91.4763 73.8024 90.9656C73.9808 90.4549 74.07 89.938 74.07 89.415V88.6582H72.6856V87.9936H76.2483V88.6582H74.8638V89.415C74.8638 90.178 75.0392 90.8887 75.3899 91.5471C75.7406 92.1993 76.1714 92.71 76.6821 93.0792L76.2298 93.6238ZM77.2266 95.0267V90.7718H76.0175V90.0888H77.2266V87.3291H77.9835V95.0267H77.2266ZM79.5433 87.1906V95.4144H78.7772V87.1906H79.5433ZM84.6928 95.5805C84.0775 95.5805 83.5452 95.5067 83.0961 95.359C82.653 95.2175 82.3115 95.0206 82.0715 94.7683C81.8377 94.516 81.7208 94.2299 81.7208 93.9099C81.7208 93.59 81.8377 93.3038 82.0715 93.0515C82.3115 92.7993 82.653 92.6024 83.0961 92.4608C83.5452 92.3132 84.0775 92.2393 84.6928 92.2393C85.3081 92.2393 85.8373 92.3132 86.2803 92.4608C86.7295 92.6024 87.071 92.7993 87.3048 93.0515C87.5448 93.3038 87.6648 93.59 87.6648 93.9099C87.6648 94.2299 87.5448 94.516 87.3048 94.7683C87.071 95.0206 86.7295 95.2175 86.2803 95.359C85.8373 95.5067 85.3081 95.5805 84.6928 95.5805ZM84.6928 92.8946C84.0037 92.8946 83.4652 92.9869 83.0776 93.1715C82.6899 93.35 82.4961 93.5961 82.4961 93.9099C82.4961 94.2237 82.6899 94.4729 83.0776 94.6575C83.4652 94.836 84.0037 94.9252 84.6928 94.9252C85.382 94.9252 85.9204 94.836 86.308 94.6575C86.6957 94.4729 86.8895 94.2237 86.8895 93.9099C86.8895 93.5961 86.6957 93.35 86.308 93.1715C85.9204 92.9869 85.382 92.8946 84.6928 92.8946ZM80.8532 90.7718H83.899V89.1012H84.6928V90.7718H88.5324V91.4271H80.8532V90.7718ZM86.5203 90.2365C86.6803 89.6088 86.7726 88.892 86.7972 88.0859H81.7577V87.4306H87.591C87.5725 88.5936 87.4679 89.5288 87.2771 90.2365H86.5203ZM93.405 95.5805C92.8451 95.5805 92.3559 95.5128 91.9375 95.3775C91.5191 95.2482 91.196 95.0698 90.9683 94.8421C90.7468 94.6206 90.6361 94.3683 90.6361 94.0853C90.6361 93.8022 90.7468 93.55 90.9683 93.3284C91.196 93.1008 91.5191 92.9223 91.9375 92.7931C92.3559 92.6577 92.8451 92.5901 93.405 92.5901C93.9649 92.5901 94.4541 92.6577 94.8725 92.7931C95.291 92.9223 95.6109 93.1008 95.8324 93.3284C96.0601 93.55 96.1739 93.8022 96.1739 94.0853C96.1739 94.3683 96.0601 94.6206 95.8324 94.8421C95.6109 95.0698 95.291 95.2482 94.8725 95.3775C94.4541 95.5128 93.9649 95.5805 93.405 95.5805ZM94.1618 90.541C94.1618 90.8241 94.0726 91.0825 93.8942 91.3163C93.7157 91.5502 93.4665 91.7348 93.1466 91.8701C92.8266 92.0055 92.4605 92.0732 92.0482 92.0732C91.636 92.0732 91.2698 92.0055 90.9499 91.8701C90.6361 91.7348 90.3899 91.5502 90.2115 91.3163C90.0331 91.0825 89.9438 90.8241 89.9438 90.541C89.9438 90.258 90.0331 89.9996 90.2115 89.7657C90.3899 89.5319 90.6391 89.3473 90.9591 89.212C91.2791 89.0766 91.6421 89.0089 92.0482 89.0089C92.4605 89.0089 92.8266 89.0766 93.1466 89.212C93.4665 89.3473 93.7157 89.5319 93.8942 89.7657C94.0726 89.9996 94.1618 90.258 94.1618 90.541ZM93.405 93.2361C92.7774 93.2361 92.2882 93.3131 91.9375 93.4669C91.5867 93.6146 91.4114 93.8207 91.4114 94.0853C91.4114 94.3499 91.5867 94.5591 91.9375 94.7129C92.2882 94.8606 92.7774 94.9344 93.405 94.9344C94.0326 94.9344 94.5218 94.8606 94.8725 94.7129C95.2233 94.5591 95.3986 94.3499 95.3986 94.0853C95.3986 93.8207 95.2233 93.6146 94.8725 93.4669C94.5218 93.3131 94.0326 93.2361 93.405 93.2361ZM95.251 87.1906H96.0263V89.415H97.18V90.098H96.0263V92.4516H95.251V87.1906ZM93.3865 90.541C93.3865 90.2703 93.2666 90.0519 93.0266 89.8857C92.7866 89.7196 92.4605 89.6365 92.0482 89.6365C91.636 89.6365 91.3098 89.7196 91.0699 89.8857C90.836 90.0519 90.7191 90.2703 90.7191 90.541C90.7191 90.8118 90.836 91.0302 91.0699 91.1964C91.3098 91.3625 91.636 91.4456 92.0482 91.4456C92.4605 91.4456 92.7866 91.3625 93.0266 91.1964C93.2666 91.0302 93.3865 90.8118 93.3865 90.541ZM89.547 88.0029H91.6513V87.1168H92.4266V88.0029H94.531V88.6489H89.547V88.0029Z" fill="black"/>
<path d="M49.4124 104.353C49.1458 104.148 48.9119 103.91 48.7109 103.64C48.514 103.369 48.3602 103.082 48.2495 102.778C48.1592 103.094 48.0033 103.408 47.7818 103.72C47.5644 104.027 47.3039 104.296 47.0004 104.526L46.6373 104.187C46.8875 104.015 47.1132 103.789 47.3142 103.51C47.5193 103.232 47.6793 102.922 47.7941 102.581C47.9131 102.241 47.9726 101.896 47.9726 101.548V101.043H47.0496V100.6H49.4247V101.043H48.5017V101.548C48.5017 102.056 48.6186 102.53 48.8525 102.969C49.0863 103.404 49.3734 103.744 49.7139 103.99L49.4124 104.353ZM50.0769 105.289V102.452H49.2709V101.997H50.0769V100.157H50.5815V105.289H50.0769ZM51.6214 100.065V105.547H51.1107V100.065H51.6214ZM53.1346 100.299H56.9742V100.742H55.3374C55.3374 100.947 55.4297 101.156 55.6143 101.369C55.7989 101.582 56.0471 101.773 56.3589 101.941C56.6747 102.106 57.0132 102.227 57.3742 102.304L57.0911 102.723C56.6645 102.629 56.2625 102.467 55.8851 102.237C55.5077 102.003 55.2308 101.734 55.0544 101.431C54.878 101.734 54.6011 102.003 54.2237 102.237C53.8463 102.467 53.4443 102.629 53.0177 102.723L52.7346 102.304C53.0956 102.227 53.432 102.106 53.7438 101.941C54.0596 101.773 54.3099 101.582 54.4945 101.369C54.6791 101.156 54.7714 100.947 54.7714 100.742H53.1346V100.299ZM54.796 103.707H52.4947V103.264H57.6141V103.707H55.3128V105.547H54.796V103.707ZM62.2162 100.065H62.7331V105.547H62.2162V100.065ZM61.3548 104.323C61.0307 104.138 60.7313 103.898 60.4564 103.603C60.1816 103.307 59.9765 103.004 59.8411 102.692C59.7139 103.024 59.5129 103.351 59.2381 103.67C58.9673 103.986 58.6515 104.253 58.2905 104.47L57.9459 104.114C58.4136 103.847 58.7992 103.482 59.1027 103.018C59.4063 102.551 59.5581 102.04 59.5581 101.486V100.477H60.0995V101.498C60.0995 102.048 60.2493 102.534 60.5487 102.957C60.8482 103.379 61.2153 103.707 61.6501 103.941L61.3548 104.323ZM67.8415 105.658C67.4313 105.658 67.0765 105.609 66.777 105.51C66.4816 105.416 66.254 105.285 66.094 105.116C65.9381 104.948 65.8602 104.758 65.8602 104.544C65.8602 104.331 65.9381 104.14 66.094 103.972C66.254 103.804 66.4816 103.673 66.777 103.578C67.0765 103.48 67.4313 103.431 67.8415 103.431C68.2517 103.431 68.6045 103.48 68.8999 103.578C69.1993 103.673 69.427 103.804 69.5829 103.972C69.7428 104.14 69.8228 104.331 69.8228 104.544C69.8228 104.758 69.7428 104.948 69.5829 105.116C69.427 105.285 69.1993 105.416 68.8999 105.51C68.6045 105.609 68.2517 105.658 67.8415 105.658ZM67.8415 103.867C67.3821 103.867 67.0231 103.929 66.7647 104.052C66.5063 104.171 66.377 104.335 66.377 104.544C66.377 104.753 66.5063 104.92 66.7647 105.043C67.0231 105.162 67.3821 105.221 67.8415 105.221C68.3009 105.221 68.6599 105.162 68.9183 105.043C69.1767 104.92 69.306 104.753 69.306 104.544C69.306 104.335 69.1767 104.171 68.9183 104.052C68.6599 103.929 68.3009 103.867 67.8415 103.867ZM65.2818 102.452H67.3123V101.338H67.8415V102.452H70.4012V102.889H65.2818V102.452ZM69.0598 102.095C69.1665 101.677 69.228 101.199 69.2444 100.662H65.8848V100.225H69.7736C69.7613 101 69.6916 101.624 69.5644 102.095H69.0598ZM73.6496 105.658C73.2763 105.658 72.9502 105.613 72.6713 105.523C72.3923 105.436 72.177 105.317 72.0252 105.166C71.8775 105.018 71.8037 104.85 71.8037 104.661C71.8037 104.472 71.8775 104.304 72.0252 104.157C72.177 104.005 72.3923 103.886 72.6713 103.8C72.9502 103.709 73.2763 103.664 73.6496 103.664C74.0229 103.664 74.349 103.709 74.628 103.8C74.9069 103.886 75.1202 104.005 75.2679 104.157C75.4197 104.304 75.4956 104.472 75.4956 104.661C75.4956 104.85 75.4197 105.018 75.2679 105.166C75.1202 105.317 74.9069 105.436 74.628 105.523C74.349 105.613 74.0229 105.658 73.6496 105.658ZM74.1542 102.298C74.1542 102.487 74.0947 102.659 73.9758 102.815C73.8568 102.971 73.6907 103.094 73.4773 103.184C73.264 103.275 73.02 103.32 72.7451 103.32C72.4703 103.32 72.2262 103.275 72.0129 103.184C71.8037 103.094 71.6396 102.971 71.5206 102.815C71.4017 102.659 71.3422 102.487 71.3422 102.298C71.3422 102.11 71.4017 101.937 71.5206 101.781C71.6396 101.626 71.8057 101.503 72.019 101.412C72.2323 101.322 72.4744 101.277 72.7451 101.277C73.02 101.277 73.264 101.322 73.4773 101.412C73.6907 101.503 73.8568 101.626 73.9758 101.781C74.0947 101.937 74.1542 102.11 74.1542 102.298ZM73.6496 104.095C73.2312 104.095 72.9051 104.146 72.6713 104.249C72.4375 104.347 72.3205 104.485 72.3205 104.661C72.3205 104.838 72.4375 104.977 72.6713 105.08C72.9051 105.178 73.2312 105.227 73.6496 105.227C74.068 105.227 74.3942 105.178 74.628 105.08C74.8618 104.977 74.9787 104.838 74.9787 104.661C74.9787 104.485 74.8618 104.347 74.628 104.249C74.3942 104.146 74.068 104.095 73.6496 104.095ZM74.8803 100.065H75.3971V101.548H76.1663V102.003H75.3971V103.572H74.8803V100.065ZM73.6373 102.298C73.6373 102.118 73.5573 101.972 73.3974 101.861C73.2374 101.751 73.02 101.695 72.7451 101.695C72.4703 101.695 72.2529 101.751 72.0929 101.861C71.937 101.972 71.8591 102.118 71.8591 102.298C71.8591 102.479 71.937 102.624 72.0929 102.735C72.2529 102.846 72.4703 102.901 72.7451 102.901C73.02 102.901 73.2374 102.846 73.3974 102.735C73.5573 102.624 73.6373 102.479 73.6373 102.298ZM71.0776 100.606H72.4805V100.015H72.9974V100.606H74.4003V101.037H71.0776V100.606ZM79.4578 104.507H81.7221V104.95H76.6027V104.507H78.9286V103.523H77.3288V101.757H80.4484V100.895H77.3288V100.459H80.9653V102.188H77.8456V103.08H81.0884V103.523H79.4578V104.507ZM84.0616 104.735C84.0616 104.312 84.1477 103.97 84.32 103.707C84.4923 103.445 84.7754 103.209 85.1692 103L85.6984 102.723C85.965 102.579 86.1701 102.434 86.3137 102.286C86.4613 102.134 86.5352 101.95 86.5352 101.732C86.5352 101.507 86.449 101.324 86.2768 101.185C86.1045 101.045 85.8891 100.975 85.6307 100.975C85.3353 100.975 85.0933 101.057 84.9046 101.222C84.72 101.386 84.6277 101.605 84.6277 101.88H84.0678C84.0678 101.589 84.1354 101.336 84.2708 101.123C84.4062 100.91 84.5928 100.746 84.8308 100.631C85.0687 100.516 85.3353 100.459 85.6307 100.459C85.9055 100.459 86.1557 100.514 86.3814 100.625C86.607 100.731 86.7834 100.881 86.9105 101.074C87.0418 101.267 87.1074 101.482 87.1074 101.72C87.1074 101.954 87.0562 102.157 86.9536 102.329C86.8511 102.501 86.7157 102.649 86.5475 102.772C86.3834 102.895 86.1742 103.026 85.9199 103.166L85.3968 103.443C85.1261 103.582 84.9313 103.738 84.8123 103.91C84.6933 104.079 84.6277 104.282 84.6154 104.52H87.1074V105.036H84.0616V104.735Z" fill="#B0B0B0"/>
<path d="M34.848 87.9868H26.9963C26.4013 87.9868 25.8307 88.2232 25.41 88.6439C24.9893 89.0646 24.7529 89.6352 24.7529 90.2302V99.2036C24.7529 99.7985 24.9893 100.369 25.41 100.79C25.8307 101.211 26.4013 101.447 26.9963 101.447H27.5571L26.5476 102.793C26.5034 102.852 26.4713 102.919 26.453 102.99C26.4347 103.062 26.4307 103.136 26.4411 103.209C26.4515 103.282 26.4762 103.352 26.5137 103.415C26.5512 103.479 26.6009 103.534 26.6598 103.578C26.7187 103.622 26.7857 103.654 26.8571 103.673C26.9284 103.691 27.0027 103.695 27.0756 103.685C27.1485 103.674 27.2186 103.65 27.282 103.612C27.3454 103.574 27.4008 103.525 27.445 103.466L28.9592 101.447H32.8851L34.3993 103.466C34.4886 103.585 34.6214 103.664 34.7687 103.685C34.9159 103.706 35.0655 103.667 35.1845 103.578C35.3035 103.489 35.3822 103.356 35.4032 103.209C35.4242 103.062 35.3859 102.912 35.2967 102.793L34.2872 101.447H34.848C35.443 101.447 36.0136 101.211 36.4343 100.79C36.855 100.369 37.0914 99.7985 37.0914 99.2036V90.2302C37.0914 89.6352 36.855 89.0646 36.4343 88.6439C36.0136 88.2232 35.443 87.9868 34.848 87.9868ZM25.8746 94.7169V91.9127H30.3613V94.7169H25.8746ZM31.483 91.9127H35.9697V94.7169H31.483V91.9127ZM26.9963 89.1085H34.848C35.1455 89.1085 35.4308 89.2267 35.6412 89.437C35.8515 89.6474 35.9697 89.9327 35.9697 90.2302V90.791H25.8746V90.2302C25.8746 89.9327 25.9928 89.6474 26.2031 89.437C26.4135 89.2267 26.6988 89.1085 26.9963 89.1085ZM34.848 100.325H26.9963C26.6988 100.325 26.4135 100.207 26.2031 99.9967C25.9928 99.7864 25.8746 99.5011 25.8746 99.2036V95.8385H35.9697V99.2036C35.9697 99.5011 35.8515 99.7864 35.6412 99.9967C35.4308 100.207 35.1455 100.325 34.848 100.325ZM28.6788 98.3623C28.6788 98.5287 28.6295 98.6913 28.537 98.8297C28.4446 98.968 28.3132 99.0759 28.1595 99.1395C28.0058 99.2032 27.8366 99.2199 27.6734 99.1874C27.5102 99.1549 27.3603 99.0748 27.2427 98.9572C27.125 98.8395 27.0449 98.6896 27.0124 98.5264C26.98 98.3632 26.9966 98.1941 27.0603 98.0404C27.124 97.8867 27.2318 97.7553 27.3702 97.6628C27.5085 97.5704 27.6712 97.5211 27.8375 97.5211C28.0607 97.5211 28.2746 97.6097 28.4324 97.7675C28.5902 97.9252 28.6788 98.1392 28.6788 98.3623ZM34.848 98.3623C34.848 98.5287 34.7987 98.6913 34.7062 98.8297C34.6138 98.968 34.4824 99.0759 34.3287 99.1395C34.175 99.2032 34.0058 99.2199 33.8426 99.1874C33.6794 99.1549 33.5295 99.0748 33.4119 98.9572C33.2942 98.8395 33.2141 98.6896 33.1817 98.5264C33.1492 98.3632 33.1659 98.1941 33.2295 98.0404C33.2932 97.8867 33.401 97.7553 33.5394 97.6628C33.6777 97.5704 33.8404 97.5211 34.0068 97.5211C34.2299 97.5211 34.4438 97.6097 34.6016 97.7675C34.7594 97.9252 34.848 98.1392 34.848 98.3623Z" fill="#B0B0B0"/>
<g clip-path="url(#clip0_641_356)">
<line x1="31.4361" y1="110.917" x2="31.4361" y2="126.3" stroke="#D9D9D9" stroke-width="0.512766"/>
<path d="M41.3402 121.07C40.9797 121.07 40.6583 121.008 40.3761 120.884C40.0957 120.76 39.8726 120.588 39.7069 120.368C39.543 120.146 39.4538 119.888 39.4392 119.595H40.1275C40.1421 119.775 40.204 119.931 40.3132 120.062C40.4225 120.191 40.5654 120.292 40.7421 120.363C40.9187 120.434 41.1144 120.469 41.3293 120.469C41.5697 120.469 41.7827 120.427 41.9684 120.343C42.1542 120.26 42.2999 120.143 42.4055 119.994C42.5111 119.845 42.5639 119.672 42.5639 119.475C42.5639 119.269 42.5129 119.088 42.4109 118.931C42.309 118.773 42.1596 118.649 41.963 118.56C41.7663 118.471 41.526 118.426 41.2419 118.426H40.794V117.825H41.2419C41.4641 117.825 41.6589 117.785 41.8264 117.705C41.9958 117.625 42.1278 117.512 42.2225 117.366C42.319 117.221 42.3672 117.049 42.3672 116.853C42.3672 116.663 42.3253 116.499 42.2416 116.358C42.1578 116.218 42.0395 116.109 41.8865 116.031C41.7354 115.952 41.5569 115.913 41.3512 115.913C41.1581 115.913 40.9761 115.949 40.8049 116.02C40.6355 116.089 40.4972 116.19 40.3897 116.323C40.2823 116.454 40.224 116.612 40.2149 116.798H39.5594C39.5703 116.505 39.6586 116.248 39.8243 116.028C39.99 115.806 40.2067 115.633 40.4744 115.509C40.7439 115.385 41.0398 115.323 41.3621 115.323C41.7081 115.323 42.0049 115.393 42.2525 115.534C42.5002 115.672 42.6904 115.855 42.8234 116.083C42.9563 116.31 43.0228 116.556 43.0228 116.82C43.0228 117.135 42.9399 117.404 42.7742 117.626C42.6103 117.848 42.3873 118.002 42.105 118.087V118.131C42.4583 118.189 42.7341 118.34 42.9326 118.582C43.1311 118.822 43.2303 119.12 43.2303 119.475C43.2303 119.779 43.1475 120.052 42.9818 120.294C42.8179 120.535 42.5939 120.724 42.3099 120.862C42.0258 121.001 41.7026 121.07 41.3402 121.07ZM46.2376 121.07C45.877 121.07 45.5556 121.008 45.2734 120.884C44.993 120.76 44.7699 120.588 44.6042 120.368C44.4403 120.146 44.3511 119.888 44.3365 119.595H45.0248C45.0394 119.775 45.1013 119.931 45.2106 120.062C45.3198 120.191 45.4628 120.292 45.6394 120.363C45.816 120.434 46.0118 120.469 46.2266 120.469C46.467 120.469 46.68 120.427 46.8658 120.343C47.0515 120.26 47.1972 120.143 47.3028 119.994C47.4084 119.845 47.4612 119.672 47.4612 119.475C47.4612 119.269 47.4102 119.088 47.3082 118.931C47.2063 118.773 47.057 118.649 46.8603 118.56C46.6636 118.471 46.4233 118.426 46.1392 118.426H45.6913V117.825H46.1392C46.3614 117.825 46.5562 117.785 46.7237 117.705C46.8931 117.625 47.0251 117.512 47.1198 117.366C47.2163 117.221 47.2645 117.049 47.2645 116.853C47.2645 116.663 47.2227 116.499 47.1389 116.358C47.0551 116.218 46.9368 116.109 46.7838 116.031C46.6327 115.952 46.4542 115.913 46.2485 115.913C46.0555 115.913 45.8734 115.949 45.7022 116.02C45.5329 116.089 45.3945 116.19 45.287 116.323C45.1796 116.454 45.1213 116.612 45.1122 116.798H44.4567C44.4676 116.505 44.5559 116.248 44.7217 116.028C44.8874 115.806 45.104 115.633 45.3717 115.509C45.6412 115.385 45.9371 115.323 46.2594 115.323C46.6054 115.323 46.9022 115.393 47.1498 115.534C47.3975 115.672 47.5878 115.855 47.7207 116.083C47.8536 116.31 47.9201 116.556 47.9201 116.82C47.9201 117.135 47.8372 117.404 47.6715 117.626C47.5076 117.848 47.2846 118.002 47.0023 118.087V118.131C47.3556 118.189 47.6315 118.34 47.8299 118.582C48.0284 118.822 48.1276 119.12 48.1276 119.475C48.1276 119.779 48.0448 120.052 47.8791 120.294C47.7152 120.535 47.4912 120.724 47.2072 120.862C46.9231 121.001 46.5999 121.07 46.2376 121.07ZM49.0426 118.309H55.3496V118.825H49.0426V118.309ZM51.9192 118.571H52.5576V120.171H51.9192V118.571ZM49.8425 120.917H54.6497V121.44H49.8425V120.917ZM49.8425 119.548H50.4732V121.109H49.8425V119.548ZM49.881 114.856H50.5117V115.74H53.8806V114.856H54.5113V117.64H49.881V114.856ZM50.5117 116.232V117.125H53.8806V116.232H50.5117Z" fill="#B0B0B0"/>
</g>
<rect x="15.0269" y="127.069" width="225.025" height="30.766" rx="4.87128" fill="white"/>
<rect x="15.0269" y="127.069" width="225.025" height="30.766" rx="4.87128" stroke="#D9D9D9" stroke-width="0.512766"/>
<path d="M222.184 143.2C222.597 143.2 222.932 142.865 222.932 142.452C222.932 142.039 222.597 141.704 222.184 141.704C221.771 141.704 221.437 142.039 221.437 142.452C221.437 142.865 221.771 143.2 222.184 143.2Z" stroke="#B0B0B0" stroke-width="2.05106" stroke-linecap="round" stroke-linejoin="round"/>
<path d="M227.419 143.2C227.832 143.2 228.167 142.865 228.167 142.452C228.167 142.039 227.832 141.704 227.419 141.704C227.006 141.704 226.671 142.039 226.671 142.452C226.671 142.865 227.006 143.2 227.419 143.2Z" stroke="#B0B0B0" stroke-width="2.05106" stroke-linecap="round" stroke-linejoin="round"/>
<path d="M216.95 143.2C217.363 143.2 217.698 142.865 217.698 142.452C217.698 142.039 217.363 141.704 216.95 141.704C216.537 141.704 216.202 142.039 216.202 142.452C216.202 142.865 216.537 143.2 216.95 143.2Z" stroke="#B0B0B0" stroke-width="2.05106" stroke-linecap="round" stroke-linejoin="round"/>
<path d="M51.6531 140.807C51.167 140.543 50.7208 140.192 50.3147 139.755C49.9086 139.312 49.604 138.854 49.401 138.38C49.2041 138.891 48.9057 139.377 48.5057 139.838C48.1119 140.294 47.6443 140.69 47.1028 141.029L46.5767 140.484C47.2781 140.078 47.8535 139.531 48.3026 138.841C48.7518 138.146 48.9764 137.383 48.9764 136.552V135.832H47.2043V135.168H51.5608V135.832H49.7886V136.571C49.7886 137.389 50.0071 138.118 50.444 138.758C50.887 139.398 51.4377 139.891 52.0961 140.235L51.6531 140.807ZM52.7053 134.365H53.4806V137.466H54.7266V138.168H53.4806V142.589H52.7053V134.365ZM56.6733 135.869V140.023H58.2609V135.869H56.6733ZM55.935 135.205H58.9992V140.687H55.935V135.205ZM61.7036 138.186H60.6329V142.201H59.8761V134.503H60.6329V137.466H61.7036V134.365H62.4696V142.589H61.7036V138.186ZM68.0622 139.709H70.4804V142.635H69.7051V140.374H64.8133V139.709H67.2684V138.232H63.8719V137.577H69.4928C69.5728 137.22 69.6405 136.832 69.6958 136.414C69.7574 135.989 69.7974 135.605 69.8158 135.26H64.7764V134.605H70.6096C70.5788 135.608 70.4588 136.599 70.2496 137.577H71.551V138.232H68.0622V139.709ZM75.8145 139.737H72.3625V139.072H80.0417V139.737H76.5898V142.589H75.8145V139.737ZM76.599 134.531V134.974C76.599 135.349 76.7375 135.716 77.0143 136.072C77.2912 136.429 77.6635 136.743 78.1312 137.014C78.6049 137.278 79.1218 137.472 79.6818 137.595L79.2572 138.223C78.6111 138.069 78.005 137.811 77.4389 137.448C76.8728 137.079 76.4606 136.66 76.2021 136.192C75.9437 136.66 75.5314 137.079 74.9653 137.448C74.3992 137.811 73.7932 138.069 73.1471 138.223L72.7225 137.595C73.2824 137.472 73.7962 137.278 74.2639 137.014C74.7377 136.743 75.113 136.429 75.3899 136.072C75.6668 135.716 75.8052 135.349 75.8052 134.974V134.531H76.599Z" fill="black"/>
<path d="M49.4124 151.528C49.1458 151.323 48.9119 151.085 48.7109 150.814C48.514 150.543 48.3602 150.256 48.2495 149.953C48.1592 150.268 48.0033 150.582 47.7818 150.894C47.5644 151.202 47.3039 151.47 47.0004 151.7L46.6373 151.362C46.8875 151.189 47.1132 150.964 47.3142 150.685C47.5193 150.406 47.6793 150.096 47.7941 149.756C47.9131 149.415 47.9726 149.071 47.9726 148.722V148.217H47.0496V147.774H49.4247V148.217H48.5017V148.722C48.5017 149.231 48.6186 149.704 48.8525 150.143C49.0863 150.578 49.3734 150.919 49.7139 151.165L49.4124 151.528ZM50.0769 152.463V149.626H49.2709V149.171H50.0769V147.331H50.5815V152.463H50.0769ZM51.6214 147.239V152.722H51.1107V147.239H51.6214ZM53.1346 147.473H56.9742V147.916H55.3374C55.3374 148.121 55.4297 148.33 55.6143 148.544C55.7989 148.757 56.0471 148.948 56.3589 149.116C56.6747 149.28 57.0132 149.401 57.3742 149.479L57.0911 149.897C56.6645 149.803 56.2625 149.641 55.8851 149.411C55.5077 149.177 55.2308 148.909 55.0544 148.605C54.878 148.909 54.6011 149.177 54.2237 149.411C53.8463 149.641 53.4443 149.803 53.0177 149.897L52.7346 149.479C53.0956 149.401 53.432 149.28 53.7438 149.116C54.0596 148.948 54.3099 148.757 54.4945 148.544C54.6791 148.33 54.7714 148.121 54.7714 147.916H53.1346V147.473ZM54.796 150.882H52.4947V150.439H57.6141V150.882H55.3128V152.722H54.796V150.882ZM62.2162 147.239H62.7331V152.722H62.2162V147.239ZM61.3548 151.497C61.0307 151.312 60.7313 151.072 60.4564 150.777C60.1816 150.482 59.9765 150.178 59.8411 149.866C59.7139 150.199 59.5129 150.525 59.2381 150.845C58.9673 151.161 58.6515 151.427 58.2905 151.645L57.9459 151.288C58.4136 151.021 58.7992 150.656 59.1027 150.193C59.4063 149.725 59.5581 149.214 59.5581 148.66V147.651H60.0995V148.673C60.0995 149.222 60.2493 149.709 60.5487 150.131C60.8482 150.554 61.2153 150.882 61.6501 151.116L61.3548 151.497ZM67.9892 152.832C67.6159 152.832 67.2898 152.787 67.0108 152.697C66.7319 152.611 66.5165 152.492 66.3647 152.34C66.2171 152.192 66.1432 152.024 66.1432 151.835C66.1432 151.647 66.2171 151.479 66.3647 151.331C66.5165 151.179 66.7319 151.06 67.0108 150.974C67.2898 150.884 67.6159 150.839 67.9892 150.839C68.3625 150.839 68.6886 150.884 68.9675 150.974C69.2465 151.06 69.4598 151.179 69.6075 151.331C69.7592 151.479 69.8351 151.647 69.8351 151.835C69.8351 152.024 69.7592 152.192 69.6075 152.34C69.4598 152.492 69.2465 152.611 68.9675 152.697C68.6886 152.787 68.3625 152.832 67.9892 152.832ZM68.4937 149.473C68.4937 149.661 68.4343 149.834 68.3153 149.99C68.1963 150.145 68.0302 150.268 67.8169 150.359C67.6036 150.449 67.3595 150.494 67.0847 150.494C66.8098 150.494 66.5657 150.449 66.3524 150.359C66.1432 150.268 65.9791 150.145 65.8602 149.99C65.7412 149.834 65.6817 149.661 65.6817 149.473C65.6817 149.284 65.7412 149.112 65.8602 148.956C65.9791 148.8 66.1453 148.677 66.3586 148.587C66.5719 148.496 66.8139 148.451 67.0847 148.451C67.3595 148.451 67.6036 148.496 67.8169 148.587C68.0302 148.677 68.1963 148.8 68.3153 148.956C68.4343 149.112 68.4937 149.284 68.4937 149.473ZM67.9892 151.269C67.5708 151.269 67.2446 151.321 67.0108 151.423C66.777 151.522 66.6601 151.659 66.6601 151.835C66.6601 152.012 66.777 152.151 67.0108 152.254C67.2446 152.352 67.5708 152.402 67.9892 152.402C68.4076 152.402 68.7337 152.352 68.9675 152.254C69.2014 152.151 69.3183 152.012 69.3183 151.835C69.3183 151.659 69.2014 151.522 68.9675 151.423C68.7337 151.321 68.4076 151.269 67.9892 151.269ZM69.2198 147.239H69.7367V148.722H70.5058V149.177H69.7367V150.746H69.2198V147.239ZM67.9769 149.473C67.9769 149.292 67.8969 149.147 67.7369 149.036C67.5769 148.925 67.3595 148.87 67.0847 148.87C66.8098 148.87 66.5924 148.925 66.4324 149.036C66.2765 149.147 66.1986 149.292 66.1986 149.473C66.1986 149.653 66.2765 149.799 66.4324 149.91C66.5924 150.02 66.8098 150.076 67.0847 150.076C67.3595 150.076 67.5769 150.02 67.7369 149.91C67.8969 149.799 67.9769 149.653 67.9769 149.473ZM65.4171 147.781H66.8201V147.19H67.3369V147.781H68.7399V148.211H65.4171V147.781ZM71.656 151.269H74.831V150.753H71.656V150.328H75.3479V151.682H72.1729V152.229H75.471V152.66H71.656V151.269ZM70.9422 149.362H72.9728V148.377H73.502V149.362H76.0617V149.786H70.9422V149.362ZM74.7326 149.023C74.831 148.683 74.8885 148.283 74.9049 147.824H71.5452V147.399H75.4341C75.4218 148.043 75.3561 148.585 75.2372 149.023H74.7326ZM80.5407 147.239H81.0576V148.26H81.8267V148.716H81.0576V150.26H80.5407V147.239ZM77.5995 150.531H81.0453V152.66H77.5995V150.531ZM80.5284 152.223V150.968H78.1164V152.223H80.5284ZM76.9842 147.405H77.501V149.337H77.9564C78.8876 149.337 79.6465 149.288 80.2331 149.19V149.626C79.6957 149.733 78.9368 149.786 77.9564 149.786H76.9842V147.405ZM83.383 151.269H86.3735V150.765H83.383V150.334H86.8903V151.688H83.8999V152.223H87.0134V152.66H83.383V151.269ZM86.9026 147.239V150.063H86.3858V147.239H86.9026ZM82.3431 149.725C82.7492 149.639 83.1246 149.508 83.4692 149.331C83.8178 149.151 84.1029 148.939 84.3245 148.697C84.5501 148.455 84.6875 148.201 84.7367 147.934H82.7185V147.497H85.3274C85.3192 147.965 85.1777 148.381 84.9029 148.747C84.628 149.112 84.2855 149.409 83.8753 149.639C83.4692 149.864 83.0508 150.026 82.62 150.125L82.3431 149.725ZM92.9956 151.319H92.3741V152.211H91.8326V151.319H89.5005V151.097C89.5005 150.941 89.519 150.81 89.5559 150.703C89.5928 150.597 89.6523 150.478 89.7344 150.346L91.2357 148.082C91.326 147.947 91.4224 147.854 91.5249 147.805C91.6275 147.752 91.7526 147.725 91.9003 147.725H92.3741V150.826H92.9956V151.319ZM91.8326 148.254C91.7547 148.258 91.6931 148.299 91.648 148.377L90.3189 150.383C90.1918 150.576 90.1118 150.724 90.0789 150.826H91.8326V148.254ZM95.5534 149.294C95.8036 149.294 96.0395 149.356 96.261 149.479C96.4825 149.598 96.6609 149.772 96.7963 150.002C96.9317 150.227 96.9994 150.492 96.9994 150.796V150.802C96.9994 151.101 96.9296 151.366 96.7902 151.595C96.6507 151.821 96.4599 151.995 96.2179 152.119C95.98 152.242 95.7154 152.303 95.4241 152.303H95.418C94.938 152.303 94.5442 152.149 94.2366 151.842C93.933 151.53 93.7812 151.048 93.7812 150.396V149.626C93.7812 148.941 93.9433 148.439 94.2673 148.119C94.5914 147.795 95.0037 147.633 95.5041 147.633H95.5103C95.7851 147.633 96.0374 147.69 96.2671 147.805C96.4969 147.916 96.6814 148.072 96.8209 148.273C96.9645 148.47 97.0486 148.693 97.0732 148.943H96.5194C96.4702 148.714 96.3512 148.525 96.1625 148.377C95.9779 148.226 95.7503 148.15 95.4795 148.15H95.4734C95.1411 148.15 94.8704 148.258 94.6611 148.476C94.4519 148.693 94.3473 149.021 94.3473 149.46V150.168C94.4212 149.889 94.5668 149.674 94.7842 149.522C95.0016 149.37 95.256 149.294 95.5472 149.294H95.5534ZM95.3995 151.792C95.58 151.792 95.7482 151.751 95.9041 151.669C96.0641 151.583 96.1912 151.464 96.2856 151.312C96.384 151.157 96.4333 150.982 96.4333 150.789C96.4333 150.597 96.384 150.424 96.2856 150.273C96.1912 150.121 96.0641 150.004 95.9041 149.922C95.7482 149.836 95.58 149.793 95.3995 149.793H95.3934C95.2088 149.793 95.0365 149.834 94.8765 149.916C94.7165 149.994 94.5873 150.108 94.4889 150.26C94.3945 150.408 94.3473 150.58 94.3473 150.777C94.3473 150.974 94.3945 151.15 94.4889 151.306C94.5832 151.458 94.7104 151.577 94.8704 151.663C95.0303 151.749 95.2047 151.792 95.3934 151.792H95.3995Z" fill="#B0B0B0"/>
<path d="M26.9966 141.186V137.821C26.9966 137.672 27.0557 137.53 27.1608 137.425C27.266 137.319 27.4087 137.26 27.5574 137.26C27.7062 137.26 27.8488 137.319 27.954 137.425C28.0592 137.53 28.1183 137.672 28.1183 137.821V141.186C28.1183 141.335 28.0592 141.478 27.954 141.583C27.8488 141.688 27.7062 141.747 27.5574 141.747C27.4087 141.747 27.266 141.688 27.1608 141.583C27.0557 141.478 26.9966 141.335 26.9966 141.186ZM37.0917 137.821V150.72C37.0917 150.869 37.0326 151.012 36.9274 151.117C36.8222 151.222 36.6796 151.281 36.5308 151.281C36.3821 151.281 36.2394 151.222 36.1342 151.117C36.0291 151.012 35.97 150.869 35.97 150.72V147.355H32.605C32.4562 147.355 32.3136 147.296 32.2084 147.191C32.1032 147.086 32.0441 146.943 32.0441 146.795C32.0702 145.451 32.2398 144.114 32.5503 142.807C33.2359 139.968 34.5356 138.066 36.31 137.306C36.3953 137.269 36.4883 137.255 36.5807 137.263C36.6731 137.271 36.762 137.302 36.8395 137.353C36.917 137.404 36.9805 137.474 37.0245 137.555C37.0686 137.637 37.0916 137.728 37.0917 137.821ZM35.97 138.796C33.7147 140.518 33.2731 144.714 33.1868 146.234H35.97V138.796ZM30.3539 137.729C30.3429 137.656 30.3174 137.585 30.2788 137.521C30.2402 137.458 30.1893 137.402 30.1291 137.358C30.0688 137.315 30.0005 137.283 29.928 137.266C29.8556 137.249 29.7804 137.247 29.707 137.259C29.6335 137.271 29.5633 137.298 29.5003 137.338C29.4373 137.377 29.3828 137.429 29.3401 137.49C29.2973 137.551 29.2671 137.62 29.2512 137.693C29.2354 137.765 29.2341 137.84 29.2476 137.914L29.8008 141.23C29.8008 141.825 29.5644 142.396 29.1437 142.817C28.723 143.237 28.1524 143.474 27.5574 143.474C26.9624 143.474 26.3918 143.237 25.9711 142.817C25.5504 142.396 25.3141 141.825 25.3141 141.23L25.8665 137.914C25.88 137.84 25.8788 137.765 25.8629 137.693C25.847 137.62 25.8168 137.551 25.7741 137.49C25.7313 137.429 25.6769 137.377 25.6139 137.338C25.5509 137.298 25.4806 137.271 25.4071 137.259C25.3337 137.247 25.2585 137.249 25.1861 137.266C25.1136 137.283 25.0453 137.315 24.9851 137.358C24.9249 137.402 24.874 137.458 24.8354 137.521C24.7968 137.585 24.7712 137.656 24.7602 137.729L24.1994 141.094C24.1946 141.125 24.1923 141.155 24.1924 141.186C24.1935 141.981 24.4756 142.75 24.9887 143.357C25.5018 143.964 26.213 144.37 26.9966 144.504V150.72C26.9966 150.869 27.0557 151.012 27.1608 151.117C27.266 151.222 27.4087 151.281 27.5574 151.281C27.7062 151.281 27.8488 151.222 27.954 151.117C28.0592 151.012 28.1183 150.869 28.1183 150.72V144.504C28.9018 144.37 29.613 143.964 30.1261 143.357C30.6393 142.75 30.9213 141.981 30.9224 141.186C30.9223 141.155 30.9198 141.125 30.9147 141.094L30.3539 137.729Z" fill="#B0B0B0"/>
<g clip-path="url(#clip1_641_356)">
<line x1="31.4361" y1="158.092" x2="31.4361" y2="173.475" stroke="#D9D9D9" stroke-width="0.512766"/>
<path d="M39.4501 168.168V167.676L41.2965 165.655C41.5132 165.419 41.6917 165.213 41.8319 165.038C41.9721 164.861 42.0759 164.696 42.1433 164.541C42.2124 164.384 42.247 164.22 42.247 164.049C42.247 163.853 42.1997 163.682 42.105 163.538C42.0121 163.395 41.8847 163.284 41.7226 163.205C41.5606 163.127 41.3785 163.088 41.1764 163.088C40.9615 163.088 40.7739 163.132 40.6137 163.222C40.4553 163.309 40.3324 163.432 40.245 163.59C40.1594 163.749 40.1166 163.934 40.1166 164.148H39.472C39.472 163.82 39.5476 163.532 39.6987 163.284C39.8498 163.037 40.0556 162.844 40.316 162.705C40.5782 162.567 40.8723 162.498 41.1982 162.498C41.526 162.498 41.8164 162.567 42.0695 162.705C42.3226 162.844 42.5211 163.03 42.6649 163.265C42.8088 163.5 42.8807 163.762 42.8807 164.049C42.8807 164.255 42.8434 164.456 42.7687 164.653C42.6959 164.848 42.5684 165.065 42.3863 165.306C42.2061 165.544 41.9557 165.836 41.6352 166.18L40.3788 167.523V167.567H42.979V168.168H39.4501ZM44.2819 168.168L46.7838 163.219V163.175H43.8995V162.574H47.483V163.208L44.9921 168.168H44.2819ZM48.299 165.484H54.606V165.999H48.299V165.484ZM51.1756 165.745H51.814V167.345H51.1756V165.745ZM49.0989 168.091H53.9061V168.614H49.0989V168.091ZM49.0989 166.722H49.7296V168.283H49.0989V166.722ZM49.1374 162.03H49.7681V162.915H53.1369V162.03H53.7676V164.815H49.1374V162.03ZM49.7681 163.407V164.299H53.1369V163.407H49.7681Z" fill="#B0B0B0"/>
</g>
<rect x="15.0269" y="174.244" width="225.025" height="30.766" rx="4.87128" fill="white"/>
<rect x="15.0269" y="174.244" width="225.025" height="30.766" rx="4.87128" stroke="#D9D9D9" stroke-width="0.512766"/>
<path d="M222.184 190.374C222.597 190.374 222.932 190.04 222.932 189.627C222.932 189.214 222.597 188.879 222.184 188.879C221.771 188.879 221.437 189.214 221.437 189.627C221.437 190.04 221.771 190.374 222.184 190.374Z" stroke="#B0B0B0" stroke-width="2.05106" stroke-linecap="round" stroke-linejoin="round"/>
<path d="M227.419 190.374C227.832 190.374 228.167 190.04 228.167 189.627C228.167 189.214 227.832 188.879 227.419 188.879C227.006 188.879 226.671 189.214 226.671 189.627C226.671 190.04 227.006 190.374 227.419 190.374Z" stroke="#B0B0B0" stroke-width="2.05106" stroke-linecap="round" stroke-linejoin="round"/>
<path d="M216.95 190.374C217.363 190.374 217.698 190.04 217.698 189.627C217.698 189.214 217.363 188.879 216.95 188.879C216.537 188.879 216.202 189.214 216.202 189.627C216.202 190.04 216.537 190.374 216.95 190.374Z" stroke="#B0B0B0" stroke-width="2.05106" stroke-linecap="round" stroke-linejoin="round"/>
<path d="M48.8287 184.354C48.5026 184.213 48.2534 184.031 48.0811 183.81C47.9088 183.588 47.8227 183.345 47.8227 183.081C47.8227 182.767 47.9396 182.49 48.1734 182.25C48.4072 182.004 48.7426 181.813 49.1795 181.678C49.6225 181.536 50.1394 181.466 50.7301 181.466C51.3208 181.466 51.8346 181.536 52.2715 181.678C52.7145 181.813 53.0529 182.004 53.2867 182.25C53.5205 182.49 53.6375 182.767 53.6375 183.081C53.6375 183.345 53.5513 183.588 53.379 183.81C53.2067 184.031 52.9575 184.213 52.6314 184.354V185.527H54.5697V186.182H46.8905V185.527H48.8287V184.354ZM50.7301 189.929C50.1148 189.929 49.5825 189.862 49.1333 189.726C48.6903 189.591 48.3488 189.403 48.1088 189.163C47.875 188.923 47.7581 188.652 47.7581 188.351C47.7581 188.049 47.875 187.779 48.1088 187.539C48.3488 187.299 48.6903 187.111 49.1333 186.976C49.5825 186.84 50.1148 186.773 50.7301 186.773C51.3454 186.773 51.8746 186.84 52.3176 186.976C52.7668 187.111 53.1083 187.299 53.3421 187.539C53.5821 187.779 53.7021 188.049 53.7021 188.351C53.7021 188.652 53.5821 188.923 53.3421 189.163C53.1083 189.403 52.7668 189.591 52.3176 189.726C51.8746 189.862 51.3454 189.929 50.7301 189.929ZM52.8622 183.081C52.8622 182.779 52.6653 182.545 52.2715 182.379C51.8838 182.207 51.37 182.121 50.7301 182.121C50.0901 182.121 49.5733 182.207 49.1795 182.379C48.7918 182.545 48.598 182.779 48.598 183.081C48.598 183.382 48.7918 183.619 49.1795 183.791C49.5733 183.958 50.0901 184.041 50.7301 184.041C51.37 184.041 51.8838 183.958 52.2715 183.791C52.6653 183.619 52.8622 183.382 52.8622 183.081ZM50.7301 187.428C50.0409 187.428 49.5025 187.511 49.1149 187.677C48.7272 187.837 48.5334 188.062 48.5334 188.351C48.5334 188.64 48.7272 188.868 49.1149 189.034C49.5025 189.194 50.0409 189.274 50.7301 189.274C51.4192 189.274 51.9576 189.194 52.3453 189.034C52.7329 188.868 52.9268 188.64 52.9268 188.351C52.9268 188.062 52.7329 187.837 52.3453 187.677C51.9576 187.511 51.4192 187.428 50.7301 187.428ZM50.7301 184.696C50.324 184.696 49.9425 184.662 49.5856 184.594V185.527H51.8746V184.594C51.5177 184.662 51.1362 184.696 50.7301 184.696ZM56.4703 181.89H62.0174V182.555H57.2456V184.438H62.1558V185.102H56.4703V181.89ZM58.8331 186.911H55.3812V186.247H63.0604V186.911H59.6084V189.763H58.8331V186.911ZM69.7789 181.539H70.5542V183.348H71.7079V184.031H70.5542V186.219H69.7789V181.539ZM65.3671 186.625H70.5358V189.671H65.3671V186.625ZM69.7605 189.016V187.28H66.1424V189.016H69.7605ZM66.2624 185.748C65.8439 185.748 65.4686 185.659 65.1363 185.481C64.8102 185.296 64.5549 185.05 64.3703 184.742C64.1918 184.428 64.1026 184.09 64.1026 183.727C64.1026 183.358 64.1918 183.019 64.3703 182.712C64.5549 182.404 64.8102 182.161 65.1363 181.982C65.4686 181.798 65.8439 181.706 66.2624 181.706C66.6808 181.706 67.0531 181.798 67.3792 181.982C67.7114 182.161 67.9668 182.404 68.1452 182.712C68.3298 183.019 68.4221 183.358 68.4221 183.727C68.4221 184.09 68.3298 184.428 68.1452 184.742C67.9668 185.05 67.7114 185.296 67.3792 185.481C67.0531 185.659 66.6808 185.748 66.2624 185.748ZM66.2624 182.37C65.8378 182.37 65.4994 182.502 65.2471 182.767C65.001 183.025 64.8779 183.345 64.8779 183.727C64.8779 184.108 65.001 184.431 65.2471 184.696C65.4994 184.954 65.8378 185.084 66.2624 185.084C66.6869 185.084 67.0223 184.954 67.2684 184.696C67.5207 184.431 67.6468 184.108 67.6468 183.727C67.6468 183.345 67.5207 183.025 67.2684 182.767C67.0223 182.502 66.6869 182.37 66.2624 182.37Z" fill="black"/>
<path d="M49.4124 198.702C49.1458 198.497 48.9119 198.259 48.7109 197.988C48.514 197.718 48.3602 197.431 48.2495 197.127C48.1592 197.443 48.0033 197.757 47.7818 198.068C47.5644 198.376 47.3039 198.645 47.0004 198.875L46.6373 198.536C46.8875 198.364 47.1132 198.138 47.3142 197.859C47.5193 197.58 47.6793 197.271 47.7941 196.93C47.9131 196.59 47.9726 196.245 47.9726 195.896V195.392H47.0496V194.949H49.4247V195.392H48.5017V195.896C48.5017 196.405 48.6186 196.879 48.8525 197.318C49.0863 197.753 49.3734 198.093 49.7139 198.339L49.4124 198.702ZM50.0769 199.638V196.801H49.2709V196.346H50.0769V194.506H50.5815V199.638H50.0769ZM51.6214 194.413V199.896H51.1107V194.413H51.6214ZM53.1346 194.647H56.9742V195.09H55.3374C55.3374 195.295 55.4297 195.505 55.6143 195.718C55.7989 195.931 56.0471 196.122 56.3589 196.29C56.6747 196.454 57.0132 196.575 57.3742 196.653L57.0911 197.072C56.6645 196.977 56.2625 196.815 55.8851 196.586C55.5077 196.352 55.2308 196.083 55.0544 195.779C54.878 196.083 54.6011 196.352 54.2237 196.586C53.8463 196.815 53.4443 196.977 53.0177 197.072L52.7346 196.653C53.0956 196.575 53.432 196.454 53.7438 196.29C54.0596 196.122 54.3099 195.931 54.4945 195.718C54.6791 195.505 54.7714 195.295 54.7714 195.09H53.1346V194.647ZM54.796 198.056H52.4947V197.613H57.6141V198.056H55.3128V199.896H54.796V198.056ZM62.2162 194.413H62.7331V199.896H62.2162V194.413ZM61.3548 198.671C61.0307 198.487 60.7313 198.247 60.4564 197.952C60.1816 197.656 59.9765 197.353 59.8411 197.041C59.7139 197.373 59.5129 197.699 59.2381 198.019C58.9673 198.335 58.6515 198.602 58.2905 198.819L57.9459 198.462C58.4136 198.196 58.7992 197.831 59.1027 197.367C59.4063 196.899 59.5581 196.389 59.5581 195.835V194.826H60.0995V195.847C60.0995 196.397 60.2493 196.883 60.5487 197.305C60.8482 197.728 61.2153 198.056 61.6501 198.29L61.3548 198.671ZM67.9892 200.007C67.6159 200.007 67.2898 199.962 67.0108 199.871C66.7319 199.785 66.5165 199.666 66.3647 199.514C66.2171 199.367 66.1432 199.199 66.1432 199.01C66.1432 198.821 66.2171 198.653 66.3647 198.505C66.5165 198.354 66.7319 198.235 67.0108 198.148C67.2898 198.058 67.6159 198.013 67.9892 198.013C68.3625 198.013 68.6886 198.058 68.9675 198.148C69.2465 198.235 69.4598 198.354 69.6075 198.505C69.7592 198.653 69.8351 198.821 69.8351 199.01C69.8351 199.199 69.7592 199.367 69.6075 199.514C69.4598 199.666 69.2465 199.785 68.9675 199.871C68.6886 199.962 68.3625 200.007 67.9892 200.007ZM68.4937 196.647C68.4937 196.836 68.4343 197.008 68.3153 197.164C68.1963 197.32 68.0302 197.443 67.8169 197.533C67.6036 197.623 67.3595 197.669 67.0847 197.669C66.8098 197.669 66.5657 197.623 66.3524 197.533C66.1432 197.443 65.9791 197.32 65.8602 197.164C65.7412 197.008 65.6817 196.836 65.6817 196.647C65.6817 196.458 65.7412 196.286 65.8602 196.13C65.9791 195.974 66.1453 195.851 66.3586 195.761C66.5719 195.671 66.8139 195.626 67.0847 195.626C67.3595 195.626 67.6036 195.671 67.8169 195.761C68.0302 195.851 68.1963 195.974 68.3153 196.13C68.4343 196.286 68.4937 196.458 68.4937 196.647ZM67.9892 198.444C67.5708 198.444 67.2446 198.495 67.0108 198.598C66.777 198.696 66.6601 198.834 66.6601 199.01C66.6601 199.186 66.777 199.326 67.0108 199.428C67.2446 199.527 67.5708 199.576 67.9892 199.576C68.4076 199.576 68.7337 199.527 68.9675 199.428C69.2014 199.326 69.3183 199.186 69.3183 199.01C69.3183 198.834 69.2014 198.696 68.9675 198.598C68.7337 198.495 68.4076 198.444 67.9892 198.444ZM69.2198 194.413H69.7367V195.896H70.5058V196.352H69.7367V197.921H69.2198V194.413ZM67.9769 196.647C67.9769 196.467 67.8969 196.321 67.7369 196.21C67.5769 196.099 67.3595 196.044 67.0847 196.044C66.8098 196.044 66.5924 196.099 66.4324 196.21C66.2765 196.321 66.1986 196.467 66.1986 196.647C66.1986 196.828 66.2765 196.973 66.4324 197.084C66.5924 197.195 66.8098 197.25 67.0847 197.25C67.3595 197.25 67.5769 197.195 67.7369 197.084C67.8969 196.973 67.9769 196.828 67.9769 196.647ZM65.4171 194.955H66.8201V194.364H67.3369V194.955H68.7399V195.386H65.4171V194.955ZM71.656 198.444H74.831V197.927H71.656V197.502H75.3479V198.856H72.1729V199.404H75.471V199.834H71.656V198.444ZM70.9422 196.536H72.9728V195.552H73.502V196.536H76.0617V196.961H70.9422V196.536ZM74.7326 196.198C74.831 195.857 74.8885 195.457 74.9049 194.998H71.5452V194.573H75.4341C75.4218 195.217 75.3561 195.759 75.2372 196.198H74.7326ZM80.5407 194.413H81.0576V195.435H81.8267V195.89H81.0576V197.435H80.5407V194.413ZM77.5995 197.705H81.0453V199.834H77.5995V197.705ZM80.5284 199.398V198.142H78.1164V199.398H80.5284ZM76.9842 194.58H77.501V196.512H77.9564C78.8876 196.512 79.6465 196.462 80.2331 196.364V196.801C79.6957 196.908 78.9368 196.961 77.9564 196.961H76.9842V194.58ZM83.383 198.444H86.3735V197.939H83.383V197.509H86.8903V198.862H83.8999V199.398H87.0134V199.834H83.383V198.444ZM86.9026 194.413V197.238H86.3858V194.413H86.9026ZM82.3431 196.899C82.7492 196.813 83.1246 196.682 83.4692 196.506C83.8178 196.325 84.1029 196.114 84.3245 195.872C84.5501 195.63 84.6875 195.375 84.7367 195.109H82.7185V194.672H85.3274C85.3192 195.14 85.1777 195.556 84.9029 195.921C84.628 196.286 84.2855 196.583 83.8753 196.813C83.4692 197.039 83.0508 197.201 82.62 197.299L82.3431 196.899ZM92.9956 198.493H92.3741V199.385H91.8326V198.493H89.5005V198.272C89.5005 198.116 89.519 197.984 89.5559 197.878C89.5928 197.771 89.6523 197.652 89.7344 197.521L91.2357 195.256C91.326 195.121 91.4224 195.029 91.5249 194.98C91.6275 194.926 91.7526 194.9 91.9003 194.9H92.3741V198.001H92.9956V198.493ZM91.8326 195.429C91.7547 195.433 91.6931 195.474 91.648 195.552L90.3189 197.558C90.1918 197.751 90.1118 197.898 90.0789 198.001H91.8326V195.429ZM95.5534 196.469C95.8036 196.469 96.0395 196.53 96.261 196.653C96.4825 196.772 96.6609 196.947 96.7963 197.176C96.9317 197.402 96.9994 197.666 96.9994 197.97V197.976C96.9994 198.276 96.9296 198.54 96.7902 198.77C96.6507 198.996 96.4599 199.17 96.2179 199.293C95.98 199.416 95.7154 199.478 95.4241 199.478H95.418C94.938 199.478 94.5442 199.324 94.2366 199.016C93.933 198.704 93.7812 198.222 93.7812 197.57V196.801C93.7812 196.116 93.9433 195.613 94.2673 195.293C94.5914 194.969 95.0037 194.807 95.5041 194.807H95.5103C95.7851 194.807 96.0374 194.865 96.2671 194.98C96.4969 195.09 96.6814 195.246 96.8209 195.447C96.9645 195.644 97.0486 195.868 97.0732 196.118H96.5194C96.4702 195.888 96.3512 195.699 96.1625 195.552C95.9779 195.4 95.7503 195.324 95.4795 195.324H95.4734C95.1411 195.324 94.8704 195.433 94.6611 195.65C94.4519 195.868 94.3473 196.196 94.3473 196.635V197.342C94.4212 197.063 94.5668 196.848 94.7842 196.696C95.0016 196.545 95.256 196.469 95.5472 196.469H95.5534ZM95.3995 198.967C95.58 198.967 95.7482 198.926 95.9041 198.844C96.0641 198.758 96.1912 198.639 96.2856 198.487C96.384 198.331 96.4333 198.157 96.4333 197.964C96.4333 197.771 96.384 197.599 96.2856 197.447C96.1912 197.295 96.0641 197.178 95.9041 197.096C95.7482 197.01 95.58 196.967 95.3995 196.967H95.3934C95.2088 196.967 95.0365 197.008 94.8765 197.09C94.7165 197.168 94.5873 197.283 94.4889 197.435C94.3945 197.582 94.3473 197.755 94.3473 197.952C94.3473 198.148 94.3945 198.325 94.4889 198.481C94.5832 198.633 94.7104 198.751 94.8704 198.838C95.0303 198.924 95.2047 198.967 95.3934 198.967H95.3995Z" fill="#B0B0B0"/>
<path d="M24.1924 184.435V185.557M24.1924 185.557L26.2637 185.038C27.8224 184.649 29.469 184.83 30.906 185.548L30.9867 185.589C32.3947 186.293 34.0047 186.481 35.537 186.12L37.8626 185.573C37.5799 188.182 37.5812 190.815 37.8664 193.424L35.5378 193.971C34.0053 194.332 32.395 194.144 30.9867 193.44L30.906 193.4C29.469 192.681 27.8224 192.501 26.2637 192.89L24.1924 193.408M24.1924 185.557V193.408M24.1924 197.895V193.408" stroke="#B0B0B0" stroke-width="1.12168" stroke-linecap="round" stroke-linejoin="round"/>
<path d="M193.393 69.0898H190.675V71.8716H189.496V69.0898H186.778V68.0387H189.496V65.2569H190.675V68.0387H193.393V69.0898ZM201.95 73.4294C201.39 73.4294 200.9 73.3555 200.482 73.2079C200.064 73.0602 199.741 72.8602 199.513 72.6079C199.291 72.3557 199.181 72.0695 199.181 71.7496C199.181 71.4296 199.291 71.1435 199.513 70.8912C199.741 70.6389 200.064 70.4389 200.482 70.2913C200.9 70.1436 201.39 70.0697 201.95 70.0697C202.509 70.0697 202.999 70.1436 203.417 70.2913C203.835 70.4389 204.155 70.6389 204.377 70.8912C204.605 71.1435 204.718 71.4296 204.718 71.7496C204.718 72.0695 204.605 72.3557 204.377 72.6079C204.155 72.8602 203.835 73.0602 203.417 73.2079C202.999 73.3555 202.509 73.4294 201.95 73.4294ZM202.596 69.4052C202.146 69.2329 201.725 68.9868 201.331 68.6668C200.943 68.3469 200.645 67.9992 200.436 67.6239C200.257 68.0053 199.968 68.3807 199.568 68.7499C199.174 69.1191 198.722 69.4237 198.211 69.6636L197.722 69.1006C198.393 68.7991 198.941 68.3961 199.365 67.8915C199.796 67.3808 200.011 66.8301 200.011 66.2394V66.0825H198.239V65.4272H202.596V66.0825H200.824V66.2302C200.824 66.8024 201.033 67.3193 201.451 67.7808C201.87 68.2361 202.386 68.5807 203.002 68.8145L202.596 69.4052ZM201.95 70.7343C201.322 70.7343 200.833 70.8266 200.482 71.0112C200.131 71.1896 199.956 71.4358 199.956 71.7496C199.956 72.0634 200.131 72.3126 200.482 72.4972C200.833 72.6756 201.322 72.7648 201.95 72.7648C202.577 72.7648 203.066 72.6756 203.417 72.4972C203.768 72.3126 203.943 72.0634 203.943 71.7496C203.943 71.4358 203.768 71.1896 203.417 71.0112C203.066 70.8266 202.577 70.7343 201.95 70.7343ZM203.795 65.0395H204.571V66.8947H205.725V67.5777H204.571V69.9313H203.795V65.0395ZM210.616 71.7034H214.058V72.368H206.379V71.7034H209.822V69.7744H210.616V71.7034ZM210.219 67.5685C209.948 68.0853 209.542 68.5499 209 68.9622C208.459 69.3683 207.859 69.679 207.201 69.8944L206.758 69.2852C207.305 69.1191 207.813 68.876 208.28 68.5561C208.748 68.2361 209.12 67.87 209.397 67.4577C209.68 67.0455 209.822 66.6209 209.822 66.184V65.501H210.616V66.184C210.616 66.6209 210.754 67.0455 211.031 67.4577C211.314 67.87 211.689 68.2361 212.157 68.5561C212.625 68.876 213.132 69.1191 213.68 69.2852L213.237 69.8944C212.578 69.679 211.979 69.3683 211.437 68.9622C210.896 68.5499 210.489 68.0853 210.219 67.5685ZM221.324 66.544C221.379 66.8332 221.549 67.1131 221.832 67.3839C222.115 67.6485 222.478 67.8823 222.921 68.0853C223.364 68.2884 223.844 68.4361 224.361 68.5284L223.936 69.1375C223.296 69.0145 222.699 68.796 222.145 68.4822C221.592 68.1684 221.179 67.8084 220.909 67.4023C220.638 67.8084 220.226 68.1684 219.672 68.4822C219.118 68.796 218.521 69.0145 217.881 69.1375L217.457 68.5284C217.967 68.4361 218.444 68.2884 218.887 68.0853C219.33 67.8823 219.693 67.6485 219.976 67.3839C220.266 67.1131 220.438 66.8332 220.493 66.544H217.992V65.8887H220.521V64.938H221.296V65.8887H223.825V66.544H221.324ZM220.521 70.5405H217.069V69.8759H224.748V70.5405H221.296V73.2633H220.521V70.5405ZM231.375 65.0395H232.15V68.233H233.396V68.9345H232.15V73.2633H231.375V65.0395ZM225.707 71.3342C226.366 71.002 226.938 70.5774 227.424 70.0605C227.91 69.5436 228.289 68.9806 228.559 68.3715C228.836 67.7561 228.999 67.1347 229.049 66.507H226.132V65.8425H229.861C229.849 66.7593 229.682 67.6115 229.362 68.3992C229.042 69.1806 228.609 69.8667 228.061 70.4574C227.52 71.0419 226.904 71.5157 226.215 71.8788L225.707 71.3342Z" fill="#B0B0B0"/>
<path d="M24.8196 66.2568L24.7812 66.2825C24.6701 66.2825 24.559 66.3039 24.4479 66.3466L22.3071 67.4106L22.0763 65.9236L24.0889 64.9237C24.3539 64.7955 24.6017 64.7143 24.8325 64.6801C25.0717 64.6374 25.3751 64.616 25.7426 64.616H26.6015V73.9996H24.8196V66.2568ZM37.3774 63.6161H38.8388V69.4488H37.3774V63.6161ZM32.5702 69.2565C31.972 69.2565 31.4379 69.1369 30.9678 68.8976C30.5063 68.6498 30.1474 68.3165 29.891 67.8977C29.6432 67.4789 29.5193 67.0175 29.5193 66.5132C29.5193 66.009 29.6432 65.5475 29.891 65.1288C30.1474 64.71 30.5063 64.381 30.9678 64.1417C31.4379 63.8939 31.972 63.7699 32.5702 63.7699C33.1684 63.7699 33.6983 63.8939 34.1598 64.1417C34.6298 64.381 34.9888 64.71 35.2366 65.1288C35.493 65.5475 35.6212 66.009 35.6212 66.5132C35.6212 67.0175 35.493 67.4789 35.2366 67.8977C34.9888 68.3165 34.6298 68.6498 34.1598 68.8976C33.6983 69.1369 33.1684 69.2565 32.5702 69.2565ZM32.5702 65.0006C32.066 65.0006 31.6729 65.1459 31.3909 65.4364C31.1174 65.7184 30.9806 66.0774 30.9806 66.5132C30.9806 66.9491 31.1174 67.3123 31.3909 67.6029C31.6729 67.8849 32.066 68.0259 32.5702 68.0259C33.0744 68.0259 33.4633 67.8849 33.7368 67.6029C34.0188 67.3123 34.1598 66.9491 34.1598 66.5132C34.1598 66.0774 34.0188 65.7184 33.7368 65.4364C33.4633 65.1459 33.0744 65.0006 32.5702 65.0006ZM31.3524 71.8588H37.3518V71.1922H31.3524V69.9616H38.8131V73.0125H32.8138V73.7176H39.0695V74.9611H31.3524V71.8588ZM45.1448 67.0004C45.1448 68.0515 45.4225 68.9702 45.978 69.7565C46.5421 70.5427 47.2813 71.1666 48.1958 71.6281L47.3369 72.7433C46.6874 72.3929 46.1148 71.9742 45.6191 71.4871C45.1234 70.9914 44.726 70.4402 44.4269 69.8334C44.1876 70.4402 43.8073 71.0213 43.286 71.5768C42.7733 72.1237 42.1451 72.6151 41.4016 73.051L40.4145 72.0126C41.4144 71.4657 42.2007 70.7692 42.7733 69.9231C43.3458 69.0771 43.6321 68.0943 43.6321 66.9747V66.9234H41.2221V65.6159H43.6578V63.9879H45.1192V65.6159H47.5548V66.9234H45.1448V67.0004ZM48.6572 63.6161H50.1186V67.8849H51.7979V69.2437H50.1186V75.0892H48.6572V63.6161Z" fill="#B563E8"/>
</g>
<path d="M22.464 276.14H19.5V283.88H18.336V276.14H15.372V275.132H22.464V276.14ZM23.9438 277.34H25.0598V278.684C25.1718 278.204 25.3878 277.832 25.7078 277.568C26.0278 277.304 26.4078 277.172 26.8478 277.172H26.8598C27.2038 277.172 27.5158 277.26 27.7958 277.436C28.0838 277.604 28.3118 277.844 28.4798 278.156C28.6478 278.468 28.7318 278.832 28.7318 279.248L28.7438 279.44H27.6398V279.308C27.6318 278.932 27.5118 278.632 27.2798 278.408C27.0558 278.176 26.7678 278.06 26.4158 278.06H26.4038C26.0118 278.06 25.6878 278.196 25.4318 278.468C25.1838 278.74 25.0598 279.132 25.0598 279.644V283.88H23.9438V277.34ZM35.7848 277.34V283.88H34.6808V281.996C34.5448 282.66 34.2648 283.172 33.8408 283.532C33.4248 283.884 32.9248 284.06 32.3408 284.06H32.3288C31.8568 284.06 31.4208 283.944 31.0208 283.712C30.6288 283.472 30.3128 283.124 30.0728 282.668C29.8328 282.212 29.7128 281.668 29.7128 281.036V280.184C29.7128 279.552 29.8328 279.008 30.0728 278.552C30.3128 278.096 30.6288 277.752 31.0208 277.52C31.4208 277.28 31.8568 277.16 32.3288 277.16H32.3408C32.9328 277.16 33.4368 277.328 33.8528 277.664C34.2688 277.992 34.5448 278.48 34.6808 279.128V277.34H35.7848ZM32.7248 283.1C33.0688 283.1 33.3888 283.012 33.6848 282.836C33.9808 282.66 34.2208 282.4 34.4048 282.056C34.5888 281.712 34.6808 281.296 34.6808 280.808V280.412C34.6808 279.924 34.5888 279.508 34.4048 279.164C34.2208 278.812 33.9808 278.552 33.6848 278.384C33.3888 278.208 33.0688 278.12 32.7248 278.12H32.7128C32.1608 278.12 31.7048 278.308 31.3448 278.684C30.9928 279.06 30.8168 279.604 30.8168 280.316V280.892C30.8168 281.612 30.9928 282.16 31.3448 282.536C31.7048 282.912 32.1608 283.1 32.7128 283.1H32.7248ZM43.5021 277.34L41.0661 283.88H39.5901L37.1661 277.34H38.3781L40.3341 283.136L42.2781 277.34H43.5021ZM47.5018 284.06C46.9578 284.06 46.4578 283.944 46.0018 283.712C45.5458 283.472 45.1818 283.12 44.9098 282.656C44.6378 282.192 44.5018 281.636 44.5018 280.988V280.232C44.5018 279.584 44.6378 279.028 44.9098 278.564C45.1818 278.1 45.5458 277.752 46.0018 277.52C46.4578 277.28 46.9578 277.16 47.5018 277.16H47.5138C48.0498 277.16 48.5458 277.28 49.0018 277.52C49.4578 277.752 49.8218 278.1 50.0938 278.564C50.3738 279.028 50.5138 279.584 50.5138 280.232V280.988C50.5138 281.636 50.3738 282.192 50.0938 282.656C49.8218 283.12 49.4578 283.472 49.0018 283.712C48.5458 283.944 48.0498 284.06 47.5138 284.06H47.5018ZM47.5138 283.1C47.8418 283.1 48.1498 283.024 48.4378 282.872C48.7258 282.712 48.9578 282.48 49.1338 282.176C49.3098 281.872 49.3978 281.512 49.3978 281.096V280.124C49.3978 279.708 49.3098 279.348 49.1338 279.044C48.9578 278.74 48.7258 278.512 48.4378 278.36C48.1498 278.2 47.8418 278.12 47.5138 278.12H47.5018C47.1658 278.12 46.8538 278.2 46.5658 278.36C46.2778 278.512 46.0458 278.74 45.8698 279.044C45.6938 279.348 45.6058 279.708 45.6058 280.124V281.096C45.6058 281.512 45.6938 281.872 45.8698 282.176C46.0458 282.48 46.2778 282.712 46.5658 282.872C46.8538 283.024 47.1658 283.1 47.5018 283.1H47.5138ZM59.3341 274.184H60.3421V278.336H61.9621V279.248H60.3421V284.876H59.3341V274.184ZM51.9661 282.368C52.8221 281.936 53.5661 281.384 54.1981 280.712C54.8301 280.04 55.3221 279.308 55.6741 278.516C56.0341 277.716 56.2461 276.908 56.3101 276.092H52.5181V275.228H57.3661C57.3501 276.42 57.1341 277.528 56.7181 278.552C56.3021 279.568 55.7381 280.46 55.0261 281.228C54.3221 281.988 53.5221 282.604 52.6261 283.076L51.9661 282.368ZM71.2045 276.14C71.2765 276.516 71.4965 276.88 71.8645 277.232C72.2325 277.576 72.7045 277.88 73.2805 278.144C73.8565 278.408 74.4805 278.6 75.1525 278.72L74.6005 279.512C73.7685 279.352 72.9925 279.068 72.2725 278.66C71.5525 278.252 71.0165 277.784 70.6645 277.256C70.3125 277.784 69.7765 278.252 69.0565 278.66C68.3365 279.068 67.5605 279.352 66.7285 279.512L66.1765 278.72C66.8405 278.6 67.4605 278.408 68.0365 278.144C68.6125 277.88 69.0845 277.576 69.4525 277.232C69.8285 276.88 70.0525 276.516 70.1245 276.14H66.8725V275.288H70.1605V274.052H71.1685V275.288H74.4565V276.14H71.2045ZM70.1605 281.336H65.6725V280.472H75.6565V281.336H71.1685V284.876H70.1605V281.336ZM82.9636 280.556C82.3876 280.332 81.8476 280.012 81.3436 279.596C80.8476 279.172 80.4596 278.712 80.1796 278.216C79.9556 278.736 79.5836 279.236 79.0636 279.716C78.5516 280.188 77.9676 280.572 77.3116 280.868L76.6756 280.136C77.5556 279.744 78.2676 279.22 78.8116 278.564C79.3556 277.908 79.6276 277.224 79.6276 276.512V276.272H77.2876V275.432H79.6516V274.088H80.6596V275.432H83.0236V276.272H80.6836V276.5C80.6836 276.964 80.8076 277.412 81.0556 277.844C81.3036 278.276 81.6396 278.66 82.0636 278.996C82.4956 279.332 82.9716 279.596 83.4916 279.788L82.9636 280.556ZM84.7516 278.084H82.8436V277.22H84.7516V274.184H85.7596V282.176H84.7516V278.084ZM78.9436 281.336H79.9636V283.832H85.9996V284.696H78.9436V281.336ZM91.2667 280.82C90.7387 280.82 90.2667 280.728 89.8507 280.544C89.4347 280.36 89.1107 280.112 88.8787 279.8C88.6467 279.48 88.5307 279.128 88.5307 278.744C88.5307 278.36 88.6467 278.012 88.8787 277.7C89.1107 277.38 89.4347 277.128 89.8507 276.944C90.2667 276.76 90.7387 276.668 91.2667 276.668C91.7947 276.668 92.2667 276.76 92.6827 276.944C93.0987 277.128 93.4227 277.38 93.6547 277.7C93.8867 278.012 94.0027 278.36 94.0027 278.744C94.0027 279.128 93.8867 279.48 93.6547 279.8C93.4227 280.112 93.0987 280.36 92.6827 280.544C92.2667 280.728 91.7947 280.82 91.2667 280.82ZM95.4307 274.184H96.4387V277.316H97.9387V278.204H96.4387V282.296H95.4307V274.184ZM89.7427 281.576H90.7627V283.832H96.7987V284.696H89.7427V281.576ZM91.2667 277.484C90.7307 277.484 90.3067 277.6 89.9947 277.832C89.6907 278.064 89.5387 278.368 89.5387 278.744C89.5387 279.12 89.6907 279.424 89.9947 279.656C90.3067 279.888 90.7307 280.004 91.2667 280.004C91.8027 280.004 92.2227 279.888 92.5267 279.656C92.8387 279.424 92.9947 279.12 92.9947 278.744C92.9947 278.368 92.8387 278.064 92.5267 277.832C92.2227 277.6 91.8027 277.484 91.2667 277.484ZM88.0147 275.312H90.7507V274.088H91.7587V275.312H94.4947V276.152H88.0147V275.312ZM106.929 285.092C106.201 285.092 105.565 284.996 105.021 284.804C104.477 284.612 104.057 284.352 103.761 284.024C103.473 283.696 103.329 283.324 103.329 282.908C103.329 282.492 103.473 282.12 103.761 281.792C104.057 281.464 104.477 281.204 105.021 281.012C105.565 280.82 106.201 280.724 106.929 280.724C107.657 280.724 108.293 280.82 108.837 281.012C109.381 281.204 109.797 281.464 110.085 281.792C110.381 282.12 110.529 282.492 110.529 282.908C110.529 283.324 110.381 283.696 110.085 284.024C109.797 284.352 109.381 284.612 108.837 284.804C108.293 284.996 107.657 285.092 106.929 285.092ZM107.769 279.86C107.185 279.636 106.637 279.316 106.125 278.9C105.621 278.484 105.233 278.032 104.961 277.544C104.729 278.04 104.353 278.528 103.833 279.008C103.321 279.488 102.733 279.884 102.069 280.196L101.433 279.464C102.305 279.072 103.017 278.548 103.569 277.892C104.129 277.228 104.409 276.512 104.409 275.744V275.54H102.105V274.688H107.769V275.54H105.465V275.732C105.465 276.476 105.737 277.148 106.281 277.748C106.825 278.34 107.497 278.788 108.297 279.092L107.769 279.86ZM106.929 281.588C106.113 281.588 105.477 281.708 105.021 281.948C104.565 282.18 104.337 282.5 104.337 282.908C104.337 283.316 104.565 283.64 105.021 283.88C105.477 284.112 106.113 284.228 106.929 284.228C107.745 284.228 108.381 284.112 108.837 283.88C109.293 283.64 109.521 283.316 109.521 282.908C109.521 282.5 109.293 282.18 108.837 281.948C108.381 281.708 107.745 281.588 106.929 281.588ZM109.329 274.184H110.337V276.596H111.837V277.484H110.337V280.544H109.329V274.184ZM118.196 282.848H122.672V283.712H112.688V282.848H117.164V280.34H118.196V282.848ZM117.68 277.472C117.328 278.144 116.8 278.748 116.096 279.284C115.392 279.812 114.612 280.216 113.756 280.496L113.18 279.704C113.892 279.488 114.552 279.172 115.16 278.756C115.768 278.34 116.252 277.864 116.612 277.328C116.98 276.792 117.164 276.24 117.164 275.672V274.784H118.196V275.672C118.196 276.24 118.376 276.792 118.736 277.328C119.104 277.864 119.592 278.34 120.2 278.756C120.808 279.172 121.468 279.488 122.18 279.704L121.604 280.496C120.748 280.216 119.968 279.812 119.264 279.284C118.56 278.748 118.032 278.144 117.68 277.472ZM131.287 274.184H132.295V278.336H133.915V279.248H132.295V284.876H131.287V274.184ZM123.919 282.368C124.775 281.936 125.519 281.384 126.151 280.712C126.783 280.04 127.275 279.308 127.627 278.516C127.987 277.716 128.199 276.908 128.263 276.092H124.471V275.228H129.319C129.303 276.42 129.087 277.528 128.671 278.552C128.255 279.568 127.691 280.46 126.979 281.228C126.275 281.988 125.475 282.604 124.579 283.076L123.919 282.368ZM145.186 274.184H146.194V278.216H147.814V279.128H146.194V284.876H145.186V274.184ZM139.282 276.092V281.516H142.21V276.092H139.282ZM138.274 275.228H143.218V282.38H138.274V275.228ZM148.665 279.104H158.649V279.956H148.665V279.104ZM150.057 281.084H157.257V284.756H150.057V281.084ZM156.249 283.904V281.936H151.065V283.904H156.249ZM149.877 276.2C149.877 275.792 150.029 275.428 150.333 275.108C150.637 274.788 151.073 274.54 151.641 274.364C152.217 274.18 152.889 274.088 153.657 274.088C154.425 274.088 155.093 274.18 155.661 274.364C156.237 274.54 156.677 274.788 156.981 275.108C157.285 275.428 157.437 275.792 157.437 276.2C157.437 276.608 157.285 276.972 156.981 277.292C156.677 277.612 156.237 277.864 155.661 278.048C155.093 278.224 154.425 278.312 153.657 278.312C152.889 278.312 152.217 278.224 151.641 278.048C151.073 277.864 150.637 277.612 150.333 277.292C150.029 276.972 149.877 276.608 149.877 276.2ZM156.429 276.2C156.429 275.8 156.177 275.492 155.673 275.276C155.169 275.052 154.497 274.94 153.657 274.94C152.817 274.94 152.145 275.052 151.641 275.276C151.137 275.492 150.885 275.8 150.885 276.2C150.885 276.6 151.137 276.912 151.641 277.136C152.145 277.352 152.817 277.46 153.657 277.46C154.497 277.46 155.169 277.352 155.673 277.136C156.177 276.912 156.429 276.6 156.429 276.2ZM165.908 284.372V279.152H164.624C164.6 279.912 164.488 280.572 164.288 281.132C164.096 281.684 163.832 282.108 163.496 282.404C163.16 282.7 162.776 282.848 162.344 282.848C161.896 282.848 161.5 282.692 161.156 282.38C160.812 282.06 160.544 281.6 160.352 281C160.16 280.4 160.064 279.696 160.064 278.888C160.064 278.08 160.16 277.376 160.352 276.776C160.544 276.176 160.812 275.72 161.156 275.408C161.5 275.088 161.896 274.928 162.344 274.928C162.968 274.928 163.48 275.224 163.88 275.816C164.288 276.408 164.528 277.224 164.6 278.264H165.908V274.364H166.892V284.372H165.908ZM162.344 275.792C161.912 275.792 161.584 276.068 161.36 276.62C161.136 277.164 161.024 277.92 161.024 278.888C161.024 279.856 161.136 280.616 161.36 281.168C161.584 281.712 161.912 281.984 162.344 281.984C162.776 281.984 163.104 281.712 163.328 281.168C163.552 280.616 163.664 279.856 163.664 278.888C163.664 277.92 163.552 277.164 163.328 276.62C163.104 276.068 162.776 275.792 162.344 275.792ZM168.98 274.184V284.876H167.984V274.184H168.98ZM174.994 282.176H181.186V281.3H174.994V280.472H182.194V282.98H176.002V283.916H182.434V284.756H174.994V282.176ZM173.602 278.672H183.586V279.5H173.602V278.672ZM174.994 274.496H182.194V275.324H176.002V276.932H182.314V277.76H174.994V274.496ZM191.001 282.56C190.369 282.216 189.785 281.756 189.249 281.18C188.713 280.604 188.313 280.012 188.049 279.404C187.793 280.06 187.405 280.688 186.885 281.288C186.365 281.888 185.749 282.408 185.037 282.848L184.353 282.14C185.265 281.604 186.017 280.888 186.609 279.992C187.201 279.096 187.497 278.108 187.497 277.028V276.092H185.169V275.228H190.881V276.092H188.553V277.052C188.553 278.116 188.841 279.064 189.417 279.896C190.001 280.728 190.721 281.368 191.577 281.816L191.001 282.56ZM192.561 274.184H193.569V284.876H192.561V274.184ZM201.66 279.512C201.124 279.512 200.644 279.396 200.22 279.164C199.804 278.932 199.476 278.62 199.236 278.228C199.004 277.836 198.888 277.408 198.888 276.944C198.888 276.48 199.004 276.052 199.236 275.66C199.476 275.268 199.804 274.956 200.22 274.724C200.644 274.492 201.124 274.376 201.66 274.376C202.196 274.376 202.672 274.492 203.088 274.724C203.512 274.956 203.84 275.268 204.072 275.66C204.312 276.052 204.432 276.48 204.432 276.944C204.432 277.408 204.312 277.836 204.072 278.228C203.84 278.62 203.512 278.932 203.088 279.164C202.672 279.396 202.196 279.512 201.66 279.512ZM201.66 275.216C201.124 275.216 200.696 275.384 200.376 275.72C200.056 276.048 199.896 276.456 199.896 276.944C199.896 277.432 200.056 277.844 200.376 278.18C200.696 278.508 201.124 278.672 201.66 278.672C202.196 278.672 202.624 278.508 202.944 278.18C203.264 277.844 203.424 277.432 203.424 276.944C203.424 276.456 203.264 276.048 202.944 275.72C202.624 275.384 202.196 275.216 201.66 275.216ZM205.56 285.092C205.168 285.092 204.816 285.024 204.504 284.888C204.2 284.76 203.96 284.584 203.784 284.36C203.616 284.144 203.532 283.904 203.532 283.64C203.532 283.376 203.616 283.136 203.784 282.92C203.96 282.696 204.2 282.52 204.504 282.392C204.816 282.256 205.168 282.188 205.56 282.188C205.952 282.188 206.3 282.256 206.604 282.392C206.916 282.52 207.156 282.696 207.324 282.92C207.5 283.136 207.588 283.376 207.588 283.64C207.588 283.904 207.5 284.144 207.324 284.36C207.156 284.584 206.916 284.76 206.604 284.888C206.3 285.024 205.952 285.092 205.56 285.092ZM206.22 274.184H207.228V276.308H208.728V277.184H207.228V279.584H206.22V274.184ZM203.256 284.576C202.984 284.632 202.664 284.676 202.296 284.708C201.936 284.74 201.596 284.756 201.276 284.756H200.04V280.34H201.024V283.904H201.276C202.092 283.904 202.752 283.852 203.256 283.748V284.576ZM206.016 281.012H207.828V281.804H203.22V281.012H205.032V280.028H206.016V281.012ZM205.56 282.932C205.208 282.932 204.936 283 204.744 283.136C204.56 283.272 204.468 283.44 204.468 283.64C204.468 283.84 204.56 284.008 204.744 284.144C204.936 284.28 205.208 284.348 205.56 284.348C205.912 284.348 206.18 284.28 206.364 284.144C206.556 284.008 206.652 283.84 206.652 283.64C206.652 283.44 206.556 283.272 206.364 283.136C206.18 283 205.912 282.932 205.56 282.932ZM217.139 274.184H218.147V277.976H219.767V278.888H218.147V284.876H217.139V274.184ZM211.283 276.092V281.504H211.955C213.771 281.504 215.299 281.384 216.539 281.144V281.996C215.939 282.132 215.231 282.232 214.415 282.296C213.607 282.352 212.787 282.38 211.955 282.38H210.275V275.228H215.279V276.092H211.283ZM221.386 274.688H226.354V275.708H228.658V274.184H229.666V281.936H228.658V278.84H226.354V279.92H221.386V274.688ZM222.394 275.552V279.056H225.346V275.552H222.394ZM222.85 281.096H223.87V283.832H229.906V284.696H222.85V281.096ZM228.658 277.988V276.56H226.354V277.988H228.658ZM23.088 292.184H24.096V295.976H25.716V296.888H24.096V302.876H23.088V292.184ZM17.232 294.092V299.504H17.904C19.72 299.504 21.248 299.384 22.488 299.144V299.996C21.888 300.132 21.18 300.232 20.364 300.296C19.556 300.352 18.736 300.38 17.904 300.38H16.224V293.228H21.228V294.092H17.232ZM34.4871 292.184H35.4951V302.876H34.4871V292.184ZM32.8071 300.488C32.1751 300.128 31.5911 299.66 31.0551 299.084C30.5191 298.508 30.1191 297.916 29.8551 297.308C29.6071 297.956 29.2151 298.592 28.6791 299.216C28.1511 299.832 27.5351 300.352 26.8311 300.776L26.1591 300.08C27.0711 299.56 27.8231 298.848 28.4151 297.944C29.0071 297.032 29.3031 296.036 29.3031 294.956V292.988H30.3591V294.98C30.3591 296.052 30.6511 297 31.2351 297.824C31.8191 298.648 32.5351 299.288 33.3831 299.744L32.8071 300.488ZM45.9975 294.14C46.0695 294.516 46.2895 294.88 46.6575 295.232C47.0255 295.576 47.4975 295.88 48.0735 296.144C48.6495 296.408 49.2735 296.6 49.9455 296.72L49.3935 297.512C48.5615 297.352 47.7855 297.068 47.0655 296.66C46.3455 296.252 45.8095 295.784 45.4575 295.256C45.1055 295.784 44.5695 296.252 43.8495 296.66C43.1295 297.068 42.3535 297.352 41.5215 297.512L40.9695 296.72C41.6335 296.6 42.2535 296.408 42.8295 296.144C43.4055 295.88 43.8775 295.576 44.2455 295.232C44.6215 294.88 44.8455 294.516 44.9175 294.14H41.6655V293.288H44.9535V292.052H45.9615V293.288H49.2495V294.14H45.9975ZM44.9535 299.336H40.4655V298.472H50.4495V299.336H45.9615V302.876H44.9535V299.336ZM57.7566 298.556C57.1806 298.332 56.6406 298.012 56.1366 297.596C55.6406 297.172 55.2526 296.712 54.9726 296.216C54.7486 296.736 54.3766 297.236 53.8566 297.716C53.3446 298.188 52.7606 298.572 52.1046 298.868L51.4686 298.136C52.3486 297.744 53.0606 297.22 53.6046 296.564C54.1486 295.908 54.4206 295.224 54.4206 294.512V294.272H52.0806V293.432H54.4446V292.088H55.4526V293.432H57.8166V294.272H55.4766V294.5C55.4766 294.964 55.6006 295.412 55.8486 295.844C56.0966 296.276 56.4326 296.66 56.8566 296.996C57.2886 297.332 57.7646 297.596 58.2846 297.788L57.7566 298.556ZM59.5446 296.084H57.6366V295.22H59.5446V292.184H60.5526V300.176H59.5446V296.084ZM53.7366 299.336H54.7566V301.832H60.7926V302.696H53.7366V299.336ZM70.8836 297.452H69.5516V302.372H68.5676V292.364H69.5516V296.516H70.8836V292.184H71.8796V302.876H70.8836V297.452ZM65.3396 300.788C64.8916 300.788 64.4916 300.676 64.1396 300.452C63.7876 300.22 63.5116 299.904 63.3116 299.504C63.1196 299.104 63.0236 298.656 63.0236 298.16C63.0236 297.664 63.1196 297.216 63.3116 296.816C63.5116 296.416 63.7876 296.104 64.1396 295.88C64.4916 295.648 64.8916 295.532 65.3396 295.532C65.7876 295.532 66.1876 295.648 66.5396 295.88C66.8916 296.104 67.1636 296.416 67.3556 296.816C67.5556 297.216 67.6556 297.664 67.6556 298.16C67.6556 298.656 67.5556 299.104 67.3556 299.504C67.1636 299.904 66.8916 300.22 66.5396 300.452C66.1876 300.676 65.7876 300.788 65.3396 300.788ZM65.3396 296.372C64.8996 296.372 64.5636 296.536 64.3316 296.864C64.0996 297.184 63.9836 297.616 63.9836 298.16C63.9836 298.704 64.0996 299.14 64.3316 299.468C64.5636 299.788 64.8996 299.948 65.3396 299.948C65.7796 299.948 66.1156 299.788 66.3476 299.468C66.5796 299.14 66.6956 298.704 66.6956 298.16C66.6956 297.616 66.5796 297.184 66.3476 296.864C66.1156 296.536 65.7796 296.372 65.3396 296.372ZM62.6996 294.068H64.8356V292.652H65.8196V294.068H67.9556V294.932H62.6996V294.068ZM78.3861 299.984H84.0981V298.94H78.3861V298.1H85.1061V300.8H79.3941V301.904H85.3461V302.756H78.3861V299.984ZM85.1301 292.184V294.26H86.6301V295.124H85.1301V297.572H84.1221V292.184H85.1301ZM82.2021 292.688V293.528H78.1461V296.132H79.0821C80.8981 296.132 82.3781 296.036 83.5221 295.844V296.672C82.4741 296.88 80.9941 296.984 79.0821 296.984H77.1381V292.688H82.2021ZM95.0411 292.184H96.0491V296.276H97.6691V297.188H96.0491V302.876H95.0411V292.184ZM94.4411 300.116C93.8411 300.252 93.1331 300.352 92.3171 300.416C91.5091 300.472 90.6891 300.5 89.8571 300.5H88.1291V296.276H91.9451V293.96H88.1291V293.108H92.9531V297.116H89.1371V299.636H89.8571C91.6731 299.636 93.2011 299.516 94.4411 299.276V300.116ZM103.356 300.848H108.504V301.712H98.5202V300.848H102.324V296.876H103.356V300.848ZM105.564 299.312C105.772 298.52 105.928 297.648 106.032 296.696C106.144 295.736 106.208 294.816 106.224 293.936H99.7202V293.072H107.256C107.256 294.16 107.196 295.26 107.076 296.372C106.956 297.484 106.78 298.464 106.548 299.312H105.564ZM120.759 297.452H119.427V302.372H118.443V292.364H119.427V296.516H120.759V292.184H121.755V302.876H120.759V297.452ZM115.215 300.788C114.767 300.788 114.367 300.676 114.015 300.452C113.663 300.22 113.387 299.904 113.187 299.504C112.995 299.104 112.899 298.656 112.899 298.16C112.899 297.664 112.995 297.216 113.187 296.816C113.387 296.416 113.663 296.104 114.015 295.88C114.367 295.648 114.767 295.532 115.215 295.532C115.663 295.532 116.063 295.648 116.415 295.88C116.767 296.104 117.039 296.416 117.231 296.816C117.431 297.216 117.531 297.664 117.531 298.16C117.531 298.656 117.431 299.104 117.231 299.504C117.039 299.904 116.767 300.22 116.415 300.452C116.063 300.676 115.663 300.788 115.215 300.788ZM115.215 296.372C114.775 296.372 114.439 296.536 114.207 296.864C113.975 297.184 113.859 297.616 113.859 298.16C113.859 298.704 113.975 299.14 114.207 299.468C114.439 299.788 114.775 299.948 115.215 299.948C115.655 299.948 115.991 299.788 116.223 299.468C116.455 299.14 116.571 298.704 116.571 298.16C116.571 297.616 116.455 297.184 116.223 296.864C115.991 296.536 115.655 296.372 115.215 296.372ZM112.575 294.068H114.711V292.652H115.695V294.068H117.831V294.932H112.575V294.068ZM134.885 298.568H131.825V300.848H136.301V301.712H126.317V300.848H130.793V298.568H127.733V292.904H128.741V294.788H133.877V292.904H134.885V298.568ZM133.877 295.64H128.741V297.704H133.877V295.64ZM142.384 300.476C141.864 300.076 141.408 299.612 141.016 299.084C140.632 298.556 140.332 297.996 140.116 297.404C139.932 298.012 139.628 298.62 139.204 299.228C138.78 299.836 138.272 300.364 137.68 300.812L136.972 300.152C137.46 299.816 137.9 299.38 138.292 298.844C138.692 298.3 139.004 297.696 139.228 297.032C139.46 296.368 139.576 295.692 139.576 295.004V293.036H140.608V295.004C140.608 295.996 140.836 296.92 141.292 297.776C141.748 298.624 142.308 299.288 142.972 299.768L142.384 300.476ZM143.68 302.372V296.576H141.928V295.688H143.68V292.364H144.664V302.372H143.68ZM146.692 292.184V302.876H145.696V292.184H146.692ZM153.399 298.4C152.679 298.4 152.031 298.272 151.455 298.016C150.879 297.76 150.427 297.412 150.099 296.972C149.779 296.532 149.619 296.044 149.619 295.508C149.619 294.972 149.779 294.484 150.099 294.044C150.427 293.604 150.879 293.256 151.455 293C152.031 292.744 152.679 292.616 153.399 292.616C154.119 292.616 154.767 292.744 155.343 293C155.919 293.256 156.367 293.604 156.687 294.044C157.015 294.484 157.179 294.972 157.179 295.508C157.179 296.044 157.015 296.532 156.687 296.972C156.367 297.412 155.919 297.76 155.343 298.016C154.767 298.272 154.119 298.4 153.399 298.4ZM153.399 293.48C152.863 293.48 152.383 293.568 151.959 293.744C151.543 293.92 151.215 294.164 150.975 294.476C150.743 294.78 150.627 295.124 150.627 295.508C150.627 295.892 150.743 296.24 150.975 296.552C151.215 296.856 151.543 297.096 151.959 297.272C152.383 297.448 152.863 297.536 153.399 297.536C153.935 297.536 154.411 297.448 154.827 297.272C155.251 297.096 155.579 296.856 155.811 296.552C156.051 296.24 156.171 295.892 156.171 295.508C156.171 295.124 156.051 294.78 155.811 294.476C155.579 294.164 155.251 293.92 154.827 293.744C154.411 293.568 153.935 293.48 153.399 293.48ZM150.747 298.748H151.731V300.848H155.043V298.748H156.027V300.848H158.379V301.712H148.395V300.848H150.747V298.748ZM160.67 302.012C160.438 302.012 160.242 301.932 160.082 301.772C159.922 301.612 159.842 301.416 159.842 301.184C159.842 300.952 159.922 300.756 160.082 300.596C160.242 300.436 160.438 300.356 160.67 300.356C160.902 300.356 161.098 300.436 161.258 300.596C161.426 300.756 161.51 300.952 161.51 301.184C161.51 301.416 161.426 301.612 161.258 301.772C161.098 301.932 160.902 302.012 160.67 302.012ZM19.488 311.78C19.488 312.524 19.76 313.196 20.304 313.796C20.856 314.388 21.536 314.836 22.344 315.14L21.816 315.908C21.232 315.684 20.68 315.364 20.16 314.948C19.648 314.532 19.256 314.08 18.984 313.592C18.752 314.088 18.372 314.576 17.844 315.056C17.324 315.528 16.732 315.924 16.068 316.244L15.432 315.512C16.304 315.12 17.02 314.596 17.58 313.94C18.148 313.276 18.432 312.56 18.432 311.792V311.54H16.104V310.688H21.816V311.54H19.488V311.78ZM23.544 317.9H17.472V317.036H24.552V320.936H23.544V317.9ZM23.568 310.184H24.576V316.508H23.568V310.184ZM28.7511 316.46H29.7591V317.744H34.5831V316.46H35.5911V320.744H28.7511V316.46ZM32.8191 315.572C32.2591 315.396 31.7191 315.116 31.1991 314.732C30.6871 314.34 30.2871 313.912 29.9991 313.448C29.7831 313.912 29.4071 314.372 28.8711 314.828C28.3351 315.284 27.7431 315.644 27.0951 315.908L26.4711 315.164C27.3431 314.836 28.0551 314.368 28.6071 313.76C29.1671 313.144 29.4471 312.488 29.4471 311.792V311.528H27.1431V310.688H32.8071V311.528H30.5031V311.78C30.5031 312.236 30.6311 312.664 30.8871 313.064C31.1431 313.464 31.4831 313.816 31.9071 314.12C32.3391 314.416 32.8151 314.64 33.3351 314.792L32.8191 315.572ZM34.6071 315.932V313.316H32.6271V312.476H34.6071V310.184H35.6151V315.932H34.6071ZM29.7591 318.572V319.892H34.5831V318.572H29.7591ZM45.7455 321.092C45.0175 321.092 44.3815 320.996 43.8375 320.804C43.2935 320.612 42.8735 320.352 42.5775 320.024C42.2895 319.696 42.1455 319.324 42.1455 318.908C42.1455 318.492 42.2895 318.12 42.5775 317.792C42.8735 317.464 43.2935 317.204 43.8375 317.012C44.3815 316.82 45.0175 316.724 45.7455 316.724C46.4735 316.724 47.1095 316.82 47.6535 317.012C48.1975 317.204 48.6135 317.464 48.9015 317.792C49.1975 318.12 49.3455 318.492 49.3455 318.908C49.3455 319.324 49.1975 319.696 48.9015 320.024C48.6135 320.352 48.1975 320.612 47.6535 320.804C47.1095 320.996 46.4735 321.092 45.7455 321.092ZM46.5855 315.86C46.0015 315.636 45.4535 315.316 44.9415 314.9C44.4375 314.484 44.0495 314.032 43.7775 313.544C43.5455 314.04 43.1695 314.528 42.6495 315.008C42.1375 315.488 41.5495 315.884 40.8855 316.196L40.2495 315.464C41.1215 315.072 41.8335 314.548 42.3855 313.892C42.9455 313.228 43.2255 312.512 43.2255 311.744V311.54H40.9215V310.688H46.5855V311.54H44.2815V311.732C44.2815 312.476 44.5535 313.148 45.0975 313.748C45.6415 314.34 46.3135 314.788 47.1135 315.092L46.5855 315.86ZM45.7455 317.588C44.9295 317.588 44.2935 317.708 43.8375 317.948C43.3815 318.18 43.1535 318.5 43.1535 318.908C43.1535 319.316 43.3815 319.64 43.8375 319.88C44.2935 320.112 44.9295 320.228 45.7455 320.228C46.5615 320.228 47.1975 320.112 47.6535 319.88C48.1095 319.64 48.3375 319.316 48.3375 318.908C48.3375 318.5 48.1095 318.18 47.6535 317.948C47.1975 317.708 46.5615 317.588 45.7455 317.588ZM48.1455 310.184H49.1535V312.596H50.6535V313.484H49.1535V316.544H48.1455V310.184ZM57.0126 318.848H61.4886V319.712H51.5046V318.848H55.9806V316.34H57.0126V318.848ZM56.4966 313.472C56.1446 314.144 55.6166 314.748 54.9126 315.284C54.2086 315.812 53.4286 316.216 52.5726 316.496L51.9966 315.704C52.7086 315.488 53.3686 315.172 53.9766 314.756C54.5846 314.34 55.0686 313.864 55.4286 313.328C55.7966 312.792 55.9806 312.24 55.9806 311.672V310.784H57.0126V311.672C57.0126 312.24 57.1926 312.792 57.5526 313.328C57.9206 313.864 58.4086 314.34 59.0166 314.756C59.6246 315.172 60.2846 315.488 60.9966 315.704L60.4206 316.496C59.5646 316.216 58.7846 315.812 58.0806 315.284C57.3766 314.748 56.8486 314.144 56.4966 313.472ZM63.9356 318.332H70.1276V317.6H63.9356V316.784H71.1356V319.124H64.9436V319.928H71.3756V320.756H63.9356V318.332ZM63.9356 311.984H70.0676V311.24H63.9356V310.424H71.0756V312.776H64.9436V313.532H71.3156V314.36H63.9356V311.984ZM62.5436 315.14H72.5276V315.956H62.5436V315.14ZM81.9741 312.14C82.0461 312.516 82.2661 312.88 82.6341 313.232C83.0021 313.576 83.4741 313.88 84.0501 314.144C84.6261 314.408 85.2501 314.6 85.9221 314.72L85.3701 315.512C84.5381 315.352 83.7621 315.068 83.0421 314.66C82.3221 314.252 81.7861 313.784 81.4341 313.256C81.0821 313.784 80.5461 314.252 79.8261 314.66C79.1061 315.068 78.3301 315.352 77.4981 315.512L76.9461 314.72C77.6101 314.6 78.2301 314.408 78.8061 314.144C79.3821 313.88 79.8541 313.576 80.2221 313.232C80.5981 312.88 80.8221 312.516 80.8941 312.14H77.6421V311.288H80.9301V310.052H81.9381V311.288H85.2261V312.14H81.9741ZM80.9301 317.336H76.4421V316.472H86.4261V317.336H81.9381V320.876H80.9301V317.336ZM95.0411 310.184H96.0491V314.336H97.6691V315.248H96.0491V320.876H95.0411V310.184ZM87.6731 318.368C88.5291 317.936 89.2731 317.384 89.9051 316.712C90.5371 316.04 91.0291 315.308 91.3811 314.516C91.7411 313.716 91.9531 312.908 92.0171 312.092H88.2251V311.228H93.0731C93.0571 312.42 92.8411 313.528 92.4251 314.552C92.0091 315.568 91.4451 316.46 90.7331 317.228C90.0291 317.988 89.2291 318.604 88.3331 319.076L87.6731 318.368ZM101.916 319.088C101.364 319.088 100.872 318.964 100.44 318.716C100.016 318.468 99.6882 318.136 99.4562 317.72C99.2242 317.304 99.1082 316.852 99.1082 316.364C99.1082 315.876 99.2242 315.424 99.4562 315.008C99.6882 314.592 100.016 314.26 100.44 314.012C100.872 313.764 101.364 313.64 101.916 313.64C102.468 313.64 102.956 313.764 103.38 314.012C103.812 314.26 104.144 314.592 104.376 315.008C104.608 315.424 104.724 315.876 104.724 316.364C104.724 316.852 104.608 317.304 104.376 317.72C104.144 318.136 103.812 318.468 103.38 318.716C102.956 318.964 102.468 319.088 101.916 319.088ZM106.08 310.184H107.088V314.636H108.708V315.548H107.088V320.876H106.08V310.184ZM101.916 314.48C101.364 314.48 100.924 314.66 100.596 315.02C100.276 315.372 100.116 315.82 100.116 316.364C100.116 316.908 100.276 317.36 100.596 317.72C100.924 318.072 101.364 318.248 101.916 318.248C102.468 318.248 102.904 318.072 103.224 317.72C103.552 317.36 103.716 316.908 103.716 316.364C103.716 315.82 103.552 315.372 103.224 315.02C102.904 314.66 102.468 314.48 101.916 314.48ZM98.6522 312.08H101.412V310.556H102.42V312.08H105.18V312.944H98.6522V312.08ZM117.479 315.416H115.223V314.528H117.479V310.184H118.487V320.876H117.479V315.416ZM109.871 318.368C110.727 317.936 111.471 317.384 112.103 316.712C112.735 316.04 113.227 315.308 113.579 314.516C113.939 313.716 114.151 312.908 114.215 312.092H110.423V311.228H115.271C115.255 312.42 115.039 313.528 114.623 314.552C114.207 315.568 113.643 316.46 112.931 317.228C112.227 317.988 111.427 318.604 110.531 319.076L109.871 318.368ZM128.158 310.184H129.166V313.976H130.786V314.888H129.166V320.876H128.158V310.184ZM127.558 317.936C126.958 318.072 126.25 318.172 125.434 318.236C124.626 318.292 123.806 318.32 122.974 318.32H121.342V311.048H122.35V317.444H122.974C124.79 317.444 126.318 317.324 127.558 317.084V317.936ZM25.512 337.592H15.528V336.728H25.512V337.592ZM16.944 329.024H24.216V329.888H17.952V333.344H24.336V334.208H16.944V329.024ZM34.7871 333.212H33.3951V338.372H32.4111V328.364H33.3951V332.276H34.7871V328.184H35.7831V338.876H34.7871V333.212ZM31.8711 336.308C31.0471 336.444 29.9991 336.512 28.7271 336.512H27.2871V332.324H30.1791V330.008H27.2871V329.156H31.1511V333.164H28.2471V335.648H28.7271C30.0791 335.648 31.1271 335.584 31.8711 335.456V336.308ZM44.3861 336.668C44.6181 335.74 44.8181 334.64 44.9861 333.368C45.1621 332.088 45.2701 330.944 45.3101 329.936H38.8061V329.072H46.3421C46.3021 330.336 46.1941 331.66 46.0181 333.044C45.8501 334.428 45.6421 335.636 45.3941 336.668H47.5901V337.532H37.6061V336.668H44.3861ZM56.9852 333.452H55.6532V338.372H54.6692V328.364H55.6532V332.516H56.9852V328.184H57.9812V338.876H56.9852V333.452ZM51.4412 336.788C50.9932 336.788 50.5932 336.676 50.2412 336.452C49.8892 336.22 49.6132 335.904 49.4132 335.504C49.2212 335.104 49.1252 334.656 49.1252 334.16C49.1252 333.664 49.2212 333.216 49.4132 332.816C49.6132 332.416 49.8892 332.104 50.2412 331.88C50.5932 331.648 50.9932 331.532 51.4412 331.532C51.8892 331.532 52.2892 331.648 52.6412 331.88C52.9932 332.104 53.2652 332.416 53.4572 332.816C53.6572 333.216 53.7572 333.664 53.7572 334.16C53.7572 334.656 53.6572 335.104 53.4572 335.504C53.2652 335.904 52.9932 336.22 52.6412 336.452C52.2892 336.676 51.8892 336.788 51.4412 336.788ZM51.4412 332.372C51.0012 332.372 50.6652 332.536 50.4332 332.864C50.2012 333.184 50.0852 333.616 50.0852 334.16C50.0852 334.704 50.2012 335.14 50.4332 335.468C50.6652 335.788 51.0012 335.948 51.4412 335.948C51.8812 335.948 52.2172 335.788 52.4492 335.468C52.6812 335.14 52.7972 334.704 52.7972 334.16C52.7972 333.616 52.6812 333.184 52.4492 332.864C52.2172 332.536 51.8812 332.372 51.4412 332.372ZM48.8012 330.068H50.9372V328.652H51.9212V330.068H54.0572V330.932H48.8012V330.068ZM65.8763 336.488C65.2443 336.128 64.6643 335.66 64.1363 335.084C63.6083 334.508 63.2123 333.916 62.9483 333.308C62.7003 333.964 62.3123 334.6 61.7843 335.216C61.2643 335.832 60.6523 336.352 59.9482 336.776L59.2763 336.08C60.1883 335.56 60.9363 334.848 61.5203 333.944C62.1043 333.04 62.3963 332.044 62.3963 330.956V328.988H63.4523V330.98C63.4523 332.06 63.7403 333.012 64.3163 333.836C64.8923 334.652 65.6043 335.288 66.4523 335.744L65.8763 336.488ZM67.6043 332.384H65.3242V331.496H67.6043V328.184H68.6123V338.876H67.6043V332.384ZM79.2587 336.632H78.2507V334.436H73.5827V333.584H83.5667V334.436H79.2587V336.632ZM74.9747 335.444H75.9947V337.832H82.5347V338.696H74.9747V335.444ZM79.0907 328.256V328.832C79.0907 329.248 79.2667 329.66 79.6187 330.068C79.9787 330.476 80.4507 330.836 81.0347 331.148C81.6267 331.46 82.2627 331.688 82.9427 331.832L82.4267 332.612C81.6107 332.428 80.8547 332.128 80.1587 331.712C79.4627 331.288 78.9347 330.792 78.5747 330.224C78.2147 330.792 77.6867 331.288 76.9907 331.712C76.2947 332.128 75.5387 332.428 74.7227 332.612L74.2067 331.832C74.8867 331.688 75.5187 331.46 76.1027 331.148C76.6947 330.836 77.1667 330.476 77.5187 330.068C77.8787 329.66 78.0587 329.248 78.0587 328.832V328.256H79.0907ZM90.8138 336.488C90.1818 336.128 89.6018 335.66 89.0738 335.084C88.5458 334.508 88.1498 333.916 87.8858 333.308C87.6378 333.964 87.2498 334.6 86.7218 335.216C86.2018 335.832 85.5898 336.352 84.8857 336.776L84.2138 336.08C85.1258 335.56 85.8738 334.848 86.4578 333.944C87.0418 333.04 87.3338 332.044 87.3338 330.956V328.988H88.3898V330.98C88.3898 332.06 88.6778 333.012 89.2538 333.836C89.8298 334.652 90.5418 335.288 91.3898 335.744L90.8138 336.488ZM92.5418 332.384H90.2617V331.496H92.5418V328.184H93.5498V338.876H92.5418V332.384ZM97.0528 336.332H103.245V335.6H97.0528V334.784H104.253V337.124H98.0608V337.928H104.493V338.756H97.0528V336.332ZM97.0528 329.984H103.185V329.24H97.0528V328.424H104.193V330.776H98.0608V331.532H104.433V332.36H97.0528V329.984ZM95.6608 333.14H105.645V333.956H95.6608V333.14ZM110.207 329.108H111.215V331.88H114.143V329.108H115.151V336.452H110.207V329.108ZM111.215 332.732V335.588H114.143V332.732H111.215ZM117.119 328.184H118.127V332.336H119.747V333.248H118.127V338.876H117.119V328.184ZM126.106 334.088H129.19V336.788H122.998V337.916H129.43V338.756H121.99V335.984H128.182V334.916H121.99V334.088H125.074V332.672H120.598V331.844H123.67C123.894 330.948 124.03 330.108 124.078 329.324H121.654V328.496H125.11C125.07 329.592 124.918 330.708 124.654 331.844H127.99C128.166 331.124 128.286 330.284 128.35 329.324H125.494V328.496H129.382C129.334 329.76 129.198 330.876 128.974 331.844H130.582V332.672H126.106V334.088ZM138.985 335.168H134.497V334.304H144.481V335.168H139.993V338.876H138.985V335.168ZM140.005 328.4V328.976C140.005 329.464 140.185 329.94 140.545 330.404C140.905 330.868 141.389 331.276 141.997 331.628C142.613 331.972 143.285 332.224 144.013 332.384L143.461 333.2C142.621 333 141.833 332.664 141.097 332.192C140.361 331.712 139.825 331.168 139.489 330.56C139.153 331.168 138.617 331.712 137.881 332.192C137.145 332.664 136.357 333 135.517 333.2L134.965 332.384C135.693 332.224 136.361 331.972 136.969 331.628C137.585 331.276 138.073 330.868 138.433 330.404C138.793 329.94 138.973 329.464 138.973 328.976V328.4H140.005ZM146.952 329.024H154.164V329.888H147.96V333.344H154.344V334.208H151.164V336.848H155.52V337.712H145.536V336.848H150.132V334.208H146.952V329.024ZM167.474 328.184H168.482V334.268H167.474V328.184ZM164.882 338.9C164.482 338.66 164.11 338.348 163.766 337.964C163.422 337.58 163.158 337.176 162.974 336.752C162.822 337.152 162.562 337.548 162.194 337.94C161.826 338.324 161.406 338.644 160.934 338.9L160.358 338.228C160.958 337.94 161.462 337.524 161.87 336.98C162.278 336.436 162.482 335.888 162.482 335.336V334.796H163.466V335.336C163.466 335.632 163.534 335.948 163.67 336.284C163.814 336.62 163.994 336.932 164.21 337.22C164.434 337.5 164.658 337.716 164.882 337.868C165.106 337.716 165.326 337.5 165.542 337.22C165.766 336.932 165.946 336.62 166.082 336.284C166.226 335.948 166.298 335.632 166.298 335.336V334.796H167.282V335.336C167.282 335.888 167.486 336.436 167.894 336.98C168.302 337.524 168.806 337.94 169.406 338.228L168.83 338.9C168.358 338.644 167.938 338.324 167.57 337.94C167.202 337.548 166.942 337.152 166.79 336.752C166.606 337.176 166.342 337.58 165.998 337.964C165.654 338.348 165.282 338.66 164.882 338.9ZM162.698 333.848C162.146 333.848 161.654 333.728 161.222 333.488C160.79 333.24 160.454 332.908 160.214 332.492C159.974 332.076 159.854 331.624 159.854 331.136C159.854 330.648 159.974 330.196 160.214 329.78C160.454 329.364 160.79 329.036 161.222 328.796C161.654 328.548 162.146 328.424 162.698 328.424C163.25 328.424 163.742 328.548 164.174 328.796C164.606 329.036 164.942 329.364 165.182 329.78C165.422 330.196 165.542 330.648 165.542 331.136C165.542 331.624 165.422 332.076 165.182 332.492C164.942 332.908 164.606 333.24 164.174 333.488C163.742 333.728 163.25 333.848 162.698 333.848ZM162.698 329.288C162.138 329.288 161.69 329.468 161.354 329.828C161.026 330.18 160.862 330.616 160.862 331.136C160.862 331.472 160.934 331.78 161.078 332.06C161.23 332.34 161.442 332.564 161.714 332.732C161.994 332.9 162.322 332.984 162.698 332.984C163.074 332.984 163.398 332.9 163.67 332.732C163.95 332.564 164.162 332.34 164.306 332.06C164.458 331.78 164.534 331.472 164.534 331.136C164.534 330.616 164.366 330.18 164.03 329.828C163.702 329.468 163.258 329.288 162.698 329.288ZM178.393 333.116H176.257C176.233 333.916 176.101 334.596 175.861 335.156C175.629 335.716 175.317 336.14 174.925 336.428C174.533 336.716 174.093 336.86 173.605 336.86C173.101 336.86 172.649 336.708 172.249 336.404C171.849 336.1 171.533 335.648 171.301 335.048C171.069 334.44 170.953 333.712 170.953 332.864C170.953 332.016 171.069 331.292 171.301 330.692C171.533 330.084 171.849 329.628 172.249 329.324C172.649 329.02 173.101 328.868 173.605 328.868C174.061 328.868 174.477 328.996 174.853 329.252C175.229 329.508 175.537 329.888 175.777 330.392C176.025 330.896 176.177 331.508 176.233 332.228H178.393V328.184H179.401V338.876H178.393V333.116ZM173.605 329.732C173.109 329.732 172.705 330 172.393 330.536C172.089 331.072 171.937 331.848 171.937 332.864C171.937 333.88 172.089 334.656 172.393 335.192C172.705 335.728 173.109 335.996 173.605 335.996C174.101 335.996 174.501 335.728 174.805 335.192C175.117 334.656 175.273 333.88 175.273 332.864C175.273 331.848 175.117 331.072 174.805 330.536C174.501 330 174.101 329.732 173.605 329.732ZM186.516 334.4C185.796 334.4 185.148 334.272 184.572 334.016C183.996 333.76 183.544 333.412 183.216 332.972C182.896 332.532 182.736 332.044 182.736 331.508C182.736 330.972 182.896 330.484 183.216 330.044C183.544 329.604 183.996 329.256 184.572 329C185.148 328.744 185.796 328.616 186.516 328.616C187.236 328.616 187.884 328.744 188.46 329C189.036 329.256 189.484 329.604 189.804 330.044C190.132 330.484 190.296 330.972 190.296 331.508C190.296 332.044 190.132 332.532 189.804 332.972C189.484 333.412 189.036 333.76 188.46 334.016C187.884 334.272 187.236 334.4 186.516 334.4ZM186.516 329.48C185.98 329.48 185.5 329.568 185.076 329.744C184.66 329.92 184.332 330.164 184.092 330.476C183.86 330.78 183.744 331.124 183.744 331.508C183.744 331.892 183.86 332.24 184.092 332.552C184.332 332.856 184.66 333.096 185.076 333.272C185.5 333.448 185.98 333.536 186.516 333.536C187.052 333.536 187.528 333.448 187.944 333.272C188.368 333.096 188.696 332.856 188.928 332.552C189.168 332.24 189.288 331.892 189.288 331.508C189.288 331.124 189.168 330.78 188.928 330.476C188.696 330.164 188.368 329.92 187.944 329.744C187.528 329.568 187.052 329.48 186.516 329.48ZM183.864 334.748H184.848V336.848H188.16V334.748H189.144V336.848H191.496V337.712H181.512V336.848H183.864V334.748ZM193.787 338.012C193.555 338.012 193.359 337.932 193.199 337.772C193.039 337.612 192.959 337.416 192.959 337.184C192.959 336.952 193.039 336.756 193.199 336.596C193.359 336.436 193.555 336.356 193.787 336.356C194.019 336.356 194.215 336.436 194.375 336.596C194.543 336.756 194.627 336.952 194.627 337.184C194.627 337.416 194.543 337.612 194.375 337.772C194.215 337.932 194.019 338.012 193.787 338.012Z" fill="#4C4892"/>
<defs>
<filter id="filter0_d_641_356" x="0.334043" y="48.3596" width="256.383" height="181.519" filterUnits="userSpaceOnUse" color-interpolation-filters="sRGB">
<feFlood flood-opacity="0" result="BackgroundImageFix"/>
<feColorMatrix in="SourceAlpha" type="matrix" values="0 0 0 0 0 0 0 0 0 0 0 0 0 0 0 0 0 0 127 0" result="hardAlpha"/>
<feOffset dx="1.02553" dy="2.05106"/>
<feGaussianBlur stdDeviation="3.84574"/>
<feComposite in2="hardAlpha" operator="out"/>
<feColorMatrix type="matrix" values="0 0 0 0 0 0 0 0 0 0 0 0 0 0 0 0 0 0 0.1 0"/>
<feBlend mode="normal" in2="BackgroundImageFix" result="effect1_dropShadow_641_356"/>
<feBlend mode="normal" in="SourceGraphic" in2="effect1_dropShadow_641_356" result="shape"/>
</filter>
<clipPath id="clip0_641_356">
<rect width="225.538" height="15.8957" fill="white" transform="translate(14.7705 110.917)"/>
</clipPath>
<clipPath id="clip1_641_356">
<rect width="225.538" height="15.8957" fill="white" transform="translate(14.7705 158.092)"/>
</clipPath>
</defs>
</svg>
