<svg width="100" height="100" viewBox="0 0 100 100" fill="none" xmlns="http://www.w3.org/2000/svg">
<path d="M64 86C64 93.732 57.732 100 50 100C42.268 100 36 93.732 36 86C36 78.268 42.268 72 50 72C57.732 72 64 78.268 64 86Z" fill="#BE66D0"/>
<path d="M64 14C64 21.732 57.732 28 50 28C42.268 28 36 21.732 36 14C36 6.26801 42.268 0 50 0C57.732 0 64 6.26801 64 14Z" fill="#BE66D0"/>
<path d="M100 50C100 57.732 93.732 64 86 64C78.268 64 72 57.732 72 50C72 42.268 78.268 36 86 36C93.732 36 100 42.268 100 50Z" fill="#BE66D0"/>
<path d="M28 50C28 57.732 21.732 64 14 64C6.26801 64 0 57.732 0 50C0 42.268 6.26801 36 14 36C21.732 36 28 42.268 28 50Z" fill="#BE66D0"/>
<path fill-rule="evenodd" clip-rule="evenodd" d="M8 50.4264L50.4264 8L92.8528 50.4264L50.4264 92.8528L8 50.4264ZM50.4264 85.7817L85.7817 50.4264L50.4264 15.0711L15.0711 50.4264L50.4264 85.7817Z" fill="#BE66D0"/>
</svg>
