<svg width="730" height="730" viewBox="0 0 730 730" fill="none" xmlns="http://www.w3.org/2000/svg">
<g filter="url(#filter0_f_547_373)">
<circle cx="365" cy="365" r="165" fill="#F6E6FF"/>
</g>
<g filter="url(#filter1_d_547_373)">
<rect x="202" y="430" width="359" height="80" rx="25" fill="white"/>
<rect x="202.5" y="430.5" width="358" height="79" rx="24.5" stroke="#D9D9D9"/>
<path d="M248.916 462.114H250.41V478.386H248.916V462.114ZM250.014 468.72H253.002V469.962H250.014V468.72ZM244.758 463.86H246.216C246.216 465.408 245.964 466.89 245.46 468.306C244.956 469.71 244.164 471.012 243.084 472.212C242.004 473.4 240.582 474.432 238.818 475.308L237.99 474.156C239.502 473.4 240.756 472.518 241.752 471.51C242.76 470.49 243.51 469.362 244.002 468.126C244.506 466.878 244.758 465.534 244.758 464.094V463.86ZM238.746 463.86H245.514V465.102H238.746V463.86ZM260.849 463.41H262.163V463.914C262.163 464.43 262.049 464.922 261.821 465.39C261.605 465.846 261.299 466.266 260.903 466.65C260.507 467.022 260.039 467.352 259.499 467.64C258.971 467.916 258.395 468.15 257.771 468.342C257.147 468.534 256.499 468.672 255.827 468.756L255.269 467.568C255.857 467.508 256.421 467.4 256.961 467.244C257.513 467.088 258.023 466.902 258.491 466.686C258.971 466.458 259.385 466.2 259.733 465.912C260.081 465.624 260.351 465.312 260.543 464.976C260.747 464.64 260.849 464.286 260.849 463.914V463.41ZM261.461 463.41H262.775V463.914C262.775 464.274 262.871 464.628 263.063 464.976C263.267 465.312 263.543 465.624 263.891 465.912C264.251 466.188 264.665 466.44 265.133 466.668C265.601 466.896 266.105 467.088 266.645 467.244C267.197 467.4 267.767 467.508 268.355 467.568L267.797 468.756C267.125 468.672 266.477 468.534 265.853 468.342C265.229 468.15 264.647 467.91 264.107 467.622C263.579 467.334 263.117 467.004 262.721 466.632C262.325 466.248 262.013 465.828 261.785 465.372C261.569 464.916 261.461 464.43 261.461 463.914V463.41ZM255.809 462.78H267.833V463.986H255.809V462.78ZM254.459 470.286H269.201V471.51H254.459V470.286ZM261.065 467.838H262.541V470.88H261.065V467.838ZM256.097 473.112H267.347V478.404H265.853V474.318H256.097V473.112ZM271.755 463.896H279.099V465.12H271.755V463.896ZM274.293 468.558H275.769V474.066H274.293V468.558ZM278.487 463.896H279.963V464.778C279.963 465.438 279.939 466.302 279.891 467.37C279.855 468.438 279.723 469.728 279.495 471.24L278.019 471.114C278.259 469.638 278.397 468.378 278.433 467.334C278.469 466.29 278.487 465.438 278.487 464.778V463.896ZM281.997 462.114H283.491V478.404H281.997V462.114ZM283.077 468.918H286.083V470.196H283.077V468.918ZM271.035 474.84L270.855 473.598C271.827 473.586 272.889 473.574 274.041 473.562C275.205 473.538 276.381 473.49 277.569 473.418C278.769 473.346 279.915 473.244 281.007 473.112L281.097 474.228C279.969 474.408 278.811 474.54 277.623 474.624C276.447 474.708 275.295 474.768 274.167 474.804C273.039 474.828 271.995 474.84 271.035 474.84ZM294.211 469.728H305.389V470.934H294.211V469.728ZM292.339 475.11H307.099V476.352H292.339V475.11ZM298.945 470.25H300.421V475.596H298.945V470.25ZM294.211 463.41H305.227V464.652H295.705V470.268H294.211V463.41ZM320.742 462.132H322.236V471.366H320.742V462.132ZM311.724 472.302H322.236V478.188H311.724V472.302ZM320.778 473.508H313.182V476.964H320.778V473.508ZM313.128 462.762H314.37V464.346C314.37 465.354 314.178 466.302 313.794 467.19C313.41 468.066 312.87 468.828 312.174 469.476C311.49 470.124 310.686 470.622 309.762 470.97L309.024 469.782C309.636 469.566 310.194 469.272 310.698 468.9C311.202 468.528 311.634 468.102 311.994 467.622C312.366 467.142 312.648 466.626 312.84 466.074C313.032 465.51 313.128 464.934 313.128 464.346V462.762ZM313.398 462.762H314.64V464.346C314.64 464.922 314.736 465.474 314.928 466.002C315.132 466.53 315.414 467.022 315.774 467.478C316.146 467.922 316.578 468.318 317.07 468.666C317.574 469.014 318.126 469.29 318.726 469.494L317.988 470.646C317.316 470.418 316.698 470.1 316.134 469.692C315.57 469.284 315.084 468.804 314.676 468.252C314.268 467.7 313.95 467.094 313.722 466.434C313.506 465.774 313.398 465.078 313.398 464.346V462.762ZM330.22 470.286H344.962V471.51H330.22V470.286ZM336.826 467.802H338.302V470.844H336.826V467.802ZM336.808 462.366H338.086V463.104C338.086 463.68 337.972 464.226 337.744 464.742C337.516 465.258 337.192 465.732 336.772 466.164C336.364 466.596 335.89 466.98 335.35 467.316C334.81 467.64 334.228 467.922 333.604 468.162C332.98 468.39 332.332 468.558 331.66 468.666L331.102 467.478C331.678 467.394 332.242 467.262 332.794 467.082C333.358 466.89 333.88 466.662 334.36 466.398C334.84 466.122 335.26 465.81 335.62 465.462C335.992 465.114 336.28 464.742 336.484 464.346C336.7 463.95 336.808 463.536 336.808 463.104V462.366ZM337.042 462.366H338.32V463.104C338.32 463.536 338.422 463.95 338.626 464.346C338.83 464.742 339.118 465.114 339.49 465.462C339.862 465.798 340.288 466.104 340.768 466.38C341.248 466.656 341.764 466.89 342.316 467.082C342.88 467.262 343.45 467.394 344.026 467.478L343.45 468.666C342.79 468.558 342.148 468.39 341.524 468.162C340.912 467.922 340.33 467.634 339.778 467.298C339.238 466.962 338.758 466.584 338.338 466.164C337.93 465.732 337.612 465.264 337.384 464.76C337.156 464.244 337.042 463.692 337.042 463.104V462.366ZM331.858 473.094H343.108V478.404H341.614V474.282H331.858V473.094ZM355.557 464.454H356.763V467.082C356.763 467.934 356.643 468.78 356.403 469.62C356.163 470.448 355.827 471.234 355.395 471.978C354.975 472.71 354.489 473.364 353.937 473.94C353.385 474.504 352.791 474.948 352.155 475.272L351.273 474.084C351.861 473.796 352.407 473.406 352.911 472.914C353.427 472.41 353.883 471.84 354.279 471.204C354.675 470.556 354.987 469.884 355.215 469.188C355.443 468.48 355.557 467.778 355.557 467.082V464.454ZM355.845 464.454H357.033V467.082C357.033 467.73 357.135 468.384 357.339 469.044C357.555 469.704 357.855 470.334 358.239 470.934C358.623 471.534 359.067 472.074 359.571 472.554C360.087 473.022 360.633 473.4 361.209 473.688L360.363 474.876C359.727 474.552 359.133 474.12 358.581 473.58C358.029 473.028 357.549 472.404 357.141 471.708C356.733 471.012 356.415 470.268 356.187 469.476C355.959 468.684 355.845 467.886 355.845 467.082V464.454ZM351.849 463.788H360.633V465.03H351.849V463.788ZM362.559 462.114H364.053V478.404H362.559V462.114ZM363.711 468.684H366.717V469.944H363.711V468.684ZM375.625 464.67H380.521V465.894H375.625V464.67ZM375.625 468.558H380.521V469.782H375.625V468.558ZM379.999 462.132H381.493V474.156H379.999V462.132ZM371.107 476.82H381.943V478.044H371.107V476.82ZM371.107 472.914H372.583V477.342H371.107V472.914ZM372.547 463.158C373.339 463.158 374.047 463.332 374.671 463.68C375.307 464.028 375.805 464.508 376.165 465.12C376.537 465.732 376.723 466.434 376.723 467.226C376.723 468.03 376.537 468.738 376.165 469.35C375.805 469.962 375.307 470.442 374.671 470.79C374.047 471.138 373.339 471.312 372.547 471.312C371.743 471.312 371.023 471.138 370.387 470.79C369.763 470.442 369.265 469.962 368.893 469.35C368.533 468.738 368.353 468.03 368.353 467.226C368.353 466.434 368.533 465.732 368.893 465.12C369.265 464.508 369.763 464.028 370.387 463.68C371.023 463.332 371.743 463.158 372.547 463.158ZM372.547 464.49C372.019 464.49 371.545 464.61 371.125 464.85C370.705 465.078 370.375 465.402 370.135 465.822C369.895 466.23 369.775 466.704 369.775 467.244C369.775 467.772 369.895 468.246 370.135 468.666C370.375 469.086 370.705 469.416 371.125 469.656C371.545 469.884 372.019 469.998 372.547 469.998C373.063 469.998 373.531 469.884 373.951 469.656C374.371 469.416 374.701 469.086 374.941 468.666C375.181 468.246 375.301 467.772 375.301 467.244C375.301 466.704 375.181 466.23 374.941 465.822C374.701 465.402 374.371 465.078 373.951 464.85C373.531 464.61 373.063 464.49 372.547 464.49ZM391.266 468.45H394.326V469.674H391.266V468.45ZM397.062 462.114H398.502V478.404H397.062V462.114ZM393.822 462.456H395.244V477.576H393.822V462.456ZM388.314 463.482C389.022 463.482 389.634 463.71 390.15 464.166C390.678 464.622 391.086 465.276 391.374 466.128C391.662 466.98 391.806 467.982 391.806 469.134C391.806 470.298 391.662 471.306 391.374 472.158C391.086 473.01 390.678 473.67 390.15 474.138C389.634 474.594 389.022 474.822 388.314 474.822C387.63 474.822 387.024 474.594 386.496 474.138C385.98 473.67 385.578 473.01 385.29 472.158C385.002 471.306 384.858 470.298 384.858 469.134C384.858 467.982 385.002 466.98 385.29 466.128C385.578 465.276 385.98 464.622 386.496 464.166C387.024 463.71 387.63 463.482 388.314 463.482ZM388.314 464.868C387.894 464.868 387.528 465.042 387.216 465.39C386.904 465.738 386.664 466.23 386.496 466.866C386.328 467.502 386.244 468.258 386.244 469.134C386.244 470.01 386.328 470.772 386.496 471.42C386.664 472.056 386.904 472.548 387.216 472.896C387.528 473.244 387.894 473.418 388.314 473.418C388.746 473.418 389.118 473.244 389.43 472.896C389.754 472.548 390 472.056 390.168 471.42C390.336 470.772 390.42 470.01 390.42 469.134C390.42 468.258 390.336 467.502 390.168 466.866C390 466.23 389.754 465.738 389.43 465.39C389.118 465.042 388.746 464.868 388.314 464.868ZM409.354 467.64H413.872V468.864H409.354V467.64ZM405.412 463.518H406.636V466.434C406.636 467.334 406.522 468.222 406.294 469.098C406.078 469.974 405.766 470.79 405.358 471.546C404.95 472.302 404.47 472.974 403.918 473.562C403.378 474.15 402.784 474.618 402.136 474.966L401.2 473.76C401.8 473.472 402.352 473.07 402.856 472.554C403.372 472.038 403.822 471.45 404.206 470.79C404.59 470.118 404.884 469.416 405.088 468.684C405.304 467.94 405.412 467.19 405.412 466.434V463.518ZM405.718 463.518H406.924V466.434C406.924 467.166 407.026 467.892 407.23 468.612C407.446 469.332 407.746 470.01 408.13 470.646C408.514 471.27 408.958 471.828 409.462 472.32C409.978 472.812 410.53 473.196 411.118 473.472L410.218 474.678C409.57 474.342 408.97 473.892 408.418 473.328C407.866 472.764 407.386 472.116 406.978 471.384C406.582 470.652 406.27 469.866 406.042 469.026C405.826 468.186 405.718 467.322 405.718 466.434V463.518ZM413.134 462.114H414.61V478.422H413.134V462.114ZM434.385 462.06H435.879V471.06H434.385V462.06ZM425.349 471.87H435.879V475.506H426.843V477.378H425.385V474.426H434.403V473.004H425.349V471.87ZM425.385 477.072H436.419V478.224H425.385V477.072ZM422.775 463.572H432.657V464.742H422.775V463.572ZM427.725 465.498C428.925 465.498 429.885 465.738 430.605 466.218C431.325 466.686 431.685 467.334 431.685 468.162C431.685 468.978 431.325 469.626 430.605 470.106C429.885 470.586 428.925 470.826 427.725 470.826C426.513 470.826 425.547 470.586 424.827 470.106C424.107 469.626 423.747 468.978 423.747 468.162C423.747 467.334 424.107 466.686 424.827 466.218C425.547 465.738 426.513 465.498 427.725 465.498ZM427.725 466.596C426.957 466.596 426.339 466.74 425.871 467.028C425.403 467.304 425.169 467.682 425.169 468.162C425.169 468.642 425.403 469.026 425.871 469.314C426.339 469.59 426.957 469.728 427.725 469.728C428.493 469.728 429.105 469.59 429.561 469.314C430.029 469.026 430.263 468.642 430.263 468.162C430.263 467.682 430.029 467.304 429.561 467.028C429.105 466.74 428.493 466.596 427.725 466.596ZM426.969 461.934H428.481V464.184H426.969V461.934ZM450.943 462.132H452.437V472.14H450.943V462.132ZM439.945 469.908H441.259C442.243 469.908 443.155 469.896 443.995 469.872C444.847 469.848 445.675 469.8 446.479 469.728C447.283 469.644 448.117 469.536 448.981 469.404L449.161 470.628C448.261 470.76 447.397 470.868 446.569 470.952C445.753 471.036 444.913 471.09 444.049 471.114C443.197 471.138 442.267 471.15 441.259 471.15H439.945V469.908ZM439.909 463.158H447.289V467.64H441.403V470.61H439.945V466.488H445.831V464.382H439.909V463.158ZM447.073 472.482C448.777 472.482 450.115 472.74 451.087 473.256C452.059 473.76 452.545 474.48 452.545 475.416C452.545 476.352 452.059 477.078 451.087 477.594C450.115 478.11 448.777 478.368 447.073 478.368C445.381 478.368 444.049 478.11 443.077 477.594C442.105 477.078 441.619 476.352 441.619 475.416C441.619 474.48 442.105 473.76 443.077 473.256C444.049 472.74 445.381 472.482 447.073 472.482ZM447.073 473.67C446.257 473.67 445.549 473.742 444.949 473.886C444.349 474.018 443.887 474.216 443.563 474.48C443.251 474.732 443.095 475.044 443.095 475.416C443.095 475.788 443.251 476.106 443.563 476.37C443.887 476.634 444.349 476.838 444.949 476.982C445.549 477.114 446.257 477.18 447.073 477.18C447.901 477.18 448.609 477.114 449.197 476.982C449.797 476.838 450.253 476.634 450.565 476.37C450.889 476.106 451.051 475.788 451.051 475.416C451.051 475.044 450.889 474.732 450.565 474.48C450.253 474.216 449.797 474.018 449.197 473.886C448.609 473.742 447.901 473.67 447.073 473.67ZM466.692 462.114H468.168V478.404H466.692V462.114ZM467.826 468.81H470.832V470.07H467.826V468.81ZM455.568 464.724H465.162V465.948H455.568V464.724ZM460.446 467.28C461.214 467.28 461.892 467.442 462.48 467.766C463.08 468.09 463.548 468.534 463.884 469.098C464.232 469.65 464.406 470.292 464.406 471.024C464.406 471.756 464.232 472.404 463.884 472.968C463.548 473.532 463.08 473.976 462.48 474.3C461.892 474.612 461.214 474.768 460.446 474.768C459.678 474.768 458.994 474.612 458.394 474.3C457.806 473.976 457.338 473.532 456.99 472.968C456.642 472.404 456.468 471.756 456.468 471.024C456.468 470.292 456.642 469.65 456.99 469.098C457.338 468.534 457.806 468.09 458.394 467.766C458.994 467.442 459.678 467.28 460.446 467.28ZM460.446 468.522C459.954 468.522 459.516 468.63 459.132 468.846C458.748 469.062 458.442 469.356 458.214 469.728C457.998 470.1 457.89 470.532 457.89 471.024C457.89 471.516 457.998 471.954 458.214 472.338C458.442 472.71 458.748 473.004 459.132 473.22C459.516 473.424 459.954 473.526 460.446 473.526C460.926 473.526 461.358 473.424 461.742 473.22C462.126 473.004 462.426 472.71 462.642 472.338C462.87 471.954 462.984 471.516 462.984 471.024C462.984 470.532 462.87 470.1 462.642 469.728C462.426 469.356 462.126 469.062 461.742 468.846C461.358 468.63 460.926 468.522 460.446 468.522ZM459.672 462.312H461.166V465.264H459.672V462.312ZM473.782 463.752H484.258V464.976H473.782V463.752ZM472.216 474.876H486.922V476.118H472.216V474.876ZM477.94 469.062H479.416V475.506H477.94V469.062ZM483.682 463.752H485.176V465.354C485.176 466.026 485.164 466.734 485.14 467.478C485.128 468.222 485.08 469.038 484.996 469.926C484.924 470.814 484.786 471.804 484.582 472.896L483.07 472.716C483.382 471.156 483.562 469.788 483.61 468.612C483.658 467.424 483.682 466.338 483.682 465.354V463.752ZM505.383 462.132H506.877V471.168H505.383V462.132ZM497.769 462.726H499.011V464.31C499.011 465.306 498.819 466.242 498.435 467.118C498.051 467.982 497.511 468.738 496.815 469.386C496.119 470.022 495.309 470.508 494.385 470.844L493.629 469.656C494.253 469.44 494.817 469.152 495.321 468.792C495.825 468.432 496.257 468.018 496.617 467.55C496.989 467.07 497.271 466.554 497.463 466.002C497.667 465.45 497.769 464.886 497.769 464.31V462.726ZM498.039 462.726H499.281V464.31C499.281 464.874 499.377 465.42 499.569 465.948C499.773 466.464 500.055 466.944 500.415 467.388C500.787 467.832 501.225 468.222 501.729 468.558C502.233 468.894 502.785 469.158 503.385 469.35L502.665 470.538C501.981 470.31 501.357 469.992 500.793 469.584C500.229 469.176 499.743 468.702 499.335 468.162C498.927 467.622 498.609 467.028 498.381 466.38C498.153 465.72 498.039 465.03 498.039 464.31V462.726ZM496.113 472.14H506.985V473.346H496.113V472.14ZM495.969 476.964H507.147V478.188H495.969V476.964ZM498.345 472.644H499.821V477.684H498.345V472.644ZM503.295 472.644H504.771V477.684H503.295V472.644ZM514.435 463.374C515.227 463.374 515.929 463.608 516.541 464.076C517.153 464.532 517.627 465.186 517.963 466.038C518.311 466.89 518.485 467.892 518.485 469.044C518.485 470.196 518.311 471.198 517.963 472.05C517.627 472.902 517.153 473.562 516.541 474.03C515.929 474.498 515.227 474.732 514.435 474.732C513.655 474.732 512.953 474.498 512.329 474.03C511.717 473.562 511.237 472.902 510.889 472.05C510.553 471.198 510.385 470.196 510.385 469.044C510.385 467.892 510.553 466.89 510.889 466.038C511.237 465.186 511.717 464.532 512.329 464.076C512.953 463.608 513.655 463.374 514.435 463.374ZM514.435 464.706C513.919 464.706 513.463 464.886 513.067 465.246C512.671 465.594 512.359 466.098 512.131 466.758C511.915 467.406 511.807 468.168 511.807 469.044C511.807 469.92 511.915 470.688 512.131 471.348C512.359 471.996 512.671 472.5 513.067 472.86C513.463 473.22 513.919 473.4 514.435 473.4C514.963 473.4 515.425 473.22 515.821 472.86C516.217 472.5 516.523 471.996 516.739 471.348C516.967 470.688 517.081 469.92 517.081 469.044C517.081 468.168 516.967 467.406 516.739 466.758C516.523 466.098 516.217 465.594 515.821 465.246C515.425 464.886 514.963 464.706 514.435 464.706ZM522.013 462.114H523.489V478.422H522.013V462.114ZM517.999 468.324H522.679V469.53H517.999V468.324Z" fill="#818181"/>
</g>
<g filter="url(#filter2_d_547_373)">
<rect x="199" y="210" width="362" height="80" rx="25" fill="white"/>
<rect x="199.5" y="210.5" width="361" height="79" rx="24.5" stroke="#D9D9D9"/>
<path d="M246.312 242.776H247.824V245.764H250.074V247.096H247.824V251.614H246.312V242.776ZM237.708 252.406H247.788V258.634H237.708V252.406ZM246.276 257.356V253.684H239.22V257.356H246.276ZM235.908 243.262H237.42V248.914H238.752C241.476 248.914 243.696 248.77 245.412 248.482V249.76C243.84 250.072 241.62 250.228 238.752 250.228H235.908V243.262ZM260.639 255.34C259.691 254.824 258.821 254.14 258.029 253.288C257.237 252.424 256.643 251.53 256.247 250.606C255.863 251.602 255.281 252.55 254.501 253.45C253.733 254.338 252.821 255.112 251.765 255.772L250.739 254.71C252.107 253.918 253.229 252.85 254.105 251.506C254.981 250.15 255.419 248.662 255.419 247.042V245.638H251.963V244.342H260.459V245.638H257.003V247.078C257.003 248.674 257.429 250.096 258.281 251.344C259.145 252.592 260.219 253.552 261.503 254.224L260.639 255.34ZM262.691 242.776H264.203V248.824H266.633V250.192H264.203V258.814H262.691V242.776ZM277.359 252.298C276.495 251.962 275.679 251.482 274.911 250.858C274.155 250.222 273.567 249.532 273.147 248.788C272.811 249.568 272.247 250.318 271.455 251.038C270.675 251.746 269.793 252.322 268.809 252.766L267.855 251.668C269.175 251.08 270.249 250.294 271.077 249.31C271.905 248.326 272.319 247.3 272.319 246.232V245.908H268.773V244.648H272.355V242.632H273.867V244.648H277.449V245.908H273.903V246.214C273.903 246.91 274.089 247.582 274.461 248.23C274.845 248.878 275.361 249.454 276.009 249.958C276.657 250.462 277.371 250.858 278.151 251.146L277.359 252.298ZM271.257 253.504H272.787V257.248H281.841V258.544H271.257V253.504ZM279.969 242.776H281.481V254.764H279.969V242.776ZM291.11 251.992H284.468V250.696H295.286C295.49 249.808 295.652 248.836 295.772 247.78C295.904 246.724 295.976 245.728 295.988 244.792H286.268V243.496H297.572C297.548 244.72 297.464 245.986 297.32 247.294C297.188 248.59 297.014 249.724 296.798 250.696H299.444V251.992H292.622V258.814H291.11V251.992ZM310.494 247.564C310.494 248.212 310.344 248.818 310.044 249.382C309.756 249.934 309.348 250.402 308.82 250.786C308.304 251.158 307.716 251.404 307.056 251.524V254.458C309.012 254.422 310.602 254.284 311.826 254.044V255.304C310.362 255.604 308.334 255.754 305.742 255.754H301.134V254.458H305.508V251.56C304.812 251.464 304.188 251.23 303.636 250.858C303.096 250.474 302.67 249.994 302.358 249.418C302.046 248.842 301.89 248.224 301.89 247.564C301.89 246.832 302.076 246.154 302.448 245.53C302.832 244.906 303.348 244.414 303.996 244.054C304.656 243.694 305.388 243.514 306.192 243.514C306.996 243.514 307.722 243.694 308.37 244.054C309.03 244.414 309.546 244.906 309.918 245.53C310.302 246.154 310.494 246.832 310.494 247.564ZM312.546 242.776H314.058V249.148H316.398V250.516H314.058V258.814H312.546V242.776ZM306.192 250.3C306.756 250.3 307.248 250.18 307.668 249.94C308.088 249.688 308.412 249.352 308.64 248.932C308.868 248.512 308.982 248.056 308.982 247.564C308.982 247.06 308.868 246.598 308.64 246.178C308.412 245.758 308.088 245.428 307.668 245.188C307.248 244.936 306.756 244.81 306.192 244.81C305.628 244.81 305.136 244.936 304.716 245.188C304.296 245.428 303.972 245.758 303.744 246.178C303.516 246.598 303.402 247.06 303.402 247.564C303.402 248.056 303.516 248.512 303.744 248.932C303.972 249.352 304.296 249.688 304.716 249.94C305.136 250.18 305.628 250.3 306.192 250.3ZM333.214 242.776H334.726V248.824H337.156V250.192H334.726V258.814H333.214V242.776ZM324.358 245.638V253.774H328.75V245.638H324.358ZM322.846 244.342H330.262V255.07H322.846V244.342ZM346.695 255.772H353.409V257.068H338.433V255.772H345.147V251.992H339.801V250.696H342.159L342.033 245.314H340.161V244.036H351.681V245.314H349.809L349.665 250.696H352.041V251.992H346.695V255.772ZM343.527 245.314L343.653 250.696H348.171L348.315 245.314H343.527ZM361.633 251.992H354.991V250.696H365.809C366.013 249.808 366.175 248.836 366.295 247.78C366.427 246.724 366.499 245.728 366.511 244.792H356.791V243.496H368.095C368.071 244.72 367.987 245.986 367.843 247.294C367.711 248.59 367.537 249.724 367.321 250.696H369.967V251.992H363.145V258.814H361.633V251.992ZM387.359 242.776H388.871V246.574H391.121V247.906H388.871V253.432H387.359V242.776ZM378.323 244.828V249.436H382.823V244.828H378.323ZM376.811 243.532H384.335V250.732H376.811V243.532ZM384.515 253.036C384.515 253.684 384.761 254.32 385.253 254.944C385.745 255.568 386.393 256.114 387.197 256.582C388.013 257.05 388.883 257.398 389.807 257.626L389.141 258.796C387.917 258.46 386.825 257.974 385.865 257.338C384.905 256.69 384.191 255.928 383.723 255.052C383.255 255.928 382.541 256.69 381.581 257.338C380.621 257.974 379.529 258.46 378.305 258.796L377.639 257.626C378.563 257.398 379.427 257.05 380.231 256.582C381.047 256.114 381.701 255.568 382.193 254.944C382.685 254.32 382.931 253.684 382.931 253.036V252.424H384.515V253.036ZM395.673 252.118H397.185V254.08H404.421V252.118H405.933V258.616H395.673V252.118ZM401.847 250.75C401.007 250.486 400.191 250.066 399.399 249.49C398.619 248.902 398.013 248.26 397.581 247.564C397.257 248.248 396.687 248.938 395.871 249.634C395.067 250.318 394.173 250.858 393.189 251.254L392.253 250.138C393.561 249.646 394.635 248.944 395.475 248.032C396.327 247.108 396.753 246.124 396.753 245.08V244.792H393.261V243.532H401.829V244.792H398.337V245.062C398.337 245.734 398.529 246.376 398.913 246.988C399.309 247.588 399.831 248.116 400.479 248.572C401.127 249.016 401.841 249.352 402.621 249.58L401.847 250.75ZM397.185 255.322V257.338H404.421V255.322H397.185ZM404.457 251.326V242.776H405.969V251.326H404.457ZM424.765 242.776H426.277V246.394H428.527V247.726H426.277V252.082H424.765V242.776ZM416.161 252.874H426.241V258.634H416.161V252.874ZM424.729 257.374V254.134H417.673V257.374H424.729ZM421.669 246.592V247.834H415.819V249.832H417.205C419.929 249.832 422.149 249.688 423.865 249.4V250.66C422.293 250.972 420.073 251.128 417.205 251.128H414.307V243.424H421.849V244.702H415.819V246.592H421.669ZM441.324 242.776H442.836V246.484H445.086V247.816H442.836V252.496H441.324V242.776ZM430.776 243.352H432.288V245.962H436.788V243.352H438.3V251.092H430.776V243.352ZM432.288 247.222V249.814H436.788V247.222H432.288ZM437.724 259.138C436.632 259.138 435.678 259 434.862 258.724C434.046 258.448 433.416 258.064 432.972 257.572C432.54 257.092 432.324 256.552 432.324 255.952C432.324 255.352 432.54 254.812 432.972 254.332C433.416 253.84 434.046 253.456 434.862 253.18C435.678 252.904 436.632 252.766 437.724 252.766C438.816 252.766 439.77 252.904 440.586 253.18C441.402 253.456 442.026 253.84 442.458 254.332C442.902 254.812 443.124 255.352 443.124 255.952C443.124 256.552 442.902 257.092 442.458 257.572C442.026 258.064 441.402 258.448 440.586 258.724C439.77 259 438.816 259.138 437.724 259.138ZM437.724 254.062C436.5 254.062 435.546 254.23 434.862 254.566C434.178 254.902 433.836 255.364 433.836 255.952C433.836 256.54 434.178 257.002 434.862 257.338C435.546 257.674 436.5 257.842 437.724 257.842C438.948 257.842 439.902 257.674 440.586 257.338C441.27 257.002 441.612 256.54 441.612 255.952C441.612 255.364 441.27 254.902 440.586 254.566C439.902 254.23 438.948 254.062 437.724 254.062ZM453.85 248.536C452.698 248.536 451.69 248.41 450.826 248.158C449.974 247.906 449.32 247.558 448.864 247.114C448.408 246.67 448.18 246.16 448.18 245.584C448.18 245.008 448.408 244.498 448.864 244.054C449.32 243.61 449.974 243.262 450.826 243.01C451.69 242.758 452.698 242.632 453.85 242.632C455.002 242.632 456.004 242.758 456.856 243.01C457.72 243.262 458.38 243.61 458.836 244.054C459.292 244.498 459.52 245.008 459.52 245.584C459.52 246.16 459.292 246.67 458.836 247.114C458.38 247.558 457.72 247.906 456.856 248.158C456.004 248.41 455.002 248.536 453.85 248.536ZM453.85 243.874C452.602 243.874 451.594 244.024 450.826 244.324C450.07 244.624 449.692 245.044 449.692 245.584C449.692 246.124 450.07 246.544 450.826 246.844C451.594 247.144 452.602 247.294 453.85 247.294C455.098 247.294 456.1 247.144 456.856 246.844C457.624 246.544 458.008 246.124 458.008 245.584C458.008 245.044 457.624 244.624 456.856 244.324C456.1 244.024 455.098 243.874 453.85 243.874ZM446.362 249.58H461.338V250.822H446.362V249.58ZM448.45 254.764H457.738V253.45H448.45V252.208H459.25V255.97H449.962V257.374H459.61V258.634H448.45V254.764ZM470.126 254.836H478.694V253.594H470.126V252.37H480.206V256.024H471.638V257.392H480.566V258.634H470.126V254.836ZM472.484 251.326C471.692 251.326 470.984 251.212 470.36 250.984C469.736 250.744 469.25 250.42 468.902 250.012C468.554 249.604 468.38 249.154 468.38 248.662C468.38 248.17 468.554 247.72 468.902 247.312C469.25 246.904 469.736 246.586 470.36 246.358C470.984 246.118 471.692 245.998 472.484 245.998C473.276 245.998 473.984 246.118 474.608 246.358C475.232 246.586 475.718 246.904 476.066 247.312C476.414 247.72 476.588 248.17 476.588 248.662C476.588 249.154 476.414 249.604 476.066 250.012C475.718 250.42 475.232 250.744 474.608 250.984C473.984 251.212 473.276 251.326 472.484 251.326ZM480.242 242.776V246.61H482.492V247.906H480.242V251.578H478.73V242.776H480.242ZM467.606 244.09H471.71V242.56H473.222V244.09H477.326V245.332H467.606V244.09ZM472.484 247.204C471.68 247.204 471.044 247.342 470.576 247.618C470.12 247.882 469.892 248.23 469.892 248.662C469.892 249.094 470.12 249.448 470.576 249.724C471.044 249.988 471.68 250.12 472.484 250.12C473.288 250.12 473.918 249.988 474.374 249.724C474.842 249.448 475.076 249.094 475.076 248.662C475.076 248.23 474.842 247.882 474.374 247.618C473.918 247.342 473.288 247.204 472.484 247.204ZM499.938 250.624H496.554V249.292H499.938V242.776H501.45V258.814H499.938V250.624ZM488.526 255.052C489.81 254.404 490.926 253.576 491.874 252.568C492.822 251.56 493.56 250.462 494.088 249.274C494.628 248.074 494.946 246.862 495.042 245.638H489.354V244.342H496.626C496.602 246.13 496.278 247.792 495.654 249.328C495.03 250.852 494.184 252.19 493.116 253.342C492.06 254.482 490.86 255.406 489.516 256.114L488.526 255.052ZM515.956 242.776H517.468V246.484H519.808V247.816H517.468V252.046H519.808V253.378H517.468V258.814H515.956V242.776ZM509.17 255.79C508.402 255.79 507.712 255.562 507.1 255.106C506.5 254.638 506.026 253.954 505.678 253.054C505.33 252.154 505.156 251.068 505.156 249.796C505.156 248.524 505.33 247.438 505.678 246.538C506.026 245.638 506.5 244.96 507.1 244.504C507.712 244.036 508.402 243.802 509.17 243.802C509.938 243.802 510.622 244.036 511.222 244.504C511.834 244.96 512.314 245.638 512.662 246.538C513.01 247.438 513.184 248.524 513.184 249.796C513.184 251.068 513.01 252.154 512.662 253.054C512.314 253.954 511.834 254.638 511.222 255.106C510.622 255.562 509.938 255.79 509.17 255.79ZM509.17 245.098C508.426 245.098 507.814 245.5 507.334 246.304C506.866 247.108 506.632 248.272 506.632 249.796C506.632 251.32 506.866 252.484 507.334 253.288C507.814 254.092 508.426 254.494 509.17 254.494C509.914 254.494 510.52 254.092 510.988 253.288C511.468 252.484 511.708 251.32 511.708 249.796C511.708 248.272 511.468 247.108 510.988 246.304C510.52 245.5 509.914 245.098 509.17 245.098ZM521.841 244.198H523.803L523.569 253.198H522.093L521.841 244.198ZM522.813 257.518C522.465 257.518 522.171 257.398 521.931 257.158C521.691 256.918 521.571 256.624 521.571 256.276C521.571 255.928 521.691 255.634 521.931 255.394C522.171 255.154 522.465 255.034 522.813 255.034C523.161 255.034 523.455 255.154 523.695 255.394C523.947 255.634 524.073 255.928 524.073 256.276C524.073 256.624 523.947 256.918 523.695 257.158C523.455 257.398 523.161 257.518 522.813 257.518Z" fill="#818181"/>
</g>
<g filter="url(#filter3_d_547_373)">
<rect x="291" y="320" width="270" height="80" rx="25" fill="white"/>
<rect x="291.5" y="320.5" width="269" height="79" rx="24.5" stroke="#D9D9D9"/>
<path d="M336.152 361.83C335.276 361.482 334.466 360.984 333.722 360.336C332.99 359.676 332.396 358.944 331.94 358.14C331.616 358.932 331.064 359.7 330.284 360.444C329.516 361.188 328.622 361.818 327.602 362.334L326.648 361.236C327.5 360.852 328.262 360.354 328.934 359.742C329.618 359.13 330.152 358.452 330.536 357.708C330.92 356.964 331.112 356.208 331.112 355.44V354.81H327.656V353.532H336.152V354.81H332.696V355.422C332.696 356.154 332.888 356.868 333.272 357.564C333.656 358.26 334.172 358.878 334.82 359.418C335.468 359.958 336.176 360.378 336.944 360.678L336.152 361.83ZM338.852 357.906H335.882V356.61H338.852V352.776H340.364V364.584H338.852V357.906ZM330.14 363.324H331.67V367.248H340.724V368.544H330.14V363.324ZM343.351 361.074H350.155V359.544H345.439V353.136H356.239V354.396H346.951V355.692H356.149V356.916H346.951V358.266H356.419V359.544H351.703V361.074H358.327V362.334H343.351V361.074ZM350.839 369.138C349.639 369.138 348.601 369.012 347.725 368.76C346.861 368.52 346.195 368.184 345.727 367.752C345.271 367.32 345.043 366.828 345.043 366.276C345.043 365.724 345.271 365.232 345.727 364.8C346.195 364.368 346.861 364.032 347.725 363.792C348.601 363.54 349.639 363.414 350.839 363.414C352.039 363.414 353.071 363.54 353.935 363.792C354.811 364.032 355.477 364.368 355.933 364.8C356.401 365.232 356.635 365.724 356.635 366.276C356.635 366.828 356.401 367.32 355.933 367.752C355.477 368.184 354.811 368.52 353.935 368.76C353.071 369.012 352.039 369.138 350.839 369.138ZM350.839 364.674C349.495 364.674 348.445 364.818 347.689 365.106C346.933 365.394 346.555 365.784 346.555 366.276C346.555 366.768 346.933 367.158 347.689 367.446C348.445 367.734 349.495 367.878 350.839 367.878C352.183 367.878 353.233 367.734 353.989 367.446C354.745 367.158 355.123 366.768 355.123 366.276C355.123 365.784 354.745 365.394 353.989 365.106C353.233 364.818 352.183 364.674 350.839 364.674ZM372.712 365.448H371.2V362.154H364.198V360.876H379.174V362.154H372.712V365.448ZM366.286 353.244H377.086V359.076H366.286V353.244ZM367.798 354.522V357.798H375.574V354.522H367.798ZM366.286 363.666H367.816V367.248H377.626V368.544H366.286V363.666ZM391.557 365.664C390.093 365.964 388.065 366.114 385.473 366.114H380.865V364.818H385.239V362.91C384.315 362.79 383.571 362.46 383.007 361.92C382.443 361.368 382.161 360.72 382.161 359.976C382.161 359.424 382.323 358.926 382.647 358.482C382.971 358.026 383.421 357.666 383.997 357.402C384.573 357.138 385.233 357.006 385.977 357.006C386.721 357.006 387.381 357.138 387.957 357.402C388.533 357.666 388.983 358.026 389.307 358.482C389.631 358.926 389.793 359.424 389.793 359.976C389.793 360.708 389.517 361.344 388.965 361.884C388.413 362.424 387.687 362.76 386.787 362.892V364.818C388.743 364.782 390.333 364.644 391.557 364.404V365.664ZM392.277 352.776H393.789V359.508H396.129V360.876H393.789V368.814H392.277V352.776ZM381.369 355.098H385.221V353.37H386.733V355.098H390.513V356.376H381.369V355.098ZM385.977 358.248C385.269 358.248 384.705 358.41 384.285 358.734C383.877 359.046 383.673 359.46 383.673 359.976C383.673 360.492 383.877 360.912 384.285 361.236C384.705 361.548 385.269 361.704 385.977 361.704C386.685 361.704 387.243 361.548 387.651 361.236C388.071 360.912 388.281 360.492 388.281 359.976C388.281 359.46 388.071 359.046 387.651 358.734C387.243 358.41 386.685 358.248 385.977 358.248ZM409.111 365.502C408.343 364.938 407.671 364.278 407.095 363.522C406.519 362.754 406.069 361.95 405.745 361.11C405.493 361.974 405.049 362.844 404.413 363.72C403.777 364.596 403.015 365.358 402.127 366.006L401.065 365.016C401.809 364.524 402.475 363.894 403.062 363.126C403.651 362.358 404.107 361.512 404.431 360.588C404.767 359.664 404.935 358.746 404.935 357.834V357.078H402.091V355.782H404.971V353.478H406.447V355.782H409.327V357.078H406.483V357.834C406.483 359.166 406.819 360.426 407.491 361.614C408.163 362.802 408.997 363.744 409.993 364.44L409.111 365.502ZM411.091 368.058V360.48H408.823V359.148H411.091V353.046H412.567V368.058H411.091ZM415.609 352.776V368.814H414.115V352.776H415.609ZM421.529 363.234H431.789V368.634H421.529V363.234ZM423.545 362.19C422.765 362.19 422.069 362.064 421.457 361.812C420.845 361.548 420.365 361.194 420.017 360.75C419.681 360.294 419.513 359.796 419.513 359.256C419.513 358.716 419.681 358.224 420.017 357.78C420.365 357.324 420.845 356.97 421.457 356.718C422.069 356.454 422.765 356.322 423.545 356.322C424.325 356.322 425.021 356.454 425.633 356.718C426.245 356.97 426.719 357.324 427.055 357.78C427.403 358.224 427.577 358.716 427.577 359.256C427.577 359.796 427.403 360.294 427.055 360.75C426.719 361.194 426.245 361.548 425.633 361.812C425.021 362.064 424.325 362.19 423.545 362.19ZM430.277 367.392V364.476H423.041V367.392H430.277ZM430.313 358.932H428.027V357.636H430.313V352.776H431.825V362.442H430.313V358.932ZM418.739 354.324H422.789V352.632H424.301V354.324H428.351V355.584H418.739V354.324ZM423.545 357.546C422.765 357.546 422.147 357.708 421.691 358.032C421.247 358.344 421.025 358.752 421.025 359.256C421.025 359.76 421.247 360.174 421.691 360.498C422.147 360.81 422.765 360.966 423.545 360.966C424.325 360.966 424.937 360.81 425.381 360.498C425.837 360.174 426.065 359.76 426.065 359.256C426.065 358.752 425.837 358.344 425.381 358.032C424.937 357.708 424.325 357.546 423.545 357.546ZM442.21 358.536C441.058 358.536 440.05 358.41 439.186 358.158C438.334 357.906 437.68 357.558 437.224 357.114C436.768 356.67 436.54 356.16 436.54 355.584C436.54 355.008 436.768 354.498 437.224 354.054C437.68 353.61 438.334 353.262 439.186 353.01C440.05 352.758 441.058 352.632 442.21 352.632C443.362 352.632 444.364 352.758 445.216 353.01C446.08 353.262 446.74 353.61 447.196 354.054C447.652 354.498 447.88 355.008 447.88 355.584C447.88 356.16 447.652 356.67 447.196 357.114C446.74 357.558 446.08 357.906 445.216 358.158C444.364 358.41 443.362 358.536 442.21 358.536ZM442.21 353.874C440.962 353.874 439.954 354.024 439.186 354.324C438.43 354.624 438.052 355.044 438.052 355.584C438.052 356.124 438.43 356.544 439.186 356.844C439.954 357.144 440.962 357.294 442.21 357.294C443.458 357.294 444.46 357.144 445.216 356.844C445.984 356.544 446.368 356.124 446.368 355.584C446.368 355.044 445.984 354.624 445.216 354.324C444.46 354.024 443.458 353.874 442.21 353.874ZM434.722 359.58H449.698V360.822H434.722V359.58ZM436.81 364.764H446.098V363.45H436.81V362.208H447.61V365.97H438.322V367.374H447.97V368.634H436.81V364.764ZM460.663 366.132C459.835 366.132 459.097 365.946 458.449 365.574C457.813 365.202 457.321 364.704 456.973 364.08C456.625 363.456 456.451 362.778 456.451 362.046C456.451 361.314 456.625 360.636 456.973 360.012C457.321 359.388 457.813 358.89 458.449 358.518C459.097 358.146 459.835 357.96 460.663 357.96C461.491 357.96 462.223 358.146 462.859 358.518C463.507 358.89 464.005 359.388 464.353 360.012C464.701 360.636 464.875 361.314 464.875 362.046C464.875 362.778 464.701 363.456 464.353 364.08C464.005 364.704 463.507 365.202 462.859 365.574C462.223 365.946 461.491 366.132 460.663 366.132ZM466.909 352.776H468.421V359.454H470.851V360.822H468.421V368.814H466.909V352.776ZM460.663 359.22C459.835 359.22 459.175 359.49 458.683 360.03C458.203 360.558 457.963 361.23 457.963 362.046C457.963 362.862 458.203 363.54 458.683 364.08C459.175 364.608 459.835 364.872 460.663 364.872C461.491 364.872 462.145 364.608 462.625 364.08C463.117 363.54 463.363 362.862 463.363 362.046C463.363 361.23 463.117 360.558 462.625 360.03C462.145 359.49 461.491 359.22 460.663 359.22ZM455.767 355.62H459.907V353.334H461.419V355.62H465.559V356.916H455.767V355.62ZM479.382 365.772H487.104V367.068H472.128V365.772H477.834V359.814H479.382V365.772ZM482.694 363.468C483.006 362.28 483.24 360.972 483.396 359.544C483.564 358.104 483.66 356.724 483.684 355.404H473.928V354.108H485.232C485.232 355.74 485.142 357.39 484.962 359.058C484.782 360.726 484.518 362.196 484.17 363.468H482.694ZM505.036 352.776H506.548V361.722H505.036V352.776ZM499.222 363.846L499.348 367.338H503.326L503.434 363.846H499.222ZM495.568 367.338H497.854L497.746 363.846H495.766V362.586H506.818V363.846H504.928L504.802 367.338H507.034V368.616H495.568V367.338ZM502.228 360.93C501.364 360.594 500.548 360.108 499.78 359.472C499.012 358.824 498.412 358.128 497.98 357.384C497.644 358.176 497.086 358.932 496.306 359.652C495.526 360.36 494.626 360.954 493.606 361.434L492.652 360.336C493.984 359.748 495.064 358.956 495.892 357.96C496.732 356.952 497.152 355.848 497.152 354.648V353.172H498.736V354.63C498.736 355.794 499.138 356.826 499.942 357.726C500.758 358.614 501.784 359.298 503.02 359.778L502.228 360.93ZM521.414 360.174H518.21C518.174 361.374 517.976 362.394 517.616 363.234C517.268 364.074 516.8 364.71 516.212 365.142C515.624 365.574 514.964 365.79 514.232 365.79C513.476 365.79 512.798 365.562 512.198 365.106C511.598 364.65 511.124 363.972 510.776 363.072C510.428 362.16 510.254 361.068 510.254 359.796C510.254 358.524 510.428 357.438 510.776 356.538C511.124 355.626 511.598 354.942 512.198 354.486C512.798 354.03 513.476 353.802 514.232 353.802C514.916 353.802 515.54 353.994 516.104 354.378C516.668 354.762 517.13 355.332 517.49 356.088C517.862 356.844 518.09 357.762 518.174 358.842H521.414V352.776H522.926V368.814H521.414V360.174ZM514.232 355.098C513.488 355.098 512.882 355.5 512.414 356.304C511.958 357.108 511.73 358.272 511.73 359.796C511.73 361.32 511.958 362.484 512.414 363.288C512.882 364.092 513.488 364.494 514.232 364.494C514.976 364.494 515.576 364.092 516.032 363.288C516.5 362.484 516.734 361.32 516.734 359.796C516.734 358.272 516.5 357.108 516.032 356.304C515.576 355.5 514.976 355.098 514.232 355.098Z" fill="#818181"/>
</g>
<defs>
<filter id="filter0_f_547_373" x="0" y="0" width="730" height="730" filterUnits="userSpaceOnUse" color-interpolation-filters="sRGB">
<feFlood flood-opacity="0" result="BackgroundImageFix"/>
<feBlend mode="normal" in="SourceGraphic" in2="BackgroundImageFix" result="shape"/>
<feGaussianBlur stdDeviation="100" result="effect1_foregroundBlur_547_373"/>
</filter>
<filter id="filter1_d_547_373" x="189" y="419" width="389" height="110" filterUnits="userSpaceOnUse" color-interpolation-filters="sRGB">
<feFlood flood-opacity="0" result="BackgroundImageFix"/>
<feColorMatrix in="SourceAlpha" type="matrix" values="0 0 0 0 0 0 0 0 0 0 0 0 0 0 0 0 0 0 127 0" result="hardAlpha"/>
<feOffset dx="2" dy="4"/>
<feGaussianBlur stdDeviation="7.5"/>
<feComposite in2="hardAlpha" operator="out"/>
<feColorMatrix type="matrix" values="0 0 0 0 0 0 0 0 0 0 0 0 0 0 0 0 0 0 0.1 0"/>
<feBlend mode="normal" in2="BackgroundImageFix" result="effect1_dropShadow_547_373"/>
<feBlend mode="normal" in="SourceGraphic" in2="effect1_dropShadow_547_373" result="shape"/>
</filter>
<filter id="filter2_d_547_373" x="186" y="199" width="392" height="110" filterUnits="userSpaceOnUse" color-interpolation-filters="sRGB">
<feFlood flood-opacity="0" result="BackgroundImageFix"/>
<feColorMatrix in="SourceAlpha" type="matrix" values="0 0 0 0 0 0 0 0 0 0 0 0 0 0 0 0 0 0 127 0" result="hardAlpha"/>
<feOffset dx="2" dy="4"/>
<feGaussianBlur stdDeviation="7.5"/>
<feComposite in2="hardAlpha" operator="out"/>
<feColorMatrix type="matrix" values="0 0 0 0 0 0 0 0 0 0 0 0 0 0 0 0 0 0 0.1 0"/>
<feBlend mode="normal" in2="BackgroundImageFix" result="effect1_dropShadow_547_373"/>
<feBlend mode="normal" in="SourceGraphic" in2="effect1_dropShadow_547_373" result="shape"/>
</filter>
<filter id="filter3_d_547_373" x="278" y="309" width="300" height="110" filterUnits="userSpaceOnUse" color-interpolation-filters="sRGB">
<feFlood flood-opacity="0" result="BackgroundImageFix"/>
<feColorMatrix in="SourceAlpha" type="matrix" values="0 0 0 0 0 0 0 0 0 0 0 0 0 0 0 0 0 0 127 0" result="hardAlpha"/>
<feOffset dx="2" dy="4"/>
<feGaussianBlur stdDeviation="7.5"/>
<feComposite in2="hardAlpha" operator="out"/>
<feColorMatrix type="matrix" values="0 0 0 0 0 0 0 0 0 0 0 0 0 0 0 0 0 0 0.1 0"/>
<feBlend mode="normal" in2="BackgroundImageFix" result="effect1_dropShadow_547_373"/>
<feBlend mode="normal" in="SourceGraphic" in2="effect1_dropShadow_547_373" result="shape"/>
</filter>
</defs>
</svg>
