<svg width="470" height="220" viewBox="0 0 470 220" fill="none" xmlns="http://www.w3.org/2000/svg">
<g filter="url(#filter0_d_514_13666)">
<rect x="13" y="11" width="440" height="190" rx="30" fill="white"/>
<rect x="13.5" y="11.5" width="439" height="189" rx="29.5" stroke="#D9D9D9"/>
<path d="M100.258 71.58C99.3914 70.9133 98.6314 70.14 97.978 69.26C97.338 68.38 96.838 67.4467 96.478 66.46C96.1847 67.4867 95.678 68.5067 94.958 69.52C94.2514 70.52 93.4047 71.3933 92.418 72.14L91.238 71.04C92.0514 70.48 92.7847 69.7467 93.438 68.84C94.1047 67.9333 94.6247 66.9267 94.998 65.82C95.3847 64.7133 95.578 63.5933 95.578 62.46V60.82H92.578V59.38H100.298V60.82H97.298V62.46C97.298 64.1133 97.678 65.6533 98.438 67.08C99.198 68.4933 100.131 69.6 101.238 70.4L100.258 71.58ZM102.418 74.62V65.4H99.798V63.92H102.418V57.94H104.058V74.62H102.418ZM107.438 57.64V75.46H105.778V57.64H107.438ZM112.356 58.4H124.836V59.84H119.516C119.516 60.5067 119.816 61.1867 120.416 61.88C121.016 62.5733 121.823 63.1933 122.836 63.74C123.863 64.2733 124.963 64.6667 126.136 64.92L125.216 66.28C123.83 65.9733 122.523 65.4467 121.296 64.7C120.07 63.94 119.17 63.0667 118.596 62.08C118.023 63.0667 117.123 63.94 115.896 64.7C114.67 65.4467 113.363 65.9733 111.976 66.28L111.056 64.92C112.23 64.6667 113.323 64.2733 114.336 63.74C115.363 63.1933 116.176 62.5733 116.776 61.88C117.376 61.1867 117.676 60.5067 117.676 59.84H112.356V58.4ZM117.756 69.48H110.276V68.04H126.916V69.48H119.436V75.46H117.756V69.48ZM136.995 75.82C135.662 75.82 134.508 75.66 133.535 75.34C132.575 75.0333 131.835 74.6067 131.315 74.06C130.808 73.5133 130.555 72.8933 130.555 72.2C130.555 71.5067 130.808 70.8867 131.315 70.34C131.835 69.7933 132.575 69.3667 133.535 69.06C134.508 68.74 135.662 68.58 136.995 68.58C138.328 68.58 139.475 68.74 140.435 69.06C141.408 69.3667 142.148 69.7933 142.655 70.34C143.175 70.8867 143.435 71.5067 143.435 72.2C143.435 72.8933 143.175 73.5133 142.655 74.06C142.148 74.6067 141.408 75.0333 140.435 75.34C139.475 75.66 138.328 75.82 136.995 75.82ZM136.995 70C135.502 70 134.335 70.2 133.495 70.6C132.655 70.9867 132.235 71.52 132.235 72.2C132.235 72.88 132.655 73.42 133.495 73.82C134.335 74.2067 135.502 74.4 136.995 74.4C138.488 74.4 139.655 74.2067 140.495 73.82C141.335 73.42 141.755 72.88 141.755 72.2C141.755 71.52 141.335 70.9867 140.495 70.6C139.655 70.2 138.488 70 136.995 70ZM128.675 65.4H135.275V61.78H136.995V65.4H145.315V66.82H128.675V65.4ZM140.955 64.24C141.302 62.88 141.502 61.3267 141.555 59.58H130.635V58.16H143.275C143.235 60.68 143.008 62.7067 142.595 64.24H140.955ZM155.873 75.82C154.66 75.82 153.6 75.6733 152.693 75.38C151.787 75.1 151.087 74.7133 150.593 74.22C150.113 73.74 149.873 73.1933 149.873 72.58C149.873 71.9667 150.113 71.42 150.593 70.94C151.087 70.4467 151.787 70.06 152.693 69.78C153.6 69.4867 154.66 69.34 155.873 69.34C157.087 69.34 158.147 69.4867 159.053 69.78C159.96 70.06 160.653 70.4467 161.133 70.94C161.627 71.42 161.873 71.9667 161.873 72.58C161.873 73.1933 161.627 73.74 161.133 74.22C160.653 74.7133 159.96 75.1 159.053 75.38C158.147 75.6733 157.087 75.82 155.873 75.82ZM157.513 64.9C157.513 65.5133 157.32 66.0733 156.933 66.58C156.547 67.0867 156.007 67.4867 155.313 67.78C154.62 68.0733 153.827 68.22 152.933 68.22C152.04 68.22 151.247 68.0733 150.553 67.78C149.873 67.4867 149.34 67.0867 148.953 66.58C148.567 66.0733 148.373 65.5133 148.373 64.9C148.373 64.2867 148.567 63.7267 148.953 63.22C149.34 62.7133 149.88 62.3133 150.573 62.02C151.267 61.7267 152.053 61.58 152.933 61.58C153.827 61.58 154.62 61.7267 155.313 62.02C156.007 62.3133 156.547 62.7133 156.933 63.22C157.32 63.7267 157.513 64.2867 157.513 64.9ZM155.873 70.74C154.513 70.74 153.453 70.9067 152.693 71.24C151.933 71.56 151.553 72.0067 151.553 72.58C151.553 73.1533 151.933 73.6067 152.693 73.94C153.453 74.26 154.513 74.42 155.873 74.42C157.233 74.42 158.293 74.26 159.053 73.94C159.813 73.6067 160.193 73.1533 160.193 72.58C160.193 72.0067 159.813 71.56 159.053 71.24C158.293 70.9067 157.233 70.74 155.873 70.74ZM159.873 57.64H161.553V62.46H164.053V63.94H161.553V69.04H159.873V57.64ZM155.833 64.9C155.833 64.3133 155.573 63.84 155.053 63.48C154.533 63.12 153.827 62.94 152.933 62.94C152.04 62.94 151.333 63.12 150.813 63.48C150.307 63.84 150.053 64.3133 150.053 64.9C150.053 65.4867 150.307 65.96 150.813 66.32C151.333 66.68 152.04 66.86 152.933 66.86C153.827 66.86 154.533 66.68 155.053 66.32C155.573 65.96 155.833 65.4867 155.833 64.9ZM147.513 59.4H152.073V57.48H153.753V59.4H158.313V60.8H147.513V59.4Z" fill="#811CBB"/>
<path d="M173.792 64.04C172.512 64.04 171.392 63.9 170.432 63.62C169.485 63.34 168.758 62.9533 168.252 62.46C167.745 61.9667 167.492 61.4 167.492 60.76C167.492 60.12 167.745 59.5533 168.252 59.06C168.758 58.5667 169.485 58.18 170.432 57.9C171.392 57.62 172.512 57.48 173.792 57.48C175.072 57.48 176.185 57.62 177.132 57.9C178.092 58.18 178.825 58.5667 179.332 59.06C179.838 59.5533 180.092 60.12 180.092 60.76C180.092 61.4 179.838 61.9667 179.332 62.46C178.825 62.9533 178.092 63.34 177.132 63.62C176.185 63.9 175.072 64.04 173.792 64.04ZM173.792 58.86C172.405 58.86 171.285 59.0267 170.432 59.36C169.592 59.6933 169.172 60.16 169.172 60.76C169.172 61.36 169.592 61.8267 170.432 62.16C171.285 62.4933 172.405 62.66 173.792 62.66C175.178 62.66 176.292 62.4933 177.132 62.16C177.985 61.8267 178.412 61.36 178.412 60.76C178.412 60.16 177.985 59.6933 177.132 59.36C176.292 59.0267 175.178 58.86 173.792 58.86ZM165.472 65.2H182.112V66.58H165.472V65.2ZM167.792 70.96H178.112V69.5H167.792V68.12H179.792V72.3H169.472V73.86H180.192V75.26H167.792V70.96ZM201.836 65.86H198.276C198.236 67.1933 198.016 68.3267 197.616 69.26C197.229 70.1933 196.709 70.9 196.056 71.38C195.403 71.86 194.669 72.1 193.856 72.1C193.016 72.1 192.263 71.8467 191.596 71.34C190.929 70.8333 190.403 70.08 190.016 69.08C189.629 68.0667 189.436 66.8533 189.436 65.44C189.436 64.0267 189.629 62.82 190.016 61.82C190.403 60.8067 190.929 60.0467 191.596 59.54C192.263 59.0333 193.016 58.78 193.856 58.78C194.616 58.78 195.309 58.9933 195.936 59.42C196.563 59.8467 197.076 60.48 197.476 61.32C197.889 62.16 198.143 63.18 198.236 64.38H201.836V57.64H203.516V75.46H201.836V65.86ZM193.856 60.22C193.029 60.22 192.356 60.6667 191.836 61.56C191.329 62.4533 191.076 63.7467 191.076 65.44C191.076 67.1333 191.329 68.4267 191.836 69.32C192.356 70.2133 193.029 70.66 193.856 70.66C194.683 70.66 195.349 70.2133 195.856 69.32C196.376 68.4267 196.636 67.1333 196.636 65.44C196.636 63.7467 196.376 62.4533 195.856 61.56C195.349 60.6667 194.683 60.22 193.856 60.22ZM220.674 63.4H217.514V61.98H220.674V57.64H222.314V70.64H220.674V63.4ZM219.374 67.02C218.508 67.22 217.348 67.32 215.894 67.32H213.594V58.48H218.414V59.9H215.254V65.88H215.934C217.441 65.88 218.588 65.7933 219.374 65.62V67.02ZM210.954 69.24H212.654V73.72H222.714V75.16H210.954V69.24ZM212.994 67.1C212.248 67.2467 211.281 67.32 210.094 67.32H208.194V58.48H212.794V59.9H209.834V65.88H210.114C211.341 65.88 212.301 65.8133 212.994 65.68V67.1ZM238.998 75.82C237.785 75.82 236.725 75.66 235.818 75.34C234.912 75.02 234.212 74.5867 233.718 74.04C233.238 73.4933 232.998 72.8733 232.998 72.18C232.998 71.4867 233.238 70.8667 233.718 70.32C234.212 69.7733 234.912 69.34 235.818 69.02C236.725 68.7 237.785 68.54 238.998 68.54C240.212 68.54 241.272 68.7 242.178 69.02C243.085 69.34 243.778 69.7733 244.258 70.32C244.752 70.8667 244.998 71.4867 244.998 72.18C244.998 72.8733 244.752 73.4933 244.258 74.04C243.778 74.5867 243.085 75.02 242.178 75.34C241.272 75.66 240.212 75.82 238.998 75.82ZM240.398 67.1C239.425 66.7267 238.512 66.1933 237.658 65.5C236.818 64.8067 236.172 64.0533 235.718 63.24C235.332 64.0667 234.705 64.88 233.838 65.68C232.985 66.48 232.005 67.14 230.898 67.66L229.838 66.44C231.292 65.7867 232.478 64.9133 233.398 63.82C234.332 62.7133 234.798 61.52 234.798 60.24V59.9H230.958V58.48H240.398V59.9H236.558V60.22C236.558 61.46 237.012 62.58 237.918 63.58C238.825 64.5667 239.945 65.3133 241.278 65.82L240.398 67.1ZM238.998 69.98C237.638 69.98 236.578 70.18 235.818 70.58C235.058 70.9667 234.678 71.5 234.678 72.18C234.678 72.86 235.058 73.4 235.818 73.8C236.578 74.1867 237.638 74.38 238.998 74.38C240.358 74.38 241.418 74.1867 242.178 73.8C242.938 73.4 243.318 72.86 243.318 72.18C243.318 71.5 242.938 70.9667 242.178 70.58C241.418 70.18 240.358 69.98 238.998 69.98ZM242.998 57.64H244.678V61.66H247.178V63.14H244.678V68.24H242.998V57.64ZM257.777 72.08H265.237V73.52H248.597V72.08H256.057V67.9H257.777V72.08ZM256.917 63.12C256.33 64.24 255.45 65.2467 254.277 66.14C253.103 67.02 251.803 67.6933 250.377 68.16L249.417 66.84C250.603 66.48 251.703 65.9533 252.717 65.26C253.73 64.5667 254.537 63.7733 255.137 62.88C255.75 61.9867 256.057 61.0667 256.057 60.12V58.64H257.777V60.12C257.777 61.0667 258.077 61.9867 258.677 62.88C259.29 63.7733 260.103 64.5667 261.117 65.26C262.13 65.9533 263.23 66.48 264.417 66.84L263.457 68.16C262.03 67.6933 260.73 67.02 259.557 66.14C258.383 65.2467 257.503 64.24 256.917 63.12ZM276.275 72.08H283.635V73.52H266.995V72.08H274.555V68.88H269.355V63.14H279.495V60.34H269.355V58.92H281.175V64.54H271.035V67.44H281.575V68.88H276.275V72.08ZM291.239 59.18H292.919V63.8H297.799V59.18H299.479V71.42H291.239V59.18ZM292.919 65.22V69.98H297.799V65.22H292.919ZM302.759 57.64H304.439V64.56H307.139V66.08H304.439V75.46H302.759V57.64ZM317.738 67.48H322.878V71.98H312.558V73.86H323.278V75.26H310.878V70.64H321.198V68.86H310.878V67.48H316.018V65.12H308.558V63.74H313.678C314.051 62.2467 314.278 60.8467 314.358 59.54H310.318V58.16H316.078C316.011 59.9867 315.758 61.8467 315.318 63.74H320.878C321.171 62.54 321.371 61.14 321.478 59.54H316.718V58.16H323.198C323.118 60.2667 322.891 62.1267 322.518 63.74H325.198V65.12H317.738V67.48ZM339.996 57.64H341.636V64.46H344.236V65.98H341.636V75.46H339.996V57.64ZM332.316 72.12C333.73 70.5867 334.723 68.9133 335.296 67.1C335.883 65.2867 336.21 63.1867 336.276 60.8H333.196V59.38H337.996C337.983 61.4867 337.843 63.32 337.576 64.88C337.31 66.44 336.863 67.88 336.236 69.2C335.61 70.52 334.756 71.8 333.676 73.04L332.316 72.12ZM326.796 70.98C328.156 69.58 329.15 68.0333 329.776 66.34C330.403 64.6467 330.77 62.8 330.876 60.8H327.996V59.38H332.596C332.556 62.1133 332.196 64.46 331.516 66.42C330.836 68.3667 329.73 70.1667 328.196 71.82L326.796 70.98ZM353.695 68C352.495 68 351.415 67.7867 350.455 67.36C349.495 66.9333 348.741 66.3533 348.195 65.62C347.661 64.8867 347.395 64.0733 347.395 63.18C347.395 62.2867 347.661 61.4733 348.195 60.74C348.741 60.0067 349.495 59.4267 350.455 59C351.415 58.5733 352.495 58.36 353.695 58.36C354.895 58.36 355.975 58.5733 356.935 59C357.895 59.4267 358.641 60.0067 359.175 60.74C359.721 61.4733 359.995 62.2867 359.995 63.18C359.995 64.0733 359.721 64.8867 359.175 65.62C358.641 66.3533 357.895 66.9333 356.935 67.36C355.975 67.7867 354.895 68 353.695 68ZM353.695 59.8C352.801 59.8 352.001 59.9467 351.295 60.24C350.601 60.5333 350.055 60.94 349.655 61.46C349.268 61.9667 349.075 62.54 349.075 63.18C349.075 63.82 349.268 64.4 349.655 64.92C350.055 65.4267 350.601 65.8267 351.295 66.12C352.001 66.4133 352.801 66.56 353.695 66.56C354.588 66.56 355.381 66.4133 356.075 66.12C356.781 65.8267 357.328 65.4267 357.715 64.92C358.115 64.4 358.315 63.82 358.315 63.18C358.315 62.54 358.115 61.9667 357.715 61.46C357.328 60.94 356.781 60.5333 356.075 60.24C355.381 59.9467 354.588 59.8 353.695 59.8ZM349.275 68.58H350.915V72.08H356.435V68.58H358.075V72.08H361.995V73.52H345.355V72.08H349.275V68.58ZM367.513 69.26C367.446 68.9267 367.413 68.6533 367.413 68.44C367.413 67.84 367.58 67.3133 367.913 66.86C368.26 66.4067 368.78 65.9867 369.473 65.6C370.273 65.1333 370.866 64.7 371.253 64.3C371.653 63.8867 371.853 63.4 371.853 62.84C371.853 62.4133 371.72 62.0267 371.453 61.68C371.2 61.32 370.846 61.04 370.393 60.84C369.953 60.6267 369.466 60.52 368.933 60.52C368.386 60.52 367.886 60.6333 367.433 60.86C366.993 61.0867 366.64 61.4 366.373 61.8C366.12 62.1867 365.993 62.62 365.993 63.1H364.153C364.153 62.2867 364.36 61.5667 364.773 60.94C365.2 60.3 365.773 59.8067 366.493 59.46C367.226 59.1 368.04 58.92 368.933 58.92C369.813 58.92 370.613 59.0867 371.333 59.42C372.066 59.74 372.646 60.1933 373.073 60.78C373.5 61.3667 373.713 62.0267 373.713 62.76C373.713 63.4133 373.586 63.9733 373.333 64.44C373.08 64.8933 372.713 65.3067 372.233 65.68C371.766 66.04 371.086 66.4933 370.193 67.04C369.846 67.2533 369.586 67.48 369.413 67.72C369.24 67.9467 369.153 68.2133 369.153 68.52C369.153 68.7467 369.2 68.9933 369.293 69.26H367.513ZM368.833 74.02C368.433 74.02 368.1 73.8867 367.833 73.62C367.58 73.3533 367.453 73.0267 367.453 72.64C367.453 72.2533 367.58 71.9267 367.833 71.66C368.1 71.3933 368.433 71.26 368.833 71.26C369.22 71.26 369.54 71.3933 369.793 71.66C370.06 71.9267 370.193 72.2533 370.193 72.64C370.193 73.0267 370.06 73.3533 369.793 73.62C369.526 73.8867 369.206 74.02 368.833 74.02Z" fill="black"/>
<rect x="43.5" y="111.5" width="379" height="49" rx="14.5" fill="#EFEFEF"/>
<rect x="43.5" y="111.5" width="379" height="49" rx="14.5" stroke="#D9D9D9"/>
<path d="M400.5 123.5L386.75 137.25M400.5 123.5L391.75 148.5L386.75 137.25M400.5 123.5L375.5 132.25L386.75 137.25" stroke="#1E1E1E" stroke-width="3" stroke-linecap="round" stroke-linejoin="round"/>
</g>
<defs>
<filter id="filter0_d_514_13666" x="0" y="0" width="470" height="220" filterUnits="userSpaceOnUse" color-interpolation-filters="sRGB">
<feFlood flood-opacity="0" result="BackgroundImageFix"/>
<feColorMatrix in="SourceAlpha" type="matrix" values="0 0 0 0 0 0 0 0 0 0 0 0 0 0 0 0 0 0 127 0" result="hardAlpha"/>
<feOffset dx="2" dy="4"/>
<feGaussianBlur stdDeviation="7.5"/>
<feComposite in2="hardAlpha" operator="out"/>
<feColorMatrix type="matrix" values="0 0 0 0 0 0 0 0 0 0 0 0 0 0 0 0 0 0 0.1 0"/>
<feBlend mode="normal" in2="BackgroundImageFix" result="effect1_dropShadow_514_13666"/>
<feBlend mode="normal" in="SourceGraphic" in2="effect1_dropShadow_514_13666" result="shape"/>
</filter>
</defs>
</svg>
